<svg id="Capa_1" enable-background="new 0 0 512 512" height="512" viewBox="0 0 512 512" width="512" xmlns="http://www.w3.org/2000/svg"><g><path d="m287.867 452.837c9.832 2.104 19.311-6.82 28.334-2.909 29.477 12.774 54.095 34.646 70.32 62.072h-261.049c15.894-26.866 39.841-48.402 68.52-61.278 9.56-4.292 19.645 4.36 30.133 2.115z" fill="#365e7d"/><path d="m224.411 452.837c-12.682 13.052-23.272 33.718-30.421 59.163h-68.517c15.896-26.867 39.847-48.398 68.517-61.275 9.56-4.296 19.645 4.358 30.143 2.112z" fill="#2b4d66"/><path d="m316.198 449.932c-15.865 14.567-37.004 23.457-60.235 23.457-3.008 0-5.975-.144-8.901-.443-19.697-1.947-37.509-10.322-51.313-22.994 9.035-3.925 18.523-6.985 28.371-9.096v-55.238h63.748v55.238c9.828 2.101 19.305 5.161 28.33 9.076z" fill="#ffddce"/><path d="m247.062 385.622v-.005h-22.942v.005h-.001l.001 55.234c-9.849 2.112-19.337 5.171-28.371 9.096 13.804 12.671 31.616 21.047 51.313 22.994v-62.239h18.45c7.654 0 15.133-.773 22.355-2.235v-22.849h-40.805z" fill="#ffcbbe"/><path d="m98.24 285.137v99.312c0 12.508 10.14 22.647 22.647 22.647 8.874 0 16.552-5.107 20.266-12.54 3.714 7.433 11.392 12.54 20.266 12.54 12.508 0 22.647-10.139 22.647-22.647v-99.312z" fill="#2b4d66"/><path d="m327.926 285.137v99.312c0 12.508 10.14 22.647 22.647 22.647 8.874 0 16.552-5.107 20.266-12.54 3.714 7.433 11.392 12.54 20.266 12.54 12.508 0 22.647-10.139 22.647-22.647v-99.312z" fill="#365e7d"/><path d="m255.997 0c-87.127 0-157.757 70.63-157.757 157.757v127.38h315.514v-127.38c0-87.127-70.631-157.757-157.757-157.757z" fill="#365e7d"/><path d="m256.002.01c0 24.979-7.623 49.298-21.529 70.048-16.807 25.078-26.612 55.245-26.612 87.693v127.392h-109.621v-127.391c0-87.112 70.629-157.742 157.762-157.742z" fill="#2b4d66"/><g fill="#ffcbbe"><circle cx="114.327" cy="272.881" r="40.809"/><circle cx="397.673" cy="272.881" r="40.809"/></g><g fill="#eaac9d"><path d="m139.924 283.876c-2.714 0-5.347-1.432-6.76-3.972-2.425-4.361-6.594-6.781-12.743-7.399-5.029-.505-9.388.486-9.43.496-4.148 1.016-8.328-1.518-9.345-5.662s1.518-8.328 5.662-9.345c.692-.17 6.976-1.636 14.657-.865 11.235 1.129 19.778 6.407 24.704 15.264 2.074 3.729.732 8.434-2.997 10.508-1.189.661-2.478.975-3.748.975z"/><path d="m372.08 283.876c-1.271 0-2.559-.314-3.748-.975-3.729-2.074-5.07-6.779-2.997-10.508 4.927-8.857 13.469-14.135 24.704-15.264 7.682-.77 13.967.695 14.657.865 4.145 1.017 6.68 5.201 5.663 9.345-1.015 4.134-5.178 6.663-9.314 5.67-.143-.033-4.66-1.055-9.83-.465-5.952.681-10 3.089-12.375 7.36-1.413 2.54-4.045 3.972-6.76 3.972z"/></g><path d="m377.244 209.189v66.962c0 52.148-35.737 95.951-84.053 108.262-8.849 2.256-18.121 3.451-27.671 3.451h-19.038c-61.698 0-111.723-50.015-111.723-111.713v-66.962c29.659-15.041 54.826-34.305 74.41-52.096 29.927-27.186 46.832-50.942 46.832-50.942s46.266 65.013 121.243 103.038z" fill="#ffddce"/><path d="m293.191 384.412c-8.849 2.256-18.121 3.451-27.671 3.451h-19.038c-61.698 0-111.723-50.015-111.723-111.713v-66.962c29.659-15.041 54.826-34.305 74.41-52.096v119.058c.001 52.138 35.727 95.931 84.022 108.262z" fill="#ffcbbe"/><g fill="#2b4d66"><path d="m198.417 231.914c-7.454 0-13.519 8.309-13.519 18.522s6.064 18.522 13.519 18.522c7.454 0 13.519-8.309 13.519-18.522s-6.064-18.522-13.519-18.522z"/><path d="m313.582 231.914c-7.454 0-13.519 8.309-13.519 18.522s6.064 18.522 13.519 18.522 13.519-8.309 13.519-18.522-6.065-18.522-13.519-18.522z"/></g><path d="m215.797 218.333c-1.977 0-3.955-.755-5.463-2.263-6.131-6.13-16.105-6.13-22.235 0-3.017 3.017-7.909 3.017-10.927 0s-3.018-7.909 0-10.927c12.155-12.156 31.934-12.156 44.089 0 3.018 3.017 3.018 7.909 0 10.927-1.509 1.508-3.487 2.263-5.464 2.263z" fill="#365e7d"/><path d="m330.529 218.333c-1.977 0-3.955-.755-5.463-2.263-6.131-6.13-16.105-6.13-22.235 0-3.017 3.017-7.909 3.017-10.927 0s-3.018-7.909 0-10.927c12.155-12.156 31.934-12.156 44.089 0 3.018 3.017 3.018 7.909 0 10.927-1.509 1.508-3.486 2.263-5.464 2.263z" fill="#365e7d"/><path d="m256 304.671c-14.268 0-27.077-9.542-31.15-23.203-1.219-4.09 1.108-8.393 5.197-9.612s8.392 1.108 9.612 5.197c2.135 7.163 8.856 12.166 16.342 12.166 7.495 0 14.214-5 16.34-12.157 1.215-4.091 5.516-6.421 9.606-5.208 4.091 1.215 6.422 5.516 5.208 9.606-4.06 13.666-16.871 23.211-31.155 23.211z" fill="#eaa598"/><path d="m272.171 348.143c-8.93-8.93-23.409-8.93-32.339 0-8.93 8.93-8.93 23.409 0 32.339l16.169 16.169 16.169-16.169c8.931-8.931 8.931-23.409.001-32.339z" fill="#365e7d"/></g></svg>