<svg width="246" height="246" viewBox="0 0 246 246" fill="none" xmlns="http://www.w3.org/2000/svg">
<rect width="246" height="246" fill="white"/>
<circle cx="124" cy="127" r="86" fill="#E7F3E9"/>
<path fill-rule="evenodd" clip-rule="evenodd" d="M144.834 121.469L144.875 121.474C145.469 121.589 146.453 123.287 146.856 123.77C148.155 125.327 149.454 126.883 150.753 128.44C151.273 129.063 152.023 129.717 152.393 130.438C152.678 130.993 152.776 131.758 152.946 132.352C155.058 139.737 157.125 147.17 158.663 154.699C158.995 156.32 159.309 157.952 159.493 159.597C159.584 160.41 159.823 161.605 159.469 162.39C159.069 163.276 157.785 163.644 156.95 163.919C155.326 164.453 153.626 164.771 151.945 165.057C147.892 165.745 143.789 166.144 139.693 166.467C138.442 166.566 137.154 166.564 135.91 166.733C135.316 166.813 135.494 166.654 135.307 167.052C135.047 167.607 135.219 168.764 135.189 169.369C135.116 170.792 135.043 172.214 134.97 173.636L134.374 185.276C134.172 189.21 133.971 193.143 133.769 197.077C133.693 198.567 133.617 200.058 133.541 201.548C133.5 202.345 133.621 203.374 133.408 204.145C133.246 204.728 133.512 204.556 132.797 204.591C131.14 204.671 129.424 204.47 127.767 204.411C125.888 204.344 124.008 204.276 122.129 204.209C121.592 204.19 120.992 204.342 120.776 203.957C120.513 203.489 120.713 202.201 120.694 201.677C120.642 200.219 120.59 198.761 120.538 197.303C120.395 193.3 120.252 189.297 120.109 185.294C119.913 179.835 119.718 174.375 119.522 168.916C117.433 169.337 115.342 169.757 113.252 170.178C110.164 170.799 107.076 171.421 103.987 172.042C102.571 172.327 100.889 172.978 99.4262 172.768C97.9735 172.559 97.373 171.939 97.2914 170.56C97.2039 169.082 97.238 167.592 97.2578 166.112C97.2904 163.692 97.3599 161.273 97.4514 158.854C101.578 158.483 105.704 158.111 109.83 157.739C112.028 157.541 114.225 157.343 116.422 157.145C116.921 157.101 118.15 157.197 118.372 156.821C118.718 156.237 118.333 154.315 118.323 153.654L118.224 147.406L117.864 124.418C118.852 124.45 119.84 124.48 120.827 124.507C125.126 124.629 129.445 124.804 133.744 124.672C135.9 124.606 137.943 124.024 139.979 123.338C141.061 122.973 142.132 122.576 143.195 122.158C143.53 122.027 144.514 121.404 144.875 121.474L144.834 121.469ZM139.047 142.861L136.852 153.601L144.366 153.103L139.047 142.861Z" fill="#219653"/>
<path fill-rule="evenodd" clip-rule="evenodd" d="M201.808 55.7611C201.655 56.9557 201.764 58.258 200.415 58.5729C199.167 58.8645 197.798 58.7827 196.526 58.8848C195.096 58.9997 193.67 59.1567 192.243 59.298C190.444 59.4762 190.701 58.7849 190.308 57.2486C189.948 55.8456 189.375 54.4455 188.898 53.0772C188.676 52.4412 188.411 51.8562 188.109 51.2568C187.835 50.7143 187.965 49.9762 187.67 49.5202C186.663 47.9643 181.751 52.219 181.295 51.3804C182.126 50.7333 183.564 50.0093 183.819 48.9021C184.119 47.6007 183.292 47.2122 182.253 47.688C179.696 48.8593 176.746 49.7748 173.957 50.2016C174.859 49.5988 183.015 44.8476 180.278 43.4382C179.661 43.1206 178.837 43.7185 178.281 43.9447C177.398 44.3038 176.475 44.5445 175.554 44.7798C174.582 45.0277 173.609 45.2663 172.632 45.4917C171.947 45.6499 170.726 46.2117 170.058 46.073C169.381 45.9321 170.581 45.5114 170.778 45.4123C171.635 44.9805 172.478 44.5166 173.314 44.0467C174.799 43.2131 176.17 42.2474 177.299 40.9584C178.151 39.9858 179.557 37.8619 178.964 36.5171C178.621 35.7376 177.867 35.0171 177.425 34.2786C176.908 33.4159 176.491 32.4965 176.043 31.5978C176.794 31.928 177.636 32.0125 178.403 32.3089C179.17 32.6055 179.948 32.8455 180.746 33.066C182.346 33.5081 183.941 33.5867 185.526 33.9454C187.321 34.3512 189.191 34.805 191.015 35.0396C192.602 35.2435 194.03 35.678 195.39 36.5436C198.168 38.3118 200.095 40.8519 201.07 43.9931C201.641 45.8333 201.78 47.7532 201.847 49.6678C201.918 51.6864 202.067 53.7514 201.808 55.7611ZM186.218 55.9097C184.278 57.3237 182.017 58.4288 179.935 59.6317C178.744 60.3198 177.527 60.9629 176.312 61.608C175.45 62.0658 174.402 62.9081 173.453 63.1429C172.853 63.2915 172.898 63.3028 172.518 62.7554C172.154 62.2326 171.837 61.6698 171.497 61.1315C170.871 60.1389 170.238 59.15 169.606 58.1611C168.187 55.9443 166.772 53.7279 165.282 51.5583C163.787 49.3813 162.353 47.1642 160.905 44.9563C160.231 43.9298 159.563 42.8994 158.848 41.9011C158.303 41.1389 156.905 39.9762 157.569 39.0787C158.185 38.2451 159.59 37.5525 160.422 36.9215C161.437 36.1511 162.459 35.3886 163.472 34.6142C165.649 32.9496 167.769 31.2125 169.945 29.5456C171.791 32.7837 173.963 35.8194 176.154 38.8298C174.172 40.0941 172.171 41.2958 170.083 42.3781C168.542 43.1775 166.183 44.2576 165.209 45.7739C164.249 47.2671 165.192 48.9898 166.902 49.0172C167.925 49.0335 168.944 48.7626 169.947 48.6079C170.67 48.4962 171.992 47.9744 172.645 48.3422C171.472 49.0906 167.216 51.2719 169.51 53.1842C171.15 54.5512 173.922 52.5564 175.693 52.9669C175.153 54.003 174.592 55.6558 176.091 56.2194C177.338 56.6885 178.97 55.8143 180.092 55.3506C180.904 55.0157 181.709 54.6694 182.507 54.3038C183.141 54.0129 183.9 53.4237 184.578 53.2981C185.369 53.1516 186.978 55.355 186.218 55.9097ZM150.156 132.277C151.266 132.074 151.836 131.615 152.186 132.963C152.499 134.17 152.809 135.333 153.213 136.517C151.479 136.667 149.95 137.495 148.685 138.659C147.785 139.489 145.995 141.469 146.439 142.858C147.517 146.235 152.964 138.661 153.611 137.851C154.403 139.009 154.695 140.525 155.088 141.85C155.369 142.792 156.409 144.599 155.034 144.828C153.103 145.15 149.481 145.868 149.71 148.603C149.981 151.83 154.086 151.812 156.389 151.957C157.688 152.038 157.694 153.079 157.879 154.243C157.962 154.764 158.22 155.468 157.778 155.849C157.385 156.187 156.183 156.197 155.672 156.306C154.182 156.626 152.693 156.952 151.204 157.272C149.513 157.634 148.619 157.126 147.038 156.663C146.453 156.492 145.865 156.564 145.822 155.909C145.796 155.507 146.189 154.885 146.318 154.487C146.828 152.914 147.263 151.294 147.409 149.642C147.623 147.241 147.356 143.642 144.4 143.173C142.994 142.95 142.723 142.878 142.088 141.558C141.402 140.131 140.311 138.809 140.575 137.165C140.766 135.973 140.444 133.719 141.204 132.731C141.556 132.274 142.241 132.002 142.709 131.666C143.305 131.239 143.879 130.781 144.434 130.302C144.902 129.9 145.471 129.113 146.001 128.822C146.648 128.467 146.668 128.709 147.133 129.264C147.819 130.084 148.909 132.504 150.156 132.277ZM153.293 137.61C152.909 138.387 152.02 139.108 151.454 139.756C150.884 140.408 150.345 141.097 149.71 141.688C149.011 142.338 146.528 143.908 147.075 141.794C147.5 140.15 149.093 138.818 150.496 137.998C150.767 137.839 153.944 136.297 153.293 137.61ZM156.01 145.438C156.256 146.539 156.389 147.673 156.599 148.782C156.707 149.349 157.303 150.718 157.06 151.263C156.648 152.187 152.943 151.093 152.175 150.775C150.347 150.018 149.508 148.076 151.194 146.692C151.833 146.168 155.764 144.338 156.01 145.438ZM158.439 158.657C158.645 159.707 159.249 160.681 158.251 161.476C157.422 162.135 156.065 162.585 155.044 162.82C153.652 163.14 153.204 162.36 152.468 161.357C151.676 160.279 150.832 159.237 149.958 158.224C152.705 157.609 155.452 156.994 158.2 156.379C158.198 157.144 158.291 157.907 158.439 158.657ZM151.856 163.533C150.423 163.459 148.881 163.89 147.428 164.004C145.613 164.145 143.804 164.351 141.988 164.473C142.453 162.989 143.289 161.664 143.943 160.262C144.598 158.855 145.059 158.702 146.568 158.594C147.966 158.493 148.952 158.012 149.984 159.198C151.058 160.432 152.03 161.772 153.01 163.08C152.677 163.303 152.278 163.555 151.856 163.533ZM141.614 163.836C141.26 164.094 140.17 163.362 139.803 163.22C139.088 162.944 138.93 162.855 138.557 162.158C138.236 161.558 137.727 160.877 137.626 160.193C137.494 159.291 137.893 158.104 138.038 157.208C138.425 158.141 139.695 158.249 140.553 158.401C141.202 158.517 143.125 158.333 143.614 158.795C144.154 159.306 143.159 160.73 142.9 161.266C142.59 161.906 142.208 163.403 141.614 163.836ZM140.921 164.576C140.496 164.645 139.271 165.068 139.296 164.291C139.323 163.403 141.008 164.361 140.921 164.576ZM138.764 164.529C138.686 165.277 137.078 165.215 137.041 164.557C136.978 163.446 138.887 163.336 138.764 164.529ZM136.925 144.374C136.514 145.545 134.009 145.964 133.047 146.324C132.169 146.654 129.545 148.174 128.639 147.622C131.705 145.515 134.847 143.45 137.444 140.76C137.551 141.425 137.389 141.98 137.193 142.609C137.016 143.177 137.107 143.855 136.925 144.374ZM136.162 148.644C135.721 151.513 135.288 154.419 134.691 157.259C133.554 156.912 132.615 156.207 131.42 155.962C130.329 155.738 129.203 155.732 128.103 155.896C125.76 156.244 123.67 157.404 121.626 158.533C121.437 156.566 121.046 154.461 121.092 152.487C121.13 150.847 123.937 150.361 125.21 149.684C125.98 149.274 126.676 148.697 127.553 148.555C128.456 148.407 129.327 148.412 130.219 148.137C132.328 147.486 134.312 146.455 136.378 145.686C136.546 146.671 136.312 147.674 136.162 148.644ZM134.192 160.785C134.098 161.437 134.217 162.6 133.72 163.098C133.252 163.566 132.252 163.581 131.635 163.708C129.755 164.095 127.877 164.485 126 164.884C125.161 165.062 124.321 165.233 123.477 165.392C123.075 165.468 122.066 165.854 121.728 165.534C121.406 165.23 121.646 164.259 121.663 163.852C121.698 163.038 121.744 162.222 121.692 161.408C121.594 159.847 121.681 159.249 123.135 158.441C124.678 157.583 126.273 156.995 128.01 156.677C129.77 156.355 131.446 156.531 133.12 157.207C133.586 157.394 134.285 157.626 134.502 158.129C134.797 158.812 134.291 160.092 134.192 160.785ZM132.076 185.952C131.387 186.384 129.887 186.31 129.096 186.398C127.818 186.539 126.532 186.458 125.262 186.261C124.306 186.113 122.88 185.907 122.147 185.236C121.107 184.283 122.308 184.239 123.104 184.306C125.42 184.501 127.764 184.365 130.078 184.198C130.528 184.165 131.739 183.77 132.173 183.955C132.728 184.191 132.558 185.649 132.076 185.952ZM130.763 201.359C126.449 200.94 123.947 197.367 122.383 193.715C121.543 191.754 121.846 189.697 121.763 187.623C121.748 187.245 121.51 186.305 121.9 186.022C122.265 185.756 123.745 186.578 124.146 186.676C126.198 187.179 128.467 187.227 130.524 186.739C131.414 186.527 131.913 186.134 132.196 187.016C132.424 187.727 132.05 189.038 132.009 189.783C131.939 191.072 132.141 201.493 130.763 201.359ZM122.144 201.363C122.128 200.737 121.812 194.413 122.119 194.394C123.029 196.358 123.964 198.114 125.621 199.559C126.467 200.297 127.419 200.962 128.477 201.358C128.875 201.507 131.129 201.62 131.239 202.113C131.432 202.977 129.894 202.628 129.438 202.558C129.071 202.502 128.742 202.346 128.383 202.28C127.698 202.156 127.052 202.323 126.365 202.337C125.32 202.358 124.295 202.249 123.25 202.339C122.295 202.421 122.17 202.312 122.144 201.363ZM122.781 172.999C126.475 171.805 129.561 174.066 131.51 177.025C132.622 178.712 132.87 179.892 132.676 181.89C132.606 182.605 132.735 183.09 132.077 183.381C131.426 183.67 129.948 183.456 129.243 183.489C127.218 183.583 125.2 183.709 123.175 183.589C121.859 183.511 121.673 183.288 121.696 182.011C121.723 180.474 121.595 178.943 121.508 177.403C121.414 175.738 120.842 173.625 122.781 172.999ZM121.573 170.784C121.575 169.655 121.507 168.496 121.576 167.368C121.645 166.25 122.121 166.305 123.176 166.114C125.462 165.701 127.745 165.239 130 164.678C130.892 164.457 131.9 164.032 132.829 164.028C133.804 164.025 133.753 164.526 133.688 165.389C133.543 167.302 133.193 169.186 133.086 171.088C132.971 173.141 132.911 175.22 132.92 177.275C132.923 177.969 133.092 178.483 132.5 177.834C131.908 177.183 131.618 176.147 131.09 175.416C130.007 173.92 128.397 172.716 126.611 172.209C125.623 171.928 124.584 171.88 123.578 172.083C123.272 172.144 121.742 172.875 121.547 172.73C121.415 172.633 121.572 170.83 121.573 170.784ZM135.084 209.934C136.549 210.982 138.171 211.83 139.813 212.566C140.737 212.98 144.395 213.851 144.512 214.783C144.574 215.28 143.968 215.837 143.571 215.896C143.067 215.97 142.237 215.642 141.724 215.579C139.859 215.353 137.997 215.351 136.177 214.832C132.543 213.795 128.776 213.503 125.104 212.599C124.23 212.384 123.355 212.182 122.476 211.987C121.642 211.802 121.269 211.834 121.239 210.942C121.174 208.986 121.735 206.982 121.74 205.001C124.71 205.34 127.691 205.336 130.669 205.615C131.946 205.734 131.916 205.976 132.475 207.092C133.056 208.249 134.043 209.189 135.084 209.934ZM120.601 146.376C120.563 145.652 120.534 144.926 120.468 144.204C120.424 143.719 119.981 142.362 120.231 141.984C120.528 141.536 120.827 141.81 121.358 141.797C122.059 141.781 122.645 141.499 123.223 141.131C124.316 140.433 125.129 139.515 125.839 138.443C126.463 137.5 126.347 136.211 126.34 135.082C126.32 132.162 126.533 129.314 126.354 126.38C126.273 125.033 127.423 125.859 128.351 126.034C129.87 126.319 131.521 126.122 133.065 126.125C133.008 126.485 129.851 127.376 129.341 127.715C128.035 128.584 127.274 129.973 127.393 131.557C127.632 134.743 131.142 135.276 133.706 135.282C131.579 137.163 129.489 138.957 127.817 141.277C126.584 142.988 124.413 146.362 126.428 148.255C124.647 149.267 122.881 150.393 120.866 150.879C120.776 149.379 120.679 147.878 120.601 146.376ZM119.792 88.2101C120.517 88.676 120.822 88.0173 121.374 87.6762C122.152 87.1955 122.409 87.2427 122.508 86.1693C122.69 84.1784 121.853 82.3763 120.801 80.747C120.323 80.0065 119.846 79.1246 119.172 78.5457C118.557 78.018 117.935 78.1997 117.365 77.6542C117.142 77.4397 117.189 77.1369 116.82 77.1455C116.576 77.1512 115.984 77.9056 115.783 78.0722C115.148 78.5981 114.371 78.9985 113.538 78.5648C112.326 77.9335 112.715 75.6423 113.657 74.9001C114.382 74.3286 115.239 74.4169 116.064 74.3247C116.683 74.2557 116.812 74.2826 116.557 73.5743C116.379 73.0782 115.967 72.6911 115.764 72.206C115.374 71.2744 115.459 70.1421 115.29 69.1562C115.138 68.2728 114.784 67.3173 114.797 66.4201C114.814 65.2777 115.187 64.9809 116.177 64.6605C117.136 64.3503 117.93 63.6664 118.747 63.0918C119.671 62.4412 120.684 62.0117 121.634 61.4177C122.279 61.0144 122.695 60.199 123.404 60.5798C124.247 61.0324 125.138 62.3426 125.855 63.0122C124.806 63.6778 124.562 63.969 124.707 65.272C124.84 66.4666 125.083 67.5311 125.996 68.3633C126.347 68.6831 127.001 68.9392 127.273 69.308C127.59 69.7375 127.384 69.3589 127.344 69.8438C127.323 70.1053 127.116 70.2764 127.161 70.5786C127.362 71.9212 128.904 71.1288 129.54 70.6624C131.811 68.996 127.571 67.6727 126.564 67.0657C125.868 66.6462 125.524 65.3076 126.626 65.6633C127.359 65.8998 129.015 67.9053 129.183 66.0773C131 67.1329 132.122 69.3759 133.646 70.7942C134.745 71.8169 136.221 72.9514 135.349 74.5849C134.237 76.667 132.033 77.6122 130.021 78.5106C128.069 79.3819 128.474 81.8476 129.517 83.3568C130.121 84.2293 130.911 84.7404 131.862 85.1643C132.833 85.5976 133.035 86.1065 133.247 87.1115C133.482 88.2262 133.232 88.6755 132.267 89.2514C131.324 89.814 130.339 90.3587 129.333 90.7989C127.157 91.751 124.9 91.8111 122.586 92.1356C121.775 92.2493 120.997 92.4861 120.555 91.682C120.057 90.7772 120.021 89.2188 119.792 88.2101ZM119.442 83.8798C118.898 83.5928 117.583 84.5462 116.895 84.5879C115.781 84.6554 115.05 84.6299 114.061 85.2207C112.192 86.3374 110.642 87.7751 109.143 89.3342C107.455 91.0903 105.777 92.8556 104.095 94.6169C103.332 95.4147 102.566 96.2084 101.791 96.9941C101.181 97.6135 100.584 98.4845 99.8287 98.9264C99.868 98.4015 100.19 98.03 100.304 97.5433C100.371 97.2588 100.254 97.0173 100.297 96.745C100.312 96.6565 100.549 96.349 100.585 96.2482C100.682 95.982 100.8 95.719 100.914 95.4426C101.021 95.1846 101.005 94.9172 101.113 94.6478C101.225 94.37 101.53 94.1861 101.636 93.9125C101.946 93.1116 101.433 92.7404 100.611 92.7592C100.933 91.1568 101.073 90.3731 102.748 89.808C104.349 89.2682 105.913 88.6622 107.383 87.8186C108.689 87.0697 109.778 85.9903 111.033 85.1557C112.156 84.4082 113.555 83.6252 113.543 82.0925C114.181 82.5246 114.778 82.8882 115.506 82.4581C116.121 82.0948 116.203 81.8024 116.914 81.7339C117.494 81.6783 117.854 81.6635 118.372 81.9188C118.981 82.2188 119.065 82.4277 119.42 81.5438C119.823 81.8834 120.843 83.298 120.809 83.8578C120.791 84.1663 120.744 84.3054 120.362 84.3867C119.82 84.5019 119.841 84.0896 119.442 83.8798ZM116.903 167.593C116.638 167.999 115.521 167.924 115.089 167.919C113.774 167.902 113.314 166.798 112.737 165.731C111.828 164.05 110.468 160.557 111.96 158.792C113.138 157.399 115.433 159.154 116.236 160.206C116.93 161.115 116.724 162.478 116.789 163.569C116.843 164.488 117.426 166.791 116.903 167.593ZM113.31 168.202C112.784 168.728 111.078 168.616 110.381 168.729C109.138 168.931 107.901 169.173 106.695 169.54C105.797 169.813 104.909 170.549 104.672 169.297C104.473 168.244 104.572 166.982 104.591 165.92C104.612 164.774 104.732 163.642 104.831 162.501C104.899 161.729 104.73 160.31 105.36 159.718C105.903 159.207 107.222 159.158 107.927 158.989C109.084 158.712 110.293 158.347 111.496 158.471C110.795 160.376 110.735 162.374 111.487 164.272C111.702 164.814 113.635 167.877 113.31 168.202ZM104.466 160.613C104.173 163.479 103.878 166.362 104.161 169.242C104.178 169.414 104.383 170.2 104.294 170.323C104.201 170.451 103.471 170.517 103.305 170.556C102.647 170.712 101.989 170.878 101.326 171.016C100.036 171.286 99.868 170.471 99.6149 169.276C99.0728 166.714 100.124 163.937 100.761 161.477C101.071 160.279 101.301 160.141 102.479 160.042C103.299 159.973 104.591 159.396 104.466 160.613ZM99.4851 171.303C98.9922 171.752 98.4995 169.636 98.456 169.421C98.2837 168.565 98.3796 167.696 98.3821 166.827C98.3863 165.469 98.2825 164.117 98.2805 162.765C98.2792 162.034 97.7314 160.539 98.5967 160.152C98.8505 160.039 99.8591 160.086 100.088 160.235C100.563 160.546 100.376 160.747 100.235 161.287C99.9197 162.499 99.647 163.717 99.3724 164.939C99.1029 166.137 98.8372 167.29 98.9655 168.528C99.0078 168.937 99.7993 171.018 99.4851 171.303ZM115.206 157.953C116.408 157.614 116.472 158.535 116.47 159.416C116.287 159.275 114.579 158.129 115.206 157.953ZM99.1321 93.2733C98.8377 93.7585 96.9728 93.891 96.4398 94.0187C95.3914 94.2699 94.3425 94.5192 93.2968 94.7807C91.3377 95.2706 89.4268 95.8233 87.4185 96.0796C88.5213 94.3138 88.8644 92.7891 88.6592 90.5856C88.4004 87.8035 88.0714 85.0496 87.4309 82.3264C86.7995 79.6409 86.0685 76.9735 85.3645 74.3061C85.0186 72.9957 84.6446 71.7102 84.1846 70.435C83.8157 69.413 83.2397 68.1265 83.8657 67.0788C85.4542 68.2377 86.7283 69.4864 87.6343 71.247C88.6051 73.1343 89.4525 75.0718 90.579 76.8774C91.0942 77.7029 91.6957 78.4558 92.2467 79.2549C92.5745 79.7304 92.8133 80.4163 93.2308 80.8174C93.7121 81.2796 94.2253 81.4976 94.5005 80.7176C94.7956 79.8804 93.854 78.2239 93.5762 77.4377C92.905 75.5397 92.2395 73.6457 91.7219 71.6988C91.3031 70.1251 90.6109 68.2224 90.8559 66.562C91.0984 64.9181 92.2138 66.0946 92.7782 66.8588C93.9418 68.4345 94.6384 70.2712 95.4028 72.0574C96.1053 73.6986 96.9248 75.2631 97.7023 76.8663C97.9727 77.4241 98.3292 78.8651 99.0377 79.0309C100.068 79.2724 99.9803 77.822 99.8819 77.2335C99.2293 73.3325 97.5255 69.5971 97.172 65.6284C97.155 65.4388 96.9087 63.9643 97.1067 63.8412C97.4907 63.6024 98.0086 65.0983 98.1742 65.4648C99.0357 67.3712 99.6357 69.3809 100.186 71.3948C100.654 73.1074 101.078 74.8331 101.603 76.5294C101.892 77.4619 102.223 78.3789 102.549 79.2986C102.845 80.1318 103.144 81.5557 103.914 82.1047C105.006 82.8835 108.915 81.0317 109.311 82.6872C109.592 83.864 105.968 84.8116 105.197 85.169C104.181 85.6394 103.184 86.1545 102.167 86.6253C101.398 86.9815 100.292 87.1275 99.735 87.7978C99.1452 88.5079 99.0508 89.505 99.0332 90.3859C99.0196 91.0525 99.4817 92.6979 99.1321 93.2733ZM96.6623 106.123C96.6106 106.492 96.3167 106.982 96.1844 107.334C95.9152 108.051 95.6863 108.908 95.3118 109.577C94.9897 110.154 94.5143 110.67 94.2031 111.256C93.9079 111.811 93.8686 112.452 93.5237 113.008C93.1292 113.644 92.4771 114.101 92.0853 114.733C91.8922 115.045 91.6927 115.401 91.4198 115.733C90.4535 116.908 89.494 118.018 88.7168 119.277C88.5181 119.6 87.5473 121.007 87.1609 121.084C86.3533 121.242 87.2934 120.094 87.4514 119.857C88.5957 118.139 89.612 116.331 90.7165 114.587C91.7864 112.899 92.8813 111.223 93.9109 109.509C94.7506 108.112 95.3313 106.105 96.6961 105.121C96.7013 105.456 96.6902 105.789 96.6623 106.123ZM133.976 90.3394C134.64 93.0721 135.436 95.7202 136.185 98.4284C136.88 100.941 137.805 103.63 138.094 106.221C138.379 108.787 139.035 111.384 139.918 113.82C140.325 114.947 140.745 116.078 141.188 117.192C141.431 117.804 141.703 118.402 141.979 119C142.193 119.464 142.76 120.216 142.781 120.708C142.799 121.102 142.936 120.945 142.547 121.241C142.144 121.547 141.447 121.436 140.978 121.49C139.754 121.631 138.562 122.092 137.369 122.39C135.069 122.964 132.328 123.421 129.972 123.021C128.98 122.852 127.951 122.707 126.97 122.487C125.764 122.217 125.516 121.718 125.269 120.533C124.728 117.942 124.261 115.357 123.814 112.748C123.283 109.645 122.708 106.545 122.298 103.423C121.883 100.264 121.586 97.1019 120.936 93.9775C123.555 94.4154 126.021 94.91 128.647 94.1925C130.973 93.557 132.652 92.315 133.976 90.3394ZM144.227 124.171C144.812 125.378 143.401 126.463 142.717 127.392C141.815 128.617 140.973 129.897 139.924 131.005C139.61 129.746 139.333 128.329 138.494 127.295C137.422 125.974 136.17 126.514 134.856 125.889C136.234 125.219 137.993 125.475 139.455 124.877C140.896 124.287 142.352 123.825 143.693 123.059C143.871 123.43 144.047 123.801 144.227 124.171ZM139.117 152.323C138.237 152.372 138.826 150.515 138.883 150.053C139.04 148.785 139.199 147.517 139.337 146.246C140.063 148.162 140.79 150.077 141.516 151.993C140.718 152.107 139.925 152.278 139.117 152.323ZM137.685 161.506C137.805 161.773 138.365 162.663 137.923 162.827C137.317 163.052 137.244 161.578 137.685 161.506ZM136.634 140.868C133.829 143.108 131.044 145.353 128.009 147.281C127.344 147.703 126.674 147.88 126.234 147.042C125.887 146.384 126.253 145.642 126.475 144.997C127.042 143.353 128.029 141.924 129.123 140.586C131.308 137.914 133.908 135.632 137.226 134.579C137.769 134.406 138.607 133.886 138.797 134.604C138.909 135.027 138.435 136.082 138.339 136.478C137.943 138.115 138.029 139.755 136.634 140.868ZM144.709 157.201C144.771 159.103 139.572 157.569 138.925 157.229C139.604 157.001 144.681 156.346 144.709 157.201ZM146.639 157.213C146.948 157.295 148.133 157.4 147.69 157.804C147.294 158.167 145.501 158.022 145.025 158.066C145.345 157.017 145.587 156.933 146.639 157.213ZM145.676 154.666C145.56 155.089 145.513 155.734 145.134 156.024C144.661 156.385 143.657 156.166 143.123 156.169C142.214 156.173 141.307 156.22 140.403 156.31C140.058 156.344 138.657 156.767 138.333 156.479C138.095 156.267 138.183 155.275 138.357 155.052C138.713 154.593 139.532 154.752 140.046 154.734C141.926 154.667 143.796 154.661 145.676 154.666ZM144.469 147.636C144.204 147.242 144.157 147.246 144.043 146.651C143.923 146.013 143.615 145.468 143.434 144.852C143.036 143.497 144.308 143.617 145.241 144.114C147.661 145.404 147.077 149.909 146.478 152.018C145.608 151.378 145.287 151.088 144.988 150.056C144.874 149.664 144.746 149.279 144.628 148.889C144.541 148.601 144.601 147.833 144.469 147.636ZM144.679 125.708C145.355 125.627 145.973 127.723 145.78 128.177C145.385 129.105 143.875 129.934 143.106 130.527C142.594 130.921 142.086 131.373 141.539 131.717C141.031 132.036 140.739 131.857 140.266 132.01C139.583 132.232 139.417 132.955 138.717 133.266C137.733 133.703 136.54 133.826 135.512 134.221C134.264 134.7 133.121 134.713 131.813 134.486C129.932 134.159 127.727 133.226 127.897 130.94C128.196 126.908 136.205 124.841 138.389 128.261C138.957 129.151 138.948 130.188 139.317 131.144C139.717 132.179 140.105 131.772 140.706 131.01C141.493 130.013 142.223 128.963 142.979 127.942C143.223 127.612 144.191 125.768 144.679 125.708ZM95.5985 164.972C95.5602 165.658 95.6013 166.354 95.3627 167.008C95.1224 167.668 94.6352 168.202 94.3546 168.843C93.7858 170.143 93.79 171.716 93.8127 173.108C93.8656 176.349 94.633 179.496 95.0389 182.698C93.6879 182.695 92.2914 182.71 90.982 182.324C89.8124 181.979 89.6258 181.124 89.295 180.047C88.3663 177.022 87.3631 174.01 87.0633 170.841C86.9206 169.332 86.8606 167.81 86.7923 166.295C86.7328 164.966 87.0311 164.387 88.2306 163.729C90.8376 162.299 93.5401 161.108 96.1204 159.61C95.8566 161.388 95.6989 163.179 95.5985 164.972ZM206.894 58.797C206.259 58.6806 205.619 58.6077 204.978 58.5313C204.644 58.4913 203.602 58.5469 203.352 58.3292C203.055 58.0699 203.57 56.1096 203.597 55.6889C203.758 53.1592 203.57 50.5514 203.338 48.0313C202.918 43.4691 201.484 39.2426 198.173 35.9575C196.526 34.3223 194.673 33.0249 192.423 32.3989C191.112 32.0341 189.761 31.8395 188.447 31.4858C187.388 31.2001 186.398 30.8731 185.297 30.7599C183.101 30.534 181.094 29.7043 178.951 29.2243C177.374 28.8711 174.838 28.0334 173.816 29.8138C173.012 28.8701 172.202 28.1615 171.187 27.4576C170.215 26.7833 170.056 26.1098 168.866 26.8883C166.554 28.4012 164.388 30.2468 162.227 31.9681C160.21 33.5756 158.258 35.2591 156.144 36.7373C153.987 38.2453 154.396 40.8042 155.41 42.9256C157.318 46.9186 160.261 50.3321 162.837 53.7549C164.45 55.899 166.069 58.0459 167.676 60.1943C169.212 62.2477 170.541 64.6242 172.336 66.469C173.468 67.6319 174.819 66.1111 175.841 65.4084C177.109 64.5357 178.354 63.6306 179.624 62.7603C182.267 60.9476 185.096 59.2498 187.886 57.6719C188.089 58.2473 188.292 58.8227 188.495 59.3981C187.882 59.4441 187.054 59.3072 186.743 59.9661C186.297 60.9073 187.39 61.0309 187.582 61.5705C187.753 62.0524 187.051 63.3253 186.843 63.7596C186.376 64.7381 185.724 65.5817 185.006 66.3872C182.164 69.5749 178.567 71.855 174.918 74.0283C171.014 76.3536 166.828 77.7733 162.553 79.2719C160.38 80.0337 158.123 80.3876 155.88 80.8755C153.719 81.3456 151.559 81.963 149.35 82.1405C144.831 82.5031 140.036 82.775 135.572 81.8004C135.083 81.6939 134.566 81.4628 134.069 81.4188C133.67 81.3834 133.375 81.5505 132.999 81.572C132.191 81.6182 131.728 80.8958 131.086 81.5671C130.765 81.9027 130.759 82.4665 130.312 81.8399C129.743 81.0428 131.198 80.8886 131.737 80.6615C133.552 79.8967 135.012 78.3574 136.165 76.8012C137.318 75.2463 137.483 73.5856 136.782 71.765C136.08 69.9451 134.484 68.7116 133.286 67.2338C132.707 66.5182 132.174 65.7611 131.537 65.0931C131.198 64.7362 130.65 64.3946 130.629 64.0347C130.604 63.6165 130.855 63.4086 130.705 62.9002C130.666 62.768 130.5 62.6928 130.465 62.5475C130.409 62.3159 130.495 62.1172 130.466 61.8915C130.399 61.374 130.196 61.049 129.909 60.6248C129.73 60.3599 129.468 59.8294 129.222 59.631C128.79 59.283 128.202 59.4248 127.763 59.0721C127.068 58.5143 126.824 57.3388 126.21 56.6615C125.345 55.7085 125.161 56.6714 124.244 56.3677C123.461 56.1076 123.47 54.9289 122.837 54.5302C121.945 53.9687 121.194 55.0018 120.403 55.2319C119.361 55.5347 119.761 54.3594 118.833 54.2524C117.994 54.1555 116.833 55.8565 116.415 56.4606C115.989 55.964 115.523 55.118 114.756 55.421C113.951 55.7394 113.808 57.2204 113.22 57.7488C113.015 57.9325 113.058 58.0681 112.806 58.1527C112.481 58.2617 112.047 57.7891 111.626 57.9332C110.777 58.2239 110.88 59.3571 110.879 60.0912C109.877 59.9449 109.178 59.8702 108.842 60.9501C108.514 62.007 108.389 61.5406 107.333 61.8839C106.422 62.1797 106.295 63.0446 106.145 63.8904C106.052 64.4163 106.138 64.6311 106.279 65.1106C106.458 65.7147 106.458 65.707 106.167 66.2837C105.66 67.2896 105.629 68.3979 105.548 69.505C105.462 70.6864 105.256 71.7618 105.591 72.9156C105.799 73.6296 105.815 74.6012 106.514 75.0011C106.792 75.1596 107.263 75.0728 107.499 75.23C107.949 75.5301 107.812 75.9868 108.112 76.4251C108.337 76.7531 108.7 76.7847 108.952 77.0506C109.226 77.3401 109.242 77.6928 109.398 78.046C109.86 79.092 110.294 79.5979 108.789 79.6577C107.86 79.6946 106.87 79.9731 105.945 79.8876C104.854 79.787 104.582 79.177 104.235 78.2481C102.484 73.5673 101.543 68.4938 99.2377 64.0426C98.7314 63.0653 96.6534 59.0726 95.775 61.9818C95.0344 64.4354 96.0062 67.4298 96.3787 69.872C95.2097 68.8183 94.7773 66.9206 93.8896 65.6341C93.234 64.6838 91.181 62.3498 89.9776 63.6872C89.0291 64.7413 89.2661 66.9765 89.4411 68.2367C89.7178 70.2304 90.3548 72.1518 90.8099 74.1072C90.2369 73.3577 89.9543 72.4425 89.5568 71.5987C89.0582 70.5406 88.436 69.5363 87.727 68.6065C87.1075 67.7938 86.4149 67.0385 85.6638 66.3457C85.0898 65.8158 84.0617 64.6561 83.2464 64.5933C81.1484 64.4324 81.8082 68.281 82.1278 69.3814C82.7901 71.662 83.5082 73.8795 84.0224 76.2061C85.0275 80.7514 86.245 85.1917 86.9854 89.7949C87.1493 90.8157 87.3468 91.6304 86.9431 92.6114C86.5874 93.4757 86.2183 94.5094 85.562 95.174C84.0763 96.679 82.8427 98.286 81.7323 100.099C80.5427 102.042 79.3183 104.006 78.3473 106.068C77.9008 107.017 77.5357 108.043 77.0225 108.955C76.5593 109.779 76.0023 110.43 75.673 111.342C74.0996 115.698 72.9345 119.979 72.401 124.592C71.963 128.38 72.3711 133.418 76.9442 134.304C79.0449 134.711 80.9311 133.78 82.8254 133.011C84.7848 132.216 86.2015 130.923 87.7997 129.549C89.7855 127.842 91.8472 126.241 93.854 124.562C95.8618 122.883 97.7164 121.02 99.7133 119.323C101.686 117.646 103.47 115.865 105.176 113.917C106.868 111.986 108.242 109.845 109.881 107.887C109.874 110.423 109.498 112.936 109.392 115.468C109.296 117.791 109.293 120.11 109.387 122.431C109.481 124.751 108.868 126.959 108.863 129.274C108.858 131.531 108.768 133.776 108.719 136.032C108.697 137.043 108.498 138.178 108.876 139.154C109.159 139.883 110.046 140.111 110.803 140.308C111.973 140.611 115.492 140.027 116.015 141.276C116.3 141.958 116.013 143.2 116.035 143.953C116.072 145.195 116.117 146.437 116.16 147.678C116.204 148.96 116.247 150.243 116.293 151.525C116.335 152.654 116.555 153.913 116.418 155.031C116.302 155.99 115.743 155.865 114.857 155.914C113.52 155.988 112.183 156.047 110.845 156.105C108.883 156.191 106.836 156.152 104.955 156.384C104.165 156.481 103.301 156.439 102.468 156.598C101.423 156.797 100.458 156.847 99.3976 156.9C98.543 156.942 97.4444 156.88 96.773 157.512C96.5402 157.731 96.488 157.992 96.3229 158.236C96.0136 158.693 96.1857 158.573 95.6781 158.676C93.696 159.077 91.8136 159.53 89.8752 160.206C88.905 160.544 88.0046 160.998 87.0299 161.316C86.1756 161.595 85.5494 161.938 85.1272 162.777C84.3727 164.275 84.5638 166.441 84.6184 168.056C84.7044 170.574 85.2639 172.972 85.8673 175.407C86.4949 177.941 86.9871 180.542 88.2081 182.87C88.6093 183.635 89.0424 184.611 89.8619 185.01C90.9199 185.524 92.547 185.212 93.7017 185.214C94.4767 185.216 96.5525 185.482 97.1317 184.832C97.6926 184.203 97.1283 182.428 97.0491 181.647C96.7715 178.911 96.2719 176.149 96.2786 173.394C96.9107 174.328 98.0068 175.94 99.1037 174.509C99.3736 174.157 99.2683 173.993 99.7476 173.789C100.013 173.676 100.572 173.607 100.861 173.626C101.253 173.653 101.399 173.811 101.76 173.733C102.079 173.665 102.438 173.379 102.805 173.292C107.345 172.213 111.859 171.05 116.419 170.088C117.625 169.834 117.454 170.759 117.533 171.802C117.621 172.954 117.453 174.119 117.613 175.259C117.752 176.251 117.861 177.217 117.665 178.215C117.433 179.392 117.582 180.374 117.812 181.539C118.699 186.033 118.541 190.908 118.741 195.475C118.845 197.854 118.622 200.283 118.845 202.649C118.93 203.543 119.429 204.037 119.631 204.85C119.863 205.783 119.23 206.972 119.037 207.876C118.65 209.692 117.971 212.29 119.214 213.869C119.886 214.722 120.766 214.846 121.76 215.134C122.949 215.48 124.122 215.882 125.317 216.209C129.684 217.404 134.403 217.638 138.879 218.297C139.974 218.458 140.991 218.443 142.094 218.367C142.774 218.319 144.448 218.543 145.014 218.136C145.317 217.918 145.163 217.646 145.317 217.38C145.536 217.001 145.801 216.848 146.173 216.612C146.789 216.223 147.502 215.995 147.606 215.191C147.861 213.221 145.399 212.177 144.083 211.325C142.4 210.236 140.368 209.816 138.583 208.927C137.598 208.437 136.648 207.881 135.699 207.325C135.287 207.083 134.453 206.81 134.166 206.43C133.873 206.043 134.16 205.49 134.281 204.936C134.781 202.647 134.612 200.307 134.871 197.994C135.13 195.678 135.059 193.347 135.145 191.019C135.233 188.621 135.431 186.229 135.583 183.835C135.723 181.624 135.864 179.377 135.887 177.163C135.909 175.11 136.189 173.097 136.255 171.031C136.278 170.329 136.152 169.057 136.617 168.463C137.026 167.942 138.378 168.008 139.008 167.917C140.708 167.67 142.326 167.454 144.006 167.305C148.005 166.951 152.455 166.69 156.236 165.297C157.796 164.722 159.871 163.937 160.388 162.146C160.983 160.088 160.207 157.558 160.181 155.453C160.153 153.206 159.502 151.014 159.013 148.836C158.487 146.493 158.156 144.108 157.588 141.773C157.066 139.631 156.22 137.733 155.421 135.699C155.096 134.874 153.248 132.031 153.821 131.33C154.13 130.952 155.242 130.857 155.694 130.684C156.666 130.312 157.64 129.889 158.537 129.359C159.734 128.651 162.356 127.481 162.477 125.908C162.592 124.406 161.115 122.887 160.365 121.707C159.155 119.805 157.63 118.143 156.478 116.204C154.151 112.285 152.3 107.992 150.603 103.769C149.715 101.559 149.425 99.4786 149.279 97.1202C151.857 97.1263 154.48 97.4434 157.042 97.0831C159.83 96.6906 162.621 96.0299 165.384 95.4854C170.417 94.4935 175.248 93.3736 179.91 91.1403C184.275 89.049 188.705 86.76 192.319 83.4403C194.188 81.7238 196.094 79.9743 197.708 78.0114C199.366 75.995 200.613 73.704 201.892 71.4402C203.304 68.9417 204.428 66.3158 205.316 63.5826C205.495 63.0332 205.496 62.3335 205.725 61.8144C205.983 61.2284 206.452 61.2131 206.942 60.9044C207.632 60.4701 208.091 59.0168 206.894 58.797Z" fill="black"/>
<path fill-rule="evenodd" clip-rule="evenodd" d="M146.877 30.8268C147.466 31.333 150.006 33.1163 150.827 32.6827C151.839 32.1474 150.236 30.5349 149.805 30.1374C149.256 29.6316 147.294 28.1016 146.543 28.2436C145.041 28.5277 146.347 30.3711 146.877 30.8268Z" fill="black"/>
<path fill-rule="evenodd" clip-rule="evenodd" d="M148.132 49.129C148.465 48.4737 149.35 48.2328 149.76 47.5987C150.252 46.8363 150.479 46.1692 150.297 45.2344C149.036 45.6589 147.601 46.9436 146.758 47.9483C146.053 48.7879 145.051 50.5424 146.891 50.5469C146.875 50.2971 146.859 50.0471 146.843 49.7976C147.395 49.8778 147.881 49.6229 148.132 49.129Z" fill="black"/>
<path fill-rule="evenodd" clip-rule="evenodd" d="M142.124 38.2266C142.937 38.4602 143.608 38.4272 144.439 38.4454C145.042 38.4589 145.865 38.7902 146.354 38.4167C145.92 38.1657 146.468 38.1518 146.361 37.9071C146.271 37.703 146.099 37.7699 145.96 37.6047C145.464 37.0161 145.033 37.0233 144.246 36.9009C143.636 36.8056 142.74 36.5858 142.154 36.8889C141.537 37.2079 141.299 37.9892 142.124 38.2266Z" fill="black"/>
<path fill-rule="evenodd" clip-rule="evenodd" d="M153.696 56.2789C154.222 55.8379 154.795 54.5612 154.902 53.9025C154.943 53.6444 154.757 53.4467 154.779 53.2567C154.822 52.8948 155.566 52.195 154.787 51.898C154.105 51.638 153.464 53.6578 153.291 54.0986C153.113 54.5493 152.629 55.4274 152.778 55.8635C152.901 56.2252 153.341 56.5764 153.696 56.2789Z" fill="black"/>
<path fill-rule="evenodd" clip-rule="evenodd" d="M159.986 28.9416C160.462 28.5001 160.763 27.9994 160.714 27.3922C160.674 26.914 160.316 25.2651 159.913 25.3135C158.575 25.4751 159.176 29.6934 159.986 28.9416Z" fill="black"/>
<path fill-rule="evenodd" clip-rule="evenodd" d="M131.73 102.662C131.62 102.258 131.219 99.7934 130.527 99.9613C130.001 100.089 130.547 102.258 130.572 102.544C130.623 103.141 129.475 103.121 128.942 103.041C128.096 102.913 128.164 102.417 128.037 101.648C127.99 101.357 127.806 100.044 127.2 100.525C126.791 100.85 127.083 102.47 127.118 102.839C127.236 104.119 127.375 106.305 128.135 107.467C128.439 107.931 128.712 108.159 129.031 107.565C129.353 106.963 128.623 105.13 128.495 104.514C129.097 104.573 130.831 104.378 131.194 105.003C131.525 105.574 130.995 107.206 132.058 107.338C132.688 107.417 132.574 106.686 132.513 106.125C132.386 104.946 132.04 103.8 131.73 102.662Z" fill="black"/>
<path fill-rule="evenodd" clip-rule="evenodd" d="M133.344 102.091C132.646 102.407 133.523 107.004 134.544 106.856C135.736 106.683 134.01 101.791 133.344 102.091Z" fill="black"/>
<path fill-rule="evenodd" clip-rule="evenodd" d="M132.566 100.569C132.48 101.604 133.826 101.99 133.889 100.865C133.938 99.9971 132.657 99.4808 132.566 100.569Z" fill="black"/>
<path fill-rule="evenodd" clip-rule="evenodd" d="M125.183 73.1239C125.797 75.4125 131.387 76.386 130.633 73.2996C130.256 71.7541 128.681 73.127 127.581 72.9472C126.87 72.831 124.75 71.51 125.183 73.1239Z" fill="black"/>
<path fill-rule="evenodd" clip-rule="evenodd" d="M123.779 69.0416C124.042 67.8169 121.363 66.4653 120.391 66.8025C118.969 67.2958 118.975 70.45 120.06 71.2886C120.202 71.3991 120.64 71.6622 120.854 71.4524C121.192 71.1207 120.823 71.2112 120.744 70.8799C120.619 70.3531 120.209 69.6768 120.617 69.0775C121.388 67.9453 123.403 70.7963 123.779 69.0416Z" fill="black"/>
<path fill-rule="evenodd" clip-rule="evenodd" d="M115.611 74.9858C114.645 74.9315 113.853 76.4306 115.274 76.305C115.546 76.281 116.131 76.2125 116.289 75.9266C116.55 75.4529 116.035 75.0096 115.611 74.9858Z" fill="black"/>
<path fill-rule="evenodd" clip-rule="evenodd" d="M162.467 39.2478C162.136 38.7696 161.443 38.0001 160.847 38.4797C160.318 38.9051 160.41 39.9549 160.613 40.4765C161.159 41.8809 162.448 43.1321 163.906 42.3229C163.4 41.3079 163.114 40.184 162.467 39.2478Z" fill="black"/>
</svg>
