<svg width="246" height="246" viewBox="0 0 246 246" fill="none" xmlns="http://www.w3.org/2000/svg">
<rect width="246" height="246" fill="white"/>
<circle cx="122" cy="127" r="86" fill="#E7F3E9"/>
<path fill-rule="evenodd" clip-rule="evenodd" d="M172.113 166.767C171.103 167.936 169.611 168.805 168.467 169.874C167.265 170.998 165.96 171.98 164.763 173.09C159.482 166.626 152.248 162.663 145.981 157.299C143.01 154.756 140.821 151.307 139.22 147.767C138.398 145.952 137.792 144.084 137.317 142.151C137.103 141.281 136.894 140.413 136.754 139.53C136.585 138.461 136.541 138.37 135.821 137.536C135.511 137.177 134.911 136.128 134.303 136.243C133.792 136.341 132.858 137.898 132.535 138.283C130.982 140.134 129.477 142.04 127.842 143.819C125.34 146.541 123.063 149.22 120.741 152.105C115.99 158.007 110.865 163.563 105.694 169.117C105.31 169.529 104.416 170.737 103.865 170.899C103.195 171.097 102.106 170.274 101.431 169.814C99.8025 168.703 98.5189 167.329 97.1265 165.953C94.4096 163.267 92.5698 159.497 91.3322 155.91C90.5913 153.763 90.1096 151.537 89.345 149.398C89.0263 148.506 88.304 147.41 88.6707 146.633C88.7799 146.402 89.4749 145.786 89.72 145.739C90.0099 145.684 90.4931 146.082 90.5938 146.054C91.5554 145.79 91.0218 144.782 91.5938 144.24C91.9181 143.932 93.5674 143.977 94.0598 143.808C95.8603 143.19 97.4756 142.01 99.1777 141.305C106.303 138.357 113.516 135.489 119.667 130.675C121.263 129.427 122.323 128.488 124.226 127.682C126.15 126.866 128.084 126.139 130.046 125.427C131.778 124.799 133.519 124.211 135.308 123.761C137.243 123.274 139.987 122.657 141.92 123.284C145.716 124.515 146.941 127.647 148.453 130.951C150.498 135.421 152.971 139.651 155.651 143.766C160.808 151.682 167.08 158.786 172.113 166.767Z" fill="#219653"/>
<path fill-rule="evenodd" clip-rule="evenodd" d="M57.8004 96.7802C57.5916 96.674 55.9608 97.3387 55.6871 97.4404C54.5938 97.8467 53.5639 98.5217 52.5339 99.0708C53.3233 100.033 54.113 100.995 54.9022 101.958C55.6759 100.057 56.6704 98.4885 57.8004 96.7802ZM58.3387 108.606C58.0701 108.637 60.3378 114.094 60.6026 114.706C61.5662 116.935 62.5779 119.142 63.5543 121.365C64.5003 123.519 65.7003 125.501 66.9092 127.514C67.9433 129.235 69.0069 131.906 70.5667 133.18C69.5819 128.805 69.7116 123.773 66.8866 120.099C63.9584 116.291 61.0632 112.571 58.3387 108.606ZM172.113 166.961C167.737 160.022 162.259 153.883 157.696 147.067C155.141 143.251 152.655 139.386 150.504 135.324C148.94 132.369 147.967 128.153 145.551 125.894C144.486 124.898 143.349 123.924 141.92 123.478C139.965 122.868 137.273 123.473 135.308 123.955C131.648 124.854 128.073 126.25 124.606 127.716C121.089 129.202 118.089 131.873 114.911 134.018C111.503 136.32 107.813 137.997 103.995 139.465C100.67 140.743 97.7117 142.578 94.4044 143.864C93.7454 144.12 92.4005 144.083 91.8476 144.417C91.2519 144.777 91.4865 145.84 90.7632 146.232C90.437 146.409 90.3283 145.768 90.0778 145.778C89.7714 145.791 89.4921 146.151 89.1969 146.379C87.9949 147.308 88.7313 147.927 89.2072 149.205C90.7586 153.369 91.5923 157.605 93.7704 161.536C95.5613 164.767 98.1243 167.663 101.142 169.802C101.601 170.127 103.097 171.389 103.636 171.305C104.121 171.229 105.108 169.938 105.443 169.587C106.963 167.996 108.352 166.284 109.87 164.69C112.217 162.227 114.476 159.697 116.754 157.2C119.398 154.302 121.738 151.017 124.119 147.92C125.214 146.495 126.624 145.335 127.842 144.014C129.479 142.237 130.982 140.328 132.535 138.477C133.005 137.917 133.792 136.485 134.522 136.502C135.034 136.514 135.936 137.72 136.204 138.098C137.198 139.504 137.194 142.042 137.689 143.796C138.896 148.074 141.072 152.252 144.058 155.552C147.026 158.835 150.829 161.169 154.34 163.808C158.143 166.666 161.747 169.592 164.763 173.284C165.96 172.174 167.265 171.192 168.466 170.069C169.611 168.999 171.103 168.131 172.113 166.961ZM115.787 186.593C116.637 186.602 118.078 187.126 118.839 186.81C116.582 184.309 114.509 182.163 111.653 180.33C108.689 178.427 105.735 176.542 102.856 174.513C97.0549 170.424 92.788 165.575 90.3647 158.765C89.7408 157.011 89.3228 155.172 88.8655 153.37C88.6195 152.399 88.1297 147.857 87.298 147.465C86.8054 147.232 83.0976 149.842 82.5101 150.167C81.1365 150.928 79.7578 151.518 78.3378 152.113C75.2854 153.393 72.1387 154.369 68.9018 155.184C65.0211 156.161 62.3778 154.545 59.9737 151.49C57.2463 148.025 54.9798 144.114 52.486 140.475C51.352 138.82 50.4125 137.167 49.575 135.342C49.0269 134.147 46.8529 130.924 47.6041 129.651C49.7472 131.285 50.5183 134.534 51.9782 136.722C53.7976 139.449 55.8481 142.02 57.677 144.744C59.2149 147.034 60.7839 149.81 63.056 151.457C65.0546 152.905 66.9533 152.46 69.1042 151.809C71.7111 151.02 74.4132 150.632 76.968 149.653C79.7328 148.594 82.3486 147.093 85.0461 145.868C86.3036 145.297 87.8093 144.972 88.9943 144.26C90.0156 143.647 89.8633 143.323 89.9383 142.018C90.0259 140.494 90.1268 138.969 90.1941 137.444C90.2393 136.42 89.686 135.03 90.0615 134.266C86.9991 134.797 84.006 135.509 80.965 136.139C79.3 136.484 77.6946 136.911 76.0126 137.182C75.3715 137.285 74.4951 137.282 73.921 137.562C73.463 137.43 73.2295 137.514 73.2206 137.813C73.1987 137.975 73.164 138.135 73.1164 138.293C72.1773 138.721 71.6312 137.803 70.8168 136.923C69.8118 135.837 69.0592 134.613 68.3219 133.337C66.6733 130.483 64.7731 127.8 63.2475 124.865C61.6925 121.874 60.4297 118.672 59.1114 115.569C57.902 112.722 57.1275 109.643 55.7911 106.863C55.1947 105.623 54.4388 104.597 53.5561 103.549C52.8277 102.684 51.7071 100.818 50.6194 100.421C50.3318 100.316 49.5786 100.492 49.2519 100.469C48.6006 100.422 48.0203 100.183 47.3539 100.235C45.911 100.348 44.338 101.262 43.1849 102.065C43.9301 102.731 45.794 103.539 44.4551 104.737C43.1558 105.9 42.4382 103.814 41.9424 102.9C39.6077 104.82 39.9451 107.467 39.6754 110.18C39.5346 111.596 39.164 112.991 38.9249 114.386C38.7527 115.39 38.8735 116.428 38.8243 117.454C38.6988 120.058 38.4374 122.552 38.4497 125.12C38.4636 127.865 38.6503 130.517 38.8697 133.242C39.2389 137.83 40.0849 142.42 40.8104 146.972C41.2185 149.531 41.7771 152.017 42.3195 154.534C42.9349 157.391 44.0734 160.097 44.7119 162.947C45.3624 162.119 45.8517 162.115 46.9039 162.225C47.7133 162.309 48.2569 162.116 48.2095 163.241C48.1789 163.971 47.5361 164.528 46.825 164.655C45.8976 164.821 45.5825 164.358 45.1046 163.655C44.9928 164.987 45.8873 166.379 46.2411 167.68C46.5759 168.913 46.7977 170.122 47.3604 171.302C47.9094 172.453 48.3795 173.588 48.935 174.729C49.1908 175.253 49.4301 175.786 49.6888 176.309C49.8197 176.574 49.9737 176.939 50.169 177.162C50.627 177.686 50.5541 177.432 51.0901 177.73C52.2579 178.38 51.8194 178.218 51.8467 179.56C51.8733 180.883 52.5509 181.855 53.6375 182.599C55.9429 184.177 58.2168 184.616 60.8378 185.414C63.2799 186.157 65.8521 186.795 68.438 186.78C71.6051 186.762 74.7301 186.346 77.8972 186.304C81.3912 186.258 84.9188 186.277 88.4057 186.398C89.8421 186.448 91.1761 186.512 92.5628 186.879C94.1732 187.306 95.731 187.137 97.3908 187.072C100.932 186.934 104.595 186.66 108.09 186.635C110.606 186.617 113.261 186.441 115.787 186.593ZM207.608 187.968C208.237 188.301 209.648 188.164 210.281 188.072C211.396 187.909 211.515 187.466 212.223 186.471C213.44 184.756 214.429 183.115 215.145 181.129C216.516 177.328 217.076 173.44 217.677 169.464C218.346 165.046 217.125 160.467 216.688 156.079C216.587 155.072 216.45 154.075 216.291 153.075C216.196 152.478 216.171 150.446 215.779 149.929C215.025 148.936 211.518 149.737 210.14 149.827C206.291 150.079 202.418 150.138 198.571 150.181C196.52 150.205 194.458 150.291 192.427 150.306C191.495 150.314 190.583 150.267 189.647 150.177C189.334 150.146 189.028 150.074 188.713 150.057C187.633 149.997 187.715 149.84 187.435 150.798C186.947 152.475 187.323 154.609 187.194 156.35C187.023 158.677 186.93 161.036 186.972 163.367C187.012 165.522 186.938 167.671 187.019 169.831C187.052 170.725 187.15 171.454 187.385 172.308C187.652 173.273 187.944 175.529 188.608 176.197C188.683 176.273 189.247 176.096 189.396 176.285C189.627 176.577 189.585 177.195 189.743 177.383C190.255 177.994 191.314 178.042 192.083 178.316C194.19 179.069 196.124 179.886 198.11 180.901C199.885 181.808 202.747 182.58 203.814 184.369C204.304 185.189 204.37 186.271 204.82 187.117C205.332 188.081 204.307 187.577 205.562 187.968C206.127 188.144 207.028 187.968 207.608 187.968ZM20.4817 177.066C20.322 179.292 19.0699 181.412 18.6341 183.601C18.4301 184.625 18.0841 185.633 17.8444 186.651C17.6145 187.629 16.7839 188.786 16.868 189.753C19.9336 188.66 23.0387 188.384 26.2427 188.09C29.2794 187.81 32.4874 187.699 35.4987 187.697C38.5671 187.696 41.848 187.395 45.0075 187.349C48.3117 187.3 51.6657 187.215 54.9221 186.871C53.2193 185.609 51.0888 184.422 49.8315 182.665C48.4647 180.755 47.7548 178.362 46.5522 176.346C44.1387 172.301 42.6044 167.282 41.3393 162.738C38.7852 153.564 35.9309 144.56 35.243 135.044C33.9339 135.716 32.8947 138.32 32.2392 139.618C31.4026 141.274 30.9645 143.069 30.4206 144.829C29.3007 148.455 28.5256 152.214 27.1542 155.805C24.5333 162.67 22.8486 170.067 20.4817 177.066ZM186.89 123.599C187.456 127.702 188.645 131.858 188.691 136.01C188.701 136.924 188.546 137.938 188.737 138.839C188.94 139.801 189.6 140.651 189.981 141.565C190.586 143.015 192.119 145.989 190.641 147.218C190.611 146.052 189.545 144.57 189.008 143.55C188.199 142.013 187.135 140.608 186.258 139.109C184.422 135.972 182.364 132.901 179.997 130.135C177.692 127.441 175.035 125.051 172.59 122.486C171.856 121.715 165.964 114.296 165.73 114.4C167.558 121.457 170.664 127.598 174.916 133.508C177 136.405 179.502 138.311 182.04 140.765C184.153 142.809 188.135 144.994 187.405 148.343C190.708 148.025 193.99 147.517 197.323 147.517C196.775 143.292 196.355 139.134 195.376 134.979C194.265 130.26 193.513 125.4 192.573 120.64C191.613 115.78 189.986 111.075 188.974 106.224C188.004 101.579 187.171 96.9428 186.461 92.2461C185.873 94.8485 186.09 97.7069 185.882 100.362C185.669 103.075 185.689 105.738 185.76 108.467C185.892 113.535 186.431 118.542 186.89 123.599ZM201.203 99.4341C201.222 97.2646 201.642 95.1244 201.771 92.9601C201.811 92.2961 202.471 87.7656 201.856 87.5291C201.349 88.635 201.231 90.0502 200.771 91.2105C200.311 92.3698 199.697 93.4741 199.256 94.6414C198.3 97.1701 197.971 100.031 197.868 102.72C197.635 108.801 197.515 114.868 197.923 120.949C198.098 123.555 198.232 126.166 198.184 128.778C198.131 131.651 197.692 134.146 198.226 136.996C198.754 139.818 199.086 142.629 199.262 145.492C199.385 147.502 199.435 147.36 201.349 147.218C202.732 147.116 204.128 147.225 205.512 147.162C204.865 139.329 204.759 131.48 203.725 123.676C203.198 119.696 203.183 115.657 202.528 111.691C202.203 109.721 201.656 107.79 201.342 105.818C201.005 103.7 201.171 101.568 201.203 99.4341ZM61.1851 94.5045C64.8713 94.8243 68.7922 95.928 72.5705 95.1992C71.9477 94.9466 70.3178 94.5981 71.0514 93.6011C71.7972 92.5872 73.054 93.8732 73.7978 93.7404C74.2565 93.6584 75.27 91.7384 75.5526 91.3409C76.1942 90.4374 76.2716 90.28 77.4253 90.0484C78.543 89.8245 78.7964 90.067 78.938 88.9542C79.1006 87.6745 78.6585 86.2358 78.7023 84.9272C78.7964 82.11 79.7039 79.6395 80.5486 76.989C76.96 77.7708 73.4509 78.698 69.7816 79.2019C68.213 79.4174 65.7727 79.9143 64.3477 78.8465C63.9772 78.5688 64.0364 78.1939 63.7332 77.872C63.2247 77.3321 62.2814 76.7735 61.5602 76.6197C57.1217 75.6734 56.6888 82.0099 58.913 84.3809C59.4701 84.9751 60.2452 85.2685 60.8157 85.8129C61.5771 86.539 61.6395 87.3038 61.7507 88.4122C61.9591 90.4905 61.676 92.5769 60.7906 94.4781L61.1851 94.5045ZM115.046 124.419C116.356 124.668 117.724 124.611 119.037 124.823C119.504 124.899 120.903 125.162 121.314 124.889C121.94 124.472 122.163 122.941 122.459 122.229C122.98 120.975 123.718 119.882 124.215 118.606C126.245 113.392 128.139 108.158 130.595 103.123C129.653 102.878 128.931 102.868 127.982 102.742C126.994 102.61 126.098 102.025 125.155 101.773C124.259 101.534 123.32 101.595 122.432 101.317C121.943 101.164 121.523 100.824 121.041 100.705C120.273 100.516 119.376 100.405 118.919 100.91C118.45 101.429 118.286 102.85 118.031 103.519C117.352 105.302 116.563 107.024 115.994 108.848C115.481 110.493 114.994 112.121 114.542 113.782C114.065 115.535 113.124 116.979 112.551 118.654C112.115 119.929 111.704 121.231 111.639 122.59C111.576 123.917 111.383 124.001 112.707 124.213C113.375 124.32 114.417 124.717 115.046 124.419ZM201.254 186.481C201.595 186.64 201.917 186.619 202.219 186.417C199.26 185.166 196.383 183.43 193.296 182.572C190.401 181.767 187.586 180.804 184.797 179.813C182.531 179.007 180.493 178.38 178.444 176.961C177.2 176.101 176.095 175.133 175.24 173.875C174.289 172.474 174.077 170.481 173.046 169.219C171.655 170.749 170.021 171.908 168.375 173.124C167.806 173.544 166.44 174.461 166.246 175.112C166 175.933 166.658 176.719 166.984 177.55C167.818 179.678 168.225 181.806 168.678 184.019C168.859 184.906 169.251 186.239 169.978 186.61C170.64 186.948 172.559 186.703 173.383 186.64C177.684 186.314 181.908 185.979 186.234 186.277C191.13 186.613 196.371 186.845 201.254 186.481ZM209.844 147.039C210.625 147.042 211.389 146.944 212.167 146.944C211.718 144.842 212.769 142.123 213.141 140.025C213.558 137.678 213.876 135.251 214.154 132.885C214.739 127.902 215.005 122.98 215.013 117.961C215.02 113.104 215.903 108.665 217.139 103.996C218.467 98.9817 220.642 94.4723 222.44 89.6363C220.468 90.6804 219.376 93.1236 218.34 94.9914C217.029 97.3531 216.157 99.968 215.622 102.619C214.59 107.734 213.458 112.864 212.267 117.97C211.027 123.286 210.298 128.652 208.877 133.925C208.185 136.496 207.243 139.66 207.19 142.312C207.169 143.409 206.839 145.706 207.335 146.659C207.799 147.55 208.826 147.13 209.844 147.039ZM91.866 140.443C91.8248 140.989 91.7859 141.508 91.6891 142.048C92.7717 142.037 94.1428 140.912 95.0713 140.407C96.2024 139.792 97.3349 139.113 98.4412 138.495C100.577 137.301 103.002 136.514 105.282 135.533C107.902 134.406 110.309 133.045 112.815 131.688C113.69 131.214 119.979 128.484 119.873 127.738C118.492 127.692 117.112 127.646 115.731 127.6C114.547 127.561 112.714 127.829 111.58 127.462C110.959 127.261 110.262 126.522 110.028 125.943C109.796 125.37 110.317 122.735 110.014 122.567C108.469 124.147 107.497 126.247 106.116 127.952C104.589 129.836 102.616 130.936 100.442 131.937C98.0405 133.043 95.5553 133.899 93.1013 134.847C92.0664 135.246 92.0869 135.475 91.9968 136.611C91.896 137.881 91.9069 139.169 91.866 140.443ZM216.641 188.227C219.244 188.506 221.912 188.347 224.535 188.565C225.489 188.644 226.813 188.763 225.852 190.045C225.248 190.853 223.31 190.594 222.432 190.65C220.073 190.801 217.575 190.72 215.21 190.685C214.713 190.678 214.162 190.529 213.659 190.563C213.079 190.601 212.383 191.019 211.854 191.016C211.527 191.014 211.41 190.67 211.129 190.638C210.516 190.569 209.903 190.519 209.285 190.519C199.94 190.521 190.722 190.333 181.4 190.323C176.942 190.318 172.413 190.241 167.957 190.031C167.022 189.987 161.693 190.179 161.84 188.492C161.916 187.623 163.655 187.5 164.29 187.408C164.76 187.34 165.248 187.35 165.72 187.325C166.971 187.258 167.52 187.559 167.256 186.188C166.254 180.985 164.459 176.685 160.624 172.944C157.489 169.885 153.713 167.11 150.161 164.555C145.848 161.454 142.35 158.191 139.79 153.445C138.294 150.673 137.043 147.84 136.275 144.775C135.998 143.672 135.992 142.418 135.653 141.355C135.392 140.537 134.798 139.964 134.449 139.117C130.158 146.294 124.471 152.298 119.257 158.769C116.765 161.861 113.923 164.797 110.947 167.487C110.063 168.285 109.239 169.118 108.414 169.977C107.725 170.696 106.63 171.335 106.047 172.133C105.489 172.898 105.626 172.861 106.477 173.469C107.601 174.272 108.839 174.939 109.981 175.722C111.806 176.973 113.798 178.031 115.429 179.537C117.194 181.166 118.736 183.053 120.278 184.89C121.306 186.115 122.655 187.686 122.914 189.234C122.999 189.746 123.324 191.013 122.895 191.388C122.528 191.708 122.565 191.587 122.11 191.391C121.513 191.135 121.338 190.547 120.609 190.267C118.744 189.55 116.488 189.796 114.547 189.788C112.606 189.779 110.649 189.997 108.708 189.989C104.278 189.971 99.9416 190.33 95.5123 190.523C90.808 190.728 86.0459 190.236 81.3572 190.306C77.8833 190.358 74.3168 190.098 70.747 190.291C68.9107 190.39 67.1074 190.16 65.317 190.134C62.9728 190.1 60.5654 190.42 58.2012 190.465C54.3207 190.54 50.4876 190.54 46.5835 190.633C38.1856 190.835 29.8331 191.042 21.4304 191.176C20.3095 191.193 19.0824 191.155 17.9748 191.282C16.7991 191.416 17.4061 191.666 16.5994 192.09C14.3412 193.276 14.8627 188.879 14.9168 188.014C15.2071 183.379 16.3821 178.833 17.7941 174.433C19.1337 170.259 20.2212 165.891 21.3557 161.627C22.5975 156.961 24.2155 152.485 25.6848 147.864C27.1902 143.129 28.416 138.21 31.1503 134.013C31.7732 133.057 32.4168 132.028 33.4186 131.426C34.5417 130.75 34.59 131.145 34.5891 129.908C34.5885 128.743 34.66 127.188 34.3856 126.076C34.1376 125.072 34.1759 125.668 33.6175 124.947C33.163 124.36 32.6876 123.959 32.3615 123.247C30.3587 125.281 25.774 124.207 23.8389 122.743C21.4704 120.95 19.6663 117.926 19.0053 115.046C18.4744 112.733 19.1258 108.325 21.6819 107.213C22.928 106.67 27.5049 106.261 27.6881 104.494C27.7824 103.581 26.1716 102.299 25.7999 101.514C25.1111 100.061 24.4496 98.1286 24.2582 96.5358C23.8843 93.4268 25.2936 89.9503 27.5387 87.8503C31.6571 83.9977 38.9035 82.0206 44.2011 84.4649C43.0816 80.1822 42.4058 76.4875 42.9696 72.0325C43.4553 68.1946 45.7164 66.0473 48.8278 64.1356C54.1373 60.8729 61.3575 59.5852 67.4285 60.5339C68.8081 60.7495 70.132 61.212 71.4094 61.58C73.2651 62.1146 75.4867 61.9365 77.2388 62.805C78.5093 63.4346 79.474 64.6887 80.5897 65.5261C81.8924 66.5037 82.9748 67.9628 83.8798 69.3121C85.8154 72.1976 85.059 77.5529 83.439 80.4494C83.0917 81.0706 82.6626 81.5936 82.0879 82.0175C81.4894 82.4587 80.5772 82.596 80.2688 83.1682C79.479 84.634 80.2409 87.8073 80.3462 89.3916C80.469 91.2311 79.5402 92.613 77.4573 92.7597C76.2524 92.8448 76.2139 92.1447 75.6369 93.5852C75.263 94.5189 74.9233 95.5361 74.3837 96.392C73.2711 98.1562 71.2334 97.9839 69.3772 97.9362C67.2286 97.8807 65.1121 97.5407 62.9623 97.3262C63.5301 99.1481 65.0844 100.562 66.0549 102.185C67.3672 104.38 68.1571 106.2 68.3704 108.758C68.5341 110.723 68.1808 112.274 66.8381 113.737C66.2824 114.342 65.7897 114.372 65.9277 115.07C66.0118 115.496 66.7473 116.199 67.0076 116.539C67.6962 117.439 68.4957 118.264 69.1017 119.225C71.4338 122.92 72.1226 128.554 72.1284 132.856C72.1286 133.054 72.2337 133.473 72.1467 133.677C72.0823 133.828 71.593 134.305 71.5858 134.346C71.4901 134.899 72.0286 135.848 72.8737 135.942C73.7613 136.04 75.3869 135.298 76.2126 135.054C77.5338 134.664 78.8805 134.376 80.1988 133.976C82.328 133.329 84.4474 132.813 86.6119 132.306C87.5901 132.077 88.5737 131.886 89.555 131.672C90.6727 131.428 91.1919 130.957 91.7689 132.096C92.2638 133.073 91.9561 133.25 93.155 132.758C94.3454 132.269 95.5085 131.662 96.6707 131.11C98.7206 130.136 101.162 129.268 102.93 127.83C105.879 125.432 106.972 121.613 109.795 119.068C110.581 118.359 111.05 118.347 111.547 117.365C112.079 116.314 112.353 114.967 112.633 113.837C113.123 111.858 113.471 109.872 113.916 107.895C114.469 105.432 115.665 103.201 116.538 100.852C116.878 99.9369 117.054 98.7734 117.603 97.9508C117.748 97.7327 118.026 97.6097 118.139 97.4292C118.53 96.8095 118.526 96.6393 118.627 95.8937C119.1 92.4101 121.176 94.2427 123.445 95.0416C124.401 95.3782 128.941 97.5611 127.207 99.0128C129.274 99.6132 132.583 99.2869 132.556 102.253C132.541 103.772 131.634 105.398 131.147 106.82C130.714 108.083 130.296 109.351 129.856 110.612C128.894 113.374 127.726 116.053 126.786 118.824C126.358 120.086 126.004 121.379 125.408 122.57C124.882 123.622 123.609 124.78 123.4 125.93C128.906 123.577 134 120.176 140.164 120.393C142.863 120.487 145.312 121.623 146.802 124C148.671 126.978 149.9 130.313 151.727 133.32C158.371 144.255 166.296 154.19 173.59 164.673C174.15 165.479 174.871 166.24 175.065 167.236C175.192 167.885 174.946 168.535 175.098 169.159C175.413 170.456 177.008 172.075 178.089 172.82C180.161 174.248 183.529 176.263 186.115 176.085C184.492 172.179 184.514 167.899 184.59 163.733C184.661 159.775 185.088 155.85 185.595 151.933C185.71 151.047 185.81 150.225 186.064 149.366C186.356 148.381 186.757 148.474 185.883 147.588C184.537 146.225 182.937 145.102 181.581 143.721C178.647 140.735 175.641 138.395 173.332 134.828C171.136 131.437 168.82 127.947 167.195 124.232C165.521 120.409 164.853 116.325 164.022 112.276C163.685 110.633 162.456 108.798 162.703 107.082C163.015 104.914 164.019 106.493 164.428 107.66C165.675 111.222 168.596 114.411 171.015 117.276C173.629 120.371 176.826 122.961 179.554 125.966C182.525 129.239 184.56 133 187.202 136.494C187.202 132.158 185.724 127.743 185.12 123.454C184.587 119.678 184.42 115.891 184.084 112.1C183.32 103.487 183.98 94.6199 185.052 86.0685C185.562 82.0072 185.273 78.0416 185.288 73.9664C185.293 72.6695 184.757 69.6803 185.44 68.5294C186.749 66.325 187.512 71.1452 187.578 71.8639C187.974 76.1451 187.264 80.3786 187.627 84.6414C188.006 89.093 188.828 93.4197 189.527 97.8198C190.285 102.584 191.519 107.241 192.7 111.914C193.94 116.82 194.983 121.829 196.362 126.696C196.734 125.166 196.212 123.286 196.109 121.728C195.962 119.498 195.675 117.268 195.65 115.033C195.61 111.47 195.582 107.841 195.784 104.294C195.982 100.799 195.922 97.136 196.993 93.7684C197.501 92.17 198.246 90.6106 198.975 89.1049C199.874 87.2483 200.192 85.4481 200.69 83.4735C201.117 81.7824 201.741 80.1358 202.026 78.4109C202.202 77.3381 202.695 74.1714 203.922 76.5706C204.634 77.9632 204.326 80.0276 204.346 81.5237C204.372 83.4417 204.078 85.3066 204.034 87.2165C203.946 90.9637 203.883 94.7065 203.604 98.4475C203.311 102.372 203.567 105.89 204.313 109.757C205.129 113.99 205.367 118.233 205.79 122.518C206.008 124.73 206.376 126.931 206.554 129.146C206.648 130.319 206.166 133.684 207.005 134.52C207.087 132.487 207.668 130.453 208.109 128.473C208.631 126.127 208.842 123.661 209.227 121.281C209.85 117.426 211.059 113.745 211.86 109.933C213.509 102.075 214.879 91.9751 221.791 86.8317C222.696 86.1587 223.689 85.662 224.667 85.1081C225.221 84.7946 226.043 83.9834 226.676 83.8419C227.368 83.6873 227.656 83.8074 227.936 84.6105C228.327 85.7301 227.612 86.253 226.945 87.0662C224.637 89.88 223.65 93.4871 222.225 96.7871C218.961 104.344 217.517 112.314 217.5 120.482C217.491 124.758 217.197 128.882 216.741 133.132C216.251 137.706 215.606 142.544 214.219 146.944C215.61 147.256 217.12 146.791 217.498 148.411C217.591 148.809 217.423 149.279 217.526 149.797C217.625 150.301 217.865 150.801 218.007 151.297C218.301 152.321 218.456 153.331 218.599 154.383C219.15 158.447 220.098 162.313 220.199 166.434C220.291 170.243 219.547 174.103 218.861 177.839C218.169 181.602 216.187 184.81 214.626 188.213C215.298 188.213 215.969 188.22 216.641 188.227Z" fill="black"/>
<path fill-rule="evenodd" clip-rule="evenodd" d="M128.306 179.577C127.566 179.786 123.992 180.182 123.993 181.305C123.994 181.978 127.562 181.965 128.194 182.038C128.231 181.218 128.269 180.397 128.306 179.577ZM136.194 187.325C138.253 187.717 141.048 187.166 142.365 185.348C142.98 184.498 143.272 183.206 143.472 182.193C143.663 181.226 144.254 178.816 143.852 177.91C143.359 176.798 138.627 177.96 137.25 178.088C134.846 178.31 132.36 178.336 129.955 178.179C129.955 180.666 129.828 183.09 131.289 185.231C132.342 186.776 134.322 187.141 136.194 187.325ZM135.78 190.398C133.542 189.577 131.193 190.11 129.736 187.705C129.367 187.095 129.056 186.438 128.832 185.76C128.723 185.464 128.638 185.159 128.577 184.848C128.691 184.177 128.446 183.988 127.841 184.281C126.655 184.05 125.355 184.865 124.106 184.625C121.076 184.042 121.626 179.695 123.66 178.191C124.061 177.894 124.463 177.811 124.922 177.664C125.936 177.341 126.484 177.702 127.411 177.61C128.161 177.536 128.367 176.749 129.172 176.403C129.699 176.176 130.43 176.193 130.985 176.171C133.885 176.051 136.794 176.052 139.713 175.863C141.074 175.775 142.543 175.991 143.877 175.758C144.501 175.649 144.412 175.232 145.003 175.598C145.615 175.976 145.351 177.373 145.32 177.931C145.141 181.154 144.95 184.611 143.225 187.429C141.648 190.008 138.544 190.272 135.78 190.398Z" fill="black"/>
<path fill-rule="evenodd" clip-rule="evenodd" d="M17.6151 191.286C18.335 191.278 19.0546 191.27 19.7721 191.263C19.0513 191.271 18.3332 191.278 17.6151 191.286Z" fill="black"/>
<path fill-rule="evenodd" clip-rule="evenodd" d="M217.504 122.558C217.503 121.866 217.502 121.173 217.5 120.482C217.501 121.175 217.503 121.866 217.504 122.558Z" fill="black"/>
<path fill-rule="evenodd" clip-rule="evenodd" d="M34.3878 125.402C34.3856 126.076 34.3833 126.751 34.3811 127.424C34.3831 126.749 34.3853 126.075 34.3878 125.402Z" fill="black"/>
<path fill-rule="evenodd" clip-rule="evenodd" d="M94.2251 190.521C94.7978 190.522 95.3705 190.522 95.9406 190.524C95.3669 190.523 94.7962 190.522 94.2251 190.521Z" fill="black"/>
<path fill-rule="evenodd" clip-rule="evenodd" d="M59.4508 190.383C60.0235 190.385 60.596 190.387 61.1661 190.389C60.5925 190.388 60.0218 190.385 59.4508 190.383Z" fill="black"/>
<path fill-rule="evenodd" clip-rule="evenodd" d="M184.665 162.368C184.64 162.823 184.615 163.279 184.59 163.733C184.615 163.277 184.64 162.823 184.665 162.368Z" fill="black"/>
<path fill-rule="evenodd" clip-rule="evenodd" d="M216.641 188.226C216.199 188.222 215.756 188.217 215.314 188.213C215.758 188.027 216.201 188.035 216.641 188.226Z" fill="black"/>
<path fill-rule="evenodd" clip-rule="evenodd" d="M177.348 190.242C177.665 190.238 177.983 190.233 178.298 190.227C177.979 190.232 177.663 190.237 177.348 190.242Z" fill="black"/>
<path fill-rule="evenodd" clip-rule="evenodd" d="M217.332 128.177C217.34 127.832 217.348 127.488 217.356 127.146C217.348 127.49 217.34 127.833 217.332 128.177Z" fill="black"/>
<path fill-rule="evenodd" clip-rule="evenodd" d="M187.627 84.6414C187.601 84.2865 187.574 83.9317 187.548 83.5776C187.574 83.9328 187.601 84.2871 187.627 84.6414Z" fill="black"/>
<path fill-rule="evenodd" clip-rule="evenodd" d="M217.489 123.914C217.493 123.558 217.497 123.202 217.502 122.848C217.497 123.204 217.493 123.559 217.489 123.914Z" fill="black"/>
<path fill-rule="evenodd" clip-rule="evenodd" d="M117.596 189.801C117.878 189.806 118.16 189.81 118.44 189.813C118.158 189.809 117.876 189.805 117.596 189.801Z" fill="black"/>
<path fill-rule="evenodd" clip-rule="evenodd" d="M190.345 190.381C190.621 190.387 190.897 190.392 191.17 190.398C190.893 190.393 190.619 190.387 190.345 190.381Z" fill="black"/>
<path fill-rule="evenodd" clip-rule="evenodd" d="M220.167 165.363C220.147 165.051 220.127 164.739 220.108 164.427C220.127 164.74 220.147 165.051 220.167 165.363Z" fill="black"/>
<path fill-rule="evenodd" clip-rule="evenodd" d="M215.21 190.685C215.435 190.683 215.66 190.682 215.882 190.682C215.657 190.683 215.433 190.684 215.21 190.685Z" fill="black"/>
<path fill-rule="evenodd" clip-rule="evenodd" d="M184.591 190.396C184.814 190.39 185.036 190.385 185.256 190.38C185.033 190.385 184.812 190.39 184.591 190.396Z" fill="black"/>
<path fill-rule="evenodd" clip-rule="evenodd" d="M134.567 190.226C134.812 190.224 135.057 190.223 135.3 190.221C135.054 190.222 134.811 190.224 134.567 190.226Z" fill="black"/>
<path fill-rule="evenodd" clip-rule="evenodd" d="M78.0755 190.224C78.3083 190.226 78.5413 190.228 78.7716 190.23C78.5379 190.229 78.3067 190.227 78.0755 190.224Z" fill="black"/>
<path fill-rule="evenodd" clip-rule="evenodd" d="M64.333 190.262C64.5705 190.249 64.8075 190.236 65.0428 190.223C64.8046 190.236 64.5689 190.249 64.333 190.262Z" fill="black"/>
<path fill-rule="evenodd" clip-rule="evenodd" d="M130.127 99.6446C129.774 99.6142 129.42 99.5837 129.067 99.553C129.421 99.5779 129.795 99.3683 130.127 99.6446Z" fill="black"/>
<path fill-rule="evenodd" clip-rule="evenodd" d="M220.2 188.361C219.852 188.326 219.503 188.29 219.155 188.255C219.504 188.29 219.852 188.326 220.2 188.361Z" fill="black"/>
<path fill-rule="evenodd" clip-rule="evenodd" d="M195.898 101.793C195.874 102.099 195.851 102.405 195.827 102.71C195.851 102.403 195.874 102.098 195.898 101.793Z" fill="black"/>
<path fill-rule="evenodd" clip-rule="evenodd" d="M217.576 114.539C217.6 114.249 217.624 113.959 217.648 113.671C217.624 113.961 217.6 114.25 217.576 114.539Z" fill="black"/>
<path fill-rule="evenodd" clip-rule="evenodd" d="M195.759 106.535C195.734 106.84 195.709 107.145 195.684 107.45C195.709 107.144 195.734 106.84 195.759 106.535Z" fill="black"/>
<path fill-rule="evenodd" clip-rule="evenodd" d="M217.429 126.238C217.427 125.943 217.424 125.648 217.422 125.354C217.612 125.648 217.605 125.942 217.429 126.238Z" fill="black"/>
<path fill-rule="evenodd" clip-rule="evenodd" d="M184.67 168.596C184.667 168.891 184.665 169.187 184.662 169.481C184.467 169.183 184.506 168.889 184.67 168.596Z" fill="black"/>
<path fill-rule="evenodd" clip-rule="evenodd" d="M206.878 134.392C206.844 134.093 206.809 133.794 206.775 133.495C206.81 133.795 206.844 134.094 206.878 134.392Z" fill="black"/>
<path fill-rule="evenodd" clip-rule="evenodd" d="M22.9919 106.928C22.7609 107.234 22.4462 107.025 22.1716 107.062C22.4453 107.017 22.7186 106.973 22.9919 106.928Z" fill="black"/>
<path fill-rule="evenodd" clip-rule="evenodd" d="M137.222 176.075C136.93 176.075 136.638 176.076 136.346 176.076C136.638 176.076 136.93 176.075 137.222 176.075Z" fill="black"/>
<path fill-rule="evenodd" clip-rule="evenodd" d="M183.849 108.184C183.876 108.433 183.903 108.682 183.93 108.929C183.903 108.68 183.876 108.432 183.849 108.184Z" fill="black"/>
<path fill-rule="evenodd" clip-rule="evenodd" d="M39.6172 83.4949C39.3238 83.5007 39.0304 83.5065 38.737 83.5124C39.0272 83.3413 39.3197 83.2918 39.6172 83.4949Z" fill="black"/>
<path fill-rule="evenodd" clip-rule="evenodd" d="M195.752 110.835C195.733 111.096 195.714 111.357 195.695 111.616C195.714 111.355 195.733 111.095 195.752 110.835Z" fill="black"/>
<path fill-rule="evenodd" clip-rule="evenodd" d="M187.706 78.8357C187.728 78.598 187.751 78.3604 187.774 78.1241C187.751 78.3622 187.728 78.5989 187.706 78.8357Z" fill="black"/>
<path fill-rule="evenodd" clip-rule="evenodd" d="M185.4 78.0913C185.377 78.3491 185.354 78.6071 185.331 78.864C185.354 78.6057 185.377 78.3484 185.4 78.0913Z" fill="black"/>
<path fill-rule="evenodd" clip-rule="evenodd" d="M57.9531 60.8707C57.6545 60.907 57.356 60.9433 57.0577 60.9793C57.3562 60.9431 57.6545 60.907 57.9531 60.8707Z" fill="black"/>
<path fill-rule="evenodd" clip-rule="evenodd" d="M36.3896 83.7002C36.0832 83.7316 35.7768 83.7629 35.4707 83.7943C35.777 83.7629 36.0834 83.7316 36.3896 83.7002Z" fill="black"/>
<path fill-rule="evenodd" clip-rule="evenodd" d="M204.278 84.4558C204.297 84.2159 204.316 83.9758 204.334 83.7373C204.316 83.9774 204.297 84.2166 204.278 84.4558Z" fill="black"/>
<path fill-rule="evenodd" clip-rule="evenodd" d="M26.3337 124.042C26.5102 124.044 26.6864 124.047 26.8602 124.05C26.6831 124.047 26.5084 124.044 26.3337 124.042Z" fill="black"/>
<path fill-rule="evenodd" clip-rule="evenodd" d="M185.409 153.646C185.391 153.911 185.374 154.177 185.356 154.442C185.374 154.176 185.392 153.911 185.409 153.646Z" fill="black"/>
<path fill-rule="evenodd" clip-rule="evenodd" d="M203.408 101.956C203.401 101.7 203.394 101.444 203.387 101.189C203.394 101.445 203.401 101.7 203.408 101.956Z" fill="black"/>
<path fill-rule="evenodd" clip-rule="evenodd" d="M65.4686 60.265C65.1964 60.265 64.9243 60.2653 64.6526 60.2653C64.9247 60.0781 65.1967 60.0828 65.4686 60.265Z" fill="black"/>
<path fill-rule="evenodd" clip-rule="evenodd" d="M138.129 120.515C137.831 120.523 137.533 120.53 137.236 120.538C137.528 120.33 137.827 120.325 138.129 120.515Z" fill="black"/>
<path fill-rule="evenodd" clip-rule="evenodd" d="M164.18 189.791C164.357 189.794 164.534 189.798 164.708 189.803C164.531 189.799 164.355 189.795 164.18 189.791Z" fill="black"/>
<path fill-rule="evenodd" clip-rule="evenodd" d="M170.835 190.102C171.011 190.096 171.188 190.089 171.362 190.083C171.185 190.09 171.01 190.096 170.835 190.102Z" fill="black"/>
<path fill-rule="evenodd" clip-rule="evenodd" d="M66.6901 190.225C66.8741 190.229 67.0582 190.234 67.2397 190.239C67.055 190.234 66.8726 190.229 66.6901 190.225Z" fill="black"/>
<path fill-rule="evenodd" clip-rule="evenodd" d="M220.014 162.401C219.988 162.148 219.962 161.895 219.935 161.643C219.962 161.896 219.988 162.149 220.014 162.401Z" fill="black"/>
<path fill-rule="evenodd" clip-rule="evenodd" d="M195.977 119.738C195.998 119.979 196.019 120.22 196.04 120.46C196.019 120.218 195.998 119.978 195.977 119.738Z" fill="black"/>
<path fill-rule="evenodd" clip-rule="evenodd" d="M205.227 115.597C205.199 115.341 205.17 115.085 205.142 114.83C205.17 115.086 205.199 115.341 205.227 115.597Z" fill="black"/>
<path fill-rule="evenodd" clip-rule="evenodd" d="M68.1832 190.377C68.3688 190.374 68.5547 190.371 68.7383 190.369C68.5518 190.372 68.3675 190.374 68.1832 190.377Z" fill="black"/>
<path fill-rule="evenodd" clip-rule="evenodd" d="M135.78 190.397C135.961 190.389 136.141 190.381 136.319 190.373C136.138 190.381 135.959 190.389 135.78 190.397Z" fill="black"/>
<path fill-rule="evenodd" clip-rule="evenodd" d="M203.718 96.921C203.709 96.6618 203.701 96.4027 203.693 96.144C203.701 96.4034 203.71 96.6621 203.718 96.921Z" fill="black"/>
<path fill-rule="evenodd" clip-rule="evenodd" d="M50.5826 190.547C50.7637 190.545 50.9447 190.544 51.1233 190.542C50.9413 190.544 50.7622 190.545 50.5826 190.547Z" fill="black"/>
<path fill-rule="evenodd" clip-rule="evenodd" d="M203.642 190.544C203.828 190.546 204.014 190.548 204.198 190.55C204.011 190.548 203.826 190.546 203.642 190.544Z" fill="black"/>
<path fill-rule="evenodd" clip-rule="evenodd" d="M207.662 190.522C207.842 190.535 208.021 190.548 208.199 190.56C208.018 190.547 207.84 190.535 207.662 190.522Z" fill="black"/>
<path fill-rule="evenodd" clip-rule="evenodd" d="M209.285 190.519C209.468 190.524 209.651 190.53 209.832 190.534C209.648 190.528 209.467 190.523 209.285 190.519Z" fill="black"/>
<path fill-rule="evenodd" clip-rule="evenodd" d="M217.621 116.624C217.609 116.369 217.597 116.114 217.585 115.859C217.598 116.115 217.609 116.369 217.621 116.624Z" fill="black"/>
<path fill-rule="evenodd" clip-rule="evenodd" d="M94.7724 187.178C95.329 187.149 95.8858 187.12 96.4427 187.091C95.8858 187.12 95.329 187.149 94.7724 187.178Z" fill="black"/>
<path fill-rule="evenodd" clip-rule="evenodd" d="M61.1851 94.5045C61.6683 94.5466 62.1516 94.5887 62.6344 94.6304C62.1512 94.5885 61.6681 94.5464 61.1851 94.5045Z" fill="black"/>
<path fill-rule="evenodd" clip-rule="evenodd" d="M197.634 115.546C197.649 116.008 197.664 116.469 197.679 116.93C197.664 116.468 197.649 116.007 197.634 115.546Z" fill="black"/>
<path fill-rule="evenodd" clip-rule="evenodd" d="M207.608 187.968C208.112 187.998 208.616 188.029 209.121 188.059C208.613 188.082 208.098 188.227 207.608 187.968Z" fill="black"/>
<path fill-rule="evenodd" clip-rule="evenodd" d="M204.622 133.343C204.626 132.902 204.63 132.462 204.633 132.022C204.63 132.463 204.626 132.903 204.622 133.343Z" fill="black"/>
<path fill-rule="evenodd" clip-rule="evenodd" d="M203.331 147.183C203.773 147.189 204.216 147.195 204.659 147.201C204.216 147.195 203.773 147.189 203.331 147.183Z" fill="black"/>
<path fill-rule="evenodd" clip-rule="evenodd" d="M91.8981 139.439C91.8869 139.774 91.876 140.11 91.8655 140.444C91.8766 140.108 91.8874 139.774 91.8981 139.439Z" fill="black"/>
<path fill-rule="evenodd" clip-rule="evenodd" d="M210.698 125.223C210.68 125.557 210.662 125.891 210.644 126.224C210.662 125.889 210.68 125.556 210.698 125.223Z" fill="black"/>
<path fill-rule="evenodd" clip-rule="evenodd" d="M201.254 186.481C201.576 186.459 201.898 186.437 202.22 186.416C201.977 186.611 201.734 186.627 201.254 186.481Z" fill="black"/>
<path fill-rule="evenodd" clip-rule="evenodd" d="M199.099 142.809C199.121 143.17 199.143 143.53 199.165 143.889C199.143 143.528 199.121 143.169 199.099 142.809Z" fill="black"/>
<path fill-rule="evenodd" clip-rule="evenodd" d="M78.6918 85.9679C78.6951 85.6201 78.6985 85.2722 78.702 84.9258C78.6987 85.274 78.6953 85.6209 78.6918 85.9679Z" fill="black"/>
<path fill-rule="evenodd" clip-rule="evenodd" d="M199.489 147.256L200.689 147.23C200.293 147.422 199.893 147.428 199.489 147.256Z" fill="black"/>
<path fill-rule="evenodd" clip-rule="evenodd" d="M210.562 149.823C210.279 149.825 209.996 149.828 209.715 149.831C209.999 149.828 210.28 149.826 210.562 149.823Z" fill="black"/>
<path fill-rule="evenodd" clip-rule="evenodd" d="M106.914 186.619C107.306 186.625 107.698 186.63 108.09 186.635C107.695 186.833 107.303 186.861 106.914 186.619Z" fill="black"/>
<path fill-rule="evenodd" clip-rule="evenodd" d="M33.1089 187.776C33.5065 187.74 33.9044 187.704 34.302 187.669C33.9044 187.704 33.5065 187.74 33.1089 187.776Z" fill="black"/>
<path fill-rule="evenodd" clip-rule="evenodd" d="M197.772 118.512C197.792 118.873 197.811 119.235 197.83 119.595C197.811 119.233 197.792 118.873 197.772 118.512Z" fill="black"/>
<path fill-rule="evenodd" clip-rule="evenodd" d="M70.8511 95.3532C71.1863 95.1877 71.5242 95.1599 71.8655 95.3353C71.5271 95.3413 71.1892 95.3473 70.8511 95.3532Z" fill="black"/>
<path fill-rule="evenodd" clip-rule="evenodd" d="M186.807 122.686C186.834 122.991 186.862 123.296 186.89 123.6C186.862 123.294 186.834 122.99 186.807 122.686Z" fill="black"/>
<path fill-rule="evenodd" clip-rule="evenodd" d="M215.125 115.571C214.952 115.273 214.958 114.976 215.133 114.682C215.13 114.979 215.127 115.275 215.125 115.571Z" fill="black"/>
<path fill-rule="evenodd" clip-rule="evenodd" d="M197.827 105.215C197.827 105.517 197.827 105.819 197.827 106.12C197.827 105.817 197.827 105.516 197.827 105.215Z" fill="black"/>
<path fill-rule="evenodd" clip-rule="evenodd" d="M209.844 147.039C210.189 146.933 210.534 146.783 210.877 147.043C210.533 147.042 210.188 147.04 209.844 147.039Z" fill="black"/>
<path fill-rule="evenodd" clip-rule="evenodd" d="M98.3391 187.041C98.6864 187.009 99.0335 186.977 99.3806 186.944C99.0335 186.977 98.6864 187.009 98.3391 187.041Z" fill="black"/>
<path fill-rule="evenodd" clip-rule="evenodd" d="M50.7401 187.042C51.0581 186.902 51.3754 186.829 51.6887 187.053C51.3723 187.049 51.0563 187.046 50.7401 187.042Z" fill="black"/>
<path fill-rule="evenodd" clip-rule="evenodd" d="M115.787 186.593C116.127 186.444 116.466 186.363 116.802 186.604C116.463 186.6 116.125 186.597 115.787 186.593Z" fill="black"/>
<path fill-rule="evenodd" clip-rule="evenodd" d="M40.0896 142.535C40.115 142.842 40.1408 143.15 40.166 143.456C40.1403 143.149 40.1148 142.842 40.0896 142.535Z" fill="black"/>
<path fill-rule="evenodd" clip-rule="evenodd" d="M119.037 124.823C119.372 124.701 119.705 124.638 120.034 124.841C119.702 124.835 119.37 124.829 119.037 124.823Z" fill="black"/>
<path fill-rule="evenodd" clip-rule="evenodd" d="M197.767 133.976C197.785 134.277 197.804 134.577 197.822 134.877C197.804 134.577 197.785 134.276 197.767 133.976Z" fill="black"/>
<path fill-rule="evenodd" clip-rule="evenodd" d="M39.8733 106.857C39.8456 107.099 39.8179 107.341 39.7904 107.582C39.8181 107.339 39.8456 107.098 39.8733 106.857Z" fill="black"/>
<path fill-rule="evenodd" clip-rule="evenodd" d="M20.4817 177.066C20.4645 177.302 20.4475 177.537 20.4305 177.771C20.4482 177.535 20.4649 177.3 20.4817 177.066Z" fill="black"/>
<path fill-rule="evenodd" clip-rule="evenodd" d="M204.77 135.567C204.752 135.323 204.733 135.08 204.714 134.837C204.733 135.081 204.752 135.324 204.77 135.567Z" fill="black"/>
<path fill-rule="evenodd" clip-rule="evenodd" d="M180.406 186.138C180.704 186.14 181.002 186.142 181.3 186.144C181.002 186.142 180.704 186.14 180.406 186.138Z" fill="black"/>
<path fill-rule="evenodd" clip-rule="evenodd" d="M91.7852 141.512C91.8409 141.69 91.8966 141.867 91.9523 142.045C91.5803 142.135 91.5247 141.957 91.7852 141.512Z" fill="black"/>
<path fill-rule="evenodd" clip-rule="evenodd" d="M114.138 124.422C114.441 124.421 114.743 124.42 115.046 124.418C114.744 124.562 114.441 124.661 114.138 124.422Z" fill="black"/>
<path fill-rule="evenodd" clip-rule="evenodd" d="M40.2592 143.99C40.2695 144.259 40.2798 144.528 40.2896 144.796C40.2791 144.527 40.2691 144.259 40.2592 143.99Z" fill="black"/>
<path fill-rule="evenodd" clip-rule="evenodd" d="M43.4626 187.336C43.7549 187.336 44.0469 187.336 44.3392 187.335C44.0467 187.336 43.7549 187.336 43.4626 187.336Z" fill="black"/>
<path fill-rule="evenodd" clip-rule="evenodd" d="M187.542 146.824C187.553 147.072 187.563 147.319 187.574 147.565C187.564 147.317 187.553 147.071 187.542 146.824Z" fill="black"/>
<path fill-rule="evenodd" clip-rule="evenodd" d="M37.2577 187.638C37.545 187.447 37.8331 187.463 38.1216 187.635C37.8335 187.636 37.5455 187.637 37.2577 187.638Z" fill="black"/>
<path fill-rule="evenodd" clip-rule="evenodd" d="M44.8249 103.4C44.8404 103.652 44.856 103.905 44.8721 104.156C44.8567 103.903 44.8408 103.651 44.8249 103.4Z" fill="black"/>
<path fill-rule="evenodd" clip-rule="evenodd" d="M35.7626 187.664C36.0613 187.665 36.3601 187.666 36.6587 187.668C36.359 187.872 36.0604 187.882 35.7626 187.664Z" fill="black"/>
<path fill-rule="evenodd" clip-rule="evenodd" d="M201.203 99.4339C201.206 99.1772 201.208 98.9208 201.21 98.6648C201.208 98.9217 201.206 99.1777 201.203 99.4339Z" fill="black"/>
<path fill-rule="evenodd" clip-rule="evenodd" d="M64.0384 94.9457C64.3242 94.9831 64.61 95.0205 64.8955 95.0577C64.6097 95.0203 64.3239 94.9831 64.0384 94.9457Z" fill="black"/>
<path fill-rule="evenodd" clip-rule="evenodd" d="M38.8181 117.095C38.8219 117.335 38.8257 117.574 38.8302 117.813C38.8263 117.573 38.8223 117.334 38.8181 117.095Z" fill="black"/>
<path fill-rule="evenodd" clip-rule="evenodd" d="M203.127 117.061C203.112 116.816 203.096 116.572 203.081 116.329C203.096 116.574 203.112 116.817 203.127 117.061Z" fill="black"/>
<path fill-rule="evenodd" clip-rule="evenodd" d="M136.469 187.378C136.821 187.41 137.174 187.442 137.527 187.474C137.174 187.442 136.821 187.41 136.469 187.378Z" fill="black"/>
<path fill-rule="evenodd" clip-rule="evenodd" d="M135.291 178.235C135.1 178.238 134.909 178.241 134.72 178.245C134.912 178.243 135.101 178.239 135.291 178.235Z" fill="black"/>
<path fill-rule="evenodd" clip-rule="evenodd" d="M135.307 187.238C135.602 187.267 135.898 187.296 136.194 187.325C135.898 187.296 135.602 187.267 135.307 187.238Z" fill="black"/>
<path fill-rule="evenodd" clip-rule="evenodd" d="M82.0773 167.29C82.4621 169.468 79.0826 171.598 78.8147 168.502C78.7167 167.37 79.4726 166.574 80.3191 165.882C81.5204 164.9 82.1915 165.84 82.0773 167.29Z" fill="black"/>
<path fill-rule="evenodd" clip-rule="evenodd" d="M44.8262 140.72C45.6224 141.047 51.705 143.032 48.5455 144.03C47.7091 144.294 46.4449 144.334 45.7199 143.868C44.8477 143.308 43.9679 141.654 44.8262 140.72Z" fill="black"/>
<path fill-rule="evenodd" clip-rule="evenodd" d="M46.3231 111.228C48.3877 110.988 50.2899 114.384 47.7445 114.274C45.8917 114.194 43.4 111.228 46.3231 111.228Z" fill="black"/>
<path fill-rule="evenodd" clip-rule="evenodd" d="M53.7086 119.555C55.4326 121.061 52.2371 124.433 50.9685 123.128C50.3206 122.461 50.9182 121.026 51.4529 120.468C52.0017 119.896 52.978 119.788 53.7086 119.555Z" fill="black"/>
<path fill-rule="evenodd" clip-rule="evenodd" d="M58.8411 158.606C57.8233 158.768 53.3475 160.233 54.281 157.573C54.637 156.558 55.6299 156.859 56.5376 156.906C58.0007 156.98 58.8411 156.91 58.8411 158.606Z" fill="black"/>
<path fill-rule="evenodd" clip-rule="evenodd" d="M55.8928 165.459C57.4164 166.275 55.1892 170.843 53.9264 169.872C52.1742 168.523 54.5707 165.869 55.8928 165.459Z" fill="black"/>
<path fill-rule="evenodd" clip-rule="evenodd" d="M62.5378 161.787C63.2787 161.484 66.7712 164.848 65.4417 165.784C64.7602 166.263 63.4692 165.441 63.0584 164.945C62.2882 164.015 62.2184 162.868 62.5378 161.787Z" fill="black"/>
<path fill-rule="evenodd" clip-rule="evenodd" d="M42.3879 134.288C43.1451 134.412 44.4525 134.452 44.5015 135.517C44.5444 136.454 43.3719 136.757 42.5465 136.831C41.6899 136.907 40.5561 136.665 40.5398 135.586C40.5226 134.423 42.3611 134.493 42.3879 134.288Z" fill="black"/>
<path fill-rule="evenodd" clip-rule="evenodd" d="M61.0608 180.659C61.8672 181.149 65.6287 182.914 64.0163 184.19C63.413 184.667 61.5839 183.681 61.1722 183.18C60.6809 182.582 60.2007 181.181 61.0608 180.659Z" fill="black"/>
<path fill-rule="evenodd" clip-rule="evenodd" d="M71.5174 167.85C71.4009 165.901 74.6834 165.126 74.0028 167.891C73.811 168.671 73.6253 169.855 72.6626 169.9C71.5248 169.954 71.4836 168.605 71.5174 167.85Z" fill="black"/>
<path fill-rule="evenodd" clip-rule="evenodd" d="M61.3775 133.967C61.4003 135.445 58.5722 136.749 58.5503 134.406C58.5308 132.312 61.483 131.699 61.3775 133.967Z" fill="black"/>
<path fill-rule="evenodd" clip-rule="evenodd" d="M59.51 126.269C60.2069 126.494 61.1329 126.609 61.1942 127.496C61.2593 128.435 60.3889 128.852 59.6057 128.8C58.9635 128.756 58.013 128.28 57.8963 127.582C57.7252 126.558 58.7235 126.491 59.51 126.269Z" fill="black"/>
<path fill-rule="evenodd" clip-rule="evenodd" d="M46.5522 153.33C46.5403 152.111 48.9811 150.645 49.4306 152.06C49.5744 152.513 48.424 154.543 48.0414 154.696C47.029 155.098 46.8877 154.16 46.5522 153.33Z" fill="black"/>
<path fill-rule="evenodd" clip-rule="evenodd" d="M66.5527 173.631C65.7279 174.37 63.2539 176.447 63.4388 173.659C63.5569 171.878 66.7703 171.971 66.5527 173.631Z" fill="black"/>
<path fill-rule="evenodd" clip-rule="evenodd" d="M106.861 181.598C107.131 180.426 111.002 182.46 109.71 183.94C109.277 184.437 108.143 183.988 107.707 183.693C106.845 183.11 106.826 182.572 106.861 181.598Z" fill="black"/>
<path fill-rule="evenodd" clip-rule="evenodd" d="M85.295 156.507C85.446 155.984 85.6137 155.06 86.1115 154.727C87.0123 154.123 87.7966 155.033 87.7968 155.993C87.797 157.782 85.7631 158.346 85.295 156.507Z" fill="black"/>
<path fill-rule="evenodd" clip-rule="evenodd" d="M75.7018 177.428C76.7068 177.659 78.9444 180.106 77.6467 181.104C76.3977 182.064 74.7366 178.159 75.7018 177.428Z" fill="black"/>
<path fill-rule="evenodd" clip-rule="evenodd" d="M76.6585 158.91C77.9507 159.013 79.7268 161.109 77.7183 161.442C76.1473 161.702 74.3202 159.423 76.6585 158.91Z" fill="black"/>
<path fill-rule="evenodd" clip-rule="evenodd" d="M88.3567 168.553C88.6807 167.46 91.8854 168.631 91.7054 169.835C91.6097 170.474 90.2994 170.625 89.6106 170.456C88.5966 170.206 88.3334 169.54 88.3567 168.553Z" fill="black"/>
<path fill-rule="evenodd" clip-rule="evenodd" d="M50.5813 107.5C50.6046 106.087 53.3161 105.511 53.5147 106.935C53.6943 108.222 50.5473 109.591 50.5813 107.5Z" fill="black"/>
<path fill-rule="evenodd" clip-rule="evenodd" d="M87.4608 183.114C87.6563 182.404 87.7406 181.548 88.6269 181.455C89.6417 181.347 89.6117 182.127 89.4925 182.934C89.1678 185.132 87.928 185.241 87.4608 183.114Z" fill="black"/>
<path fill-rule="evenodd" clip-rule="evenodd" d="M44.6406 124.314C43.227 124.634 40.638 121.907 42.2205 121.322C43.3355 120.909 44.6406 123.492 44.6406 124.314Z" fill="black"/>
<path fill-rule="evenodd" clip-rule="evenodd" d="M62.6703 145.492C61.9509 145.832 61.7852 146.038 61.2326 145.481C60.7514 144.996 60.7726 143.645 61.1857 143.141C62.7676 141.209 62.7305 144.711 62.6703 145.492Z" fill="black"/>
<path fill-rule="evenodd" clip-rule="evenodd" d="M68.5398 141.575C69.2901 141.671 71.5195 143.789 70.3586 144.63C68.9361 145.661 68.1313 142.431 68.5398 141.575Z" fill="black"/>
<path fill-rule="evenodd" clip-rule="evenodd" d="M84.7729 142.133C84.2274 144.236 82.8662 142.821 82.9433 141.229C83.0672 138.68 84.4779 140.9 84.7729 142.133Z" fill="black"/>
<path fill-rule="evenodd" clip-rule="evenodd" d="M93.0499 175.912C93.9726 176.294 95.225 179.826 93.9071 180.016C92.4269 180.228 92.9198 176.647 93.0499 175.912Z" fill="black"/>
<path fill-rule="evenodd" clip-rule="evenodd" d="M81.5271 173.927C82.5829 173.571 82.9698 175.801 82.3561 176.215C81.0061 177.127 81.2908 174.454 81.5271 173.927Z" fill="black"/>
<path fill-rule="evenodd" clip-rule="evenodd" d="M71.5174 167.85C71.504 168.146 71.4908 168.442 71.4769 168.736C71.4901 168.44 71.5035 168.145 71.5174 167.85Z" fill="black"/>
<path fill-rule="evenodd" clip-rule="evenodd" d="M106.861 181.598C106.85 181.902 106.839 182.206 106.828 182.508C106.838 182.204 106.85 181.901 106.861 181.598Z" fill="black"/>
<path fill-rule="evenodd" clip-rule="evenodd" d="M88.3567 168.553C88.3509 168.81 88.3446 169.068 88.3379 169.324C88.3437 169.066 88.3504 168.809 88.3567 168.553Z" fill="black"/>
<path fill-rule="evenodd" clip-rule="evenodd" d="M205.137 164.12C207.326 164.05 209.768 163.225 211.919 163.487C212.511 163.56 213.874 163.709 212.925 164.589C212.472 165.009 210.299 164.792 209.642 164.931C205.623 165.783 201.061 166.333 196.94 166.262C195.011 166.229 193.068 166.074 191.139 165.972C189.213 165.87 189.023 165.086 191.191 164.836C193.443 164.577 195.754 164.673 198.017 164.671C200.396 164.668 202.763 164.279 205.137 164.12Z" fill="black"/>
<path fill-rule="evenodd" clip-rule="evenodd" d="M209.943 158.839C209.732 159.44 209.547 160.818 208.74 160.909C207.609 161.035 207.422 159.091 207.463 158.38C207.514 157.522 207.822 156.096 208.887 156.394C209.787 156.645 209.877 158.152 209.943 158.839Z" fill="black"/>
<path fill-rule="evenodd" clip-rule="evenodd" d="M203.097 158.399C203.263 157.756 203.344 156.306 204.252 156.256C205.267 156.201 205.558 157.713 205.551 158.437C205.544 159.124 205.29 160.422 204.482 160.581C203.386 160.796 203.288 159.134 203.097 158.399Z" fill="black"/>
<path fill-rule="evenodd" clip-rule="evenodd" d="M191.698 159.553C191.369 160.326 191.151 161.391 190.133 160.864C189.346 160.456 189.236 158.812 189.384 158.059C189.538 157.28 189.864 156.385 190.759 156.736C191.791 157.141 191.687 158.702 191.698 159.553Z" fill="black"/>
<path fill-rule="evenodd" clip-rule="evenodd" d="M200.33 158.839C199.36 161.785 197.59 159.792 198.262 157.593C198.965 155.294 200.241 157.527 200.33 158.839Z" fill="black"/>
<path fill-rule="evenodd" clip-rule="evenodd" d="M195.603 158.985C195.333 159.504 195.046 160.622 194.32 160.505C193.43 160.36 193.401 158.644 193.499 158.005C193.584 157.445 193.835 156.513 194.58 156.525C195.657 156.542 195.585 158.313 195.603 158.985Z" fill="black"/>
<path fill-rule="evenodd" clip-rule="evenodd" d="M214.958 159.55C214.236 161.173 213.242 159.775 213.56 158.622C214.032 156.913 214.917 158.428 214.958 159.55Z" fill="black"/>
<path fill-rule="evenodd" clip-rule="evenodd" d="M197.268 164.673C196.479 164.67 195.69 164.667 194.901 164.664C195.691 164.515 196.48 164.457 197.268 164.673Z" fill="black"/>
<path fill-rule="evenodd" clip-rule="evenodd" d="M212.945 163.481C212.261 163.485 211.577 163.49 210.893 163.494C211.576 163.289 212.26 163.284 212.945 163.481Z" fill="black"/>
<path fill-rule="evenodd" clip-rule="evenodd" d="M205.137 164.12C204.589 164.157 204.042 164.194 203.495 164.231C204.042 164.194 204.59 164.157 205.137 164.12Z" fill="black"/>
<path fill-rule="evenodd" clip-rule="evenodd" d="M191.698 159.553C191.693 159.159 191.687 158.766 191.683 158.373C191.885 158.764 191.871 159.158 191.698 159.553Z" fill="black"/>
<path fill-rule="evenodd" clip-rule="evenodd" d="M195.99 166.254C196.308 166.257 196.625 166.259 196.94 166.262C196.622 166.259 196.306 166.257 195.99 166.254Z" fill="black"/>
<path fill-rule="evenodd" clip-rule="evenodd" d="M190.657 165.972C190.979 165.972 191.301 165.972 191.62 165.972C191.297 165.972 190.977 165.972 190.657 165.972Z" fill="black"/>
<path fill-rule="evenodd" clip-rule="evenodd" d="M193.294 164.707C192.847 164.744 192.4 164.78 191.953 164.817C192.4 164.78 192.847 164.744 193.294 164.707Z" fill="black"/>
<path fill-rule="evenodd" clip-rule="evenodd" d="M199.341 164.668C198.9 164.669 198.458 164.67 198.017 164.671C198.458 164.484 198.9 164.479 199.341 164.668Z" fill="black"/>
<path fill-rule="evenodd" clip-rule="evenodd" d="M195.603 158.985C195.592 158.575 195.581 158.164 195.571 157.754C195.582 158.165 195.592 158.575 195.603 158.985Z" fill="black"/>
<path fill-rule="evenodd" clip-rule="evenodd" d="M189.385 158.059C189.382 158.46 189.38 158.86 189.376 159.259C189.379 158.858 189.382 158.459 189.385 158.059Z" fill="black"/>
<path fill-rule="evenodd" clip-rule="evenodd" d="M207.646 163.971C207.256 164.007 206.866 164.042 206.476 164.077C206.866 164.042 207.256 164.007 207.646 163.971Z" fill="black"/>
<path fill-rule="evenodd" clip-rule="evenodd" d="M214.958 159.55C214.946 159.201 214.933 158.851 214.921 158.502C214.933 158.852 214.946 159.201 214.958 159.55Z" fill="black"/>
<path fill-rule="evenodd" clip-rule="evenodd" d="M198.349 166.265C198.621 166.26 198.893 166.255 199.162 166.25C198.889 166.256 198.619 166.261 198.349 166.265Z" fill="black"/>
<path fill-rule="evenodd" clip-rule="evenodd" d="M209.943 158.839C209.919 158.588 209.895 158.336 209.871 158.086C209.895 158.338 209.919 158.588 209.943 158.839Z" fill="black"/>
<path fill-rule="evenodd" clip-rule="evenodd" d="M200.33 158.839C200.313 158.581 200.295 158.323 200.278 158.066C200.295 158.324 200.313 158.582 200.33 158.839Z" fill="black"/>
<path fill-rule="evenodd" clip-rule="evenodd" d="M60.194 83.0225C59.1253 82.7416 58.9249 81.2375 59.0966 80.3137C59.2914 79.8685 59.4862 79.4235 59.681 78.9783C59.6047 78.8136 59.5287 78.649 59.4527 78.4844C59.5504 77.5675 59.3006 77.1691 60.3528 77.5404C62.3073 78.2307 62.6197 82.9517 60.194 83.0225Z" fill="black"/>
<path fill-rule="evenodd" clip-rule="evenodd" d="M76.0141 80.1143C76.8945 80.0449 78.4937 81.0717 77.6173 82.0652C77.0743 82.6806 75.285 82.3895 74.5551 82.518C73.587 82.6885 72.5773 82.9216 73.101 81.4695C73.5123 80.3291 74.9811 80.0845 76.0141 80.1143Z" fill="black"/>
<path fill-rule="evenodd" clip-rule="evenodd" d="M75.0877 86.9448C74.1933 86.2265 74.5925 82.9552 75.9536 83.5437C77.3537 84.1495 75.8339 86.4727 75.0877 86.9448Z" fill="black"/>
<path fill-rule="evenodd" clip-rule="evenodd" d="M59.0966 80.3137C59.0966 80.6579 59.0964 81.0024 59.0957 81.345C58.9092 81.0001 58.915 80.6568 59.0966 80.3137Z" fill="black"/>
<path fill-rule="evenodd" clip-rule="evenodd" d="M60.194 83.0224C60.3763 83.0173 60.5587 83.0119 60.7388 83.0072C60.5556 83.013 60.3749 83.0177 60.194 83.0224Z" fill="black"/>
<path fill-rule="evenodd" clip-rule="evenodd" d="M170.62 177.234C170.536 178.722 168.941 177.622 169.054 176.627C169.259 174.82 170.279 176.605 170.62 177.234Z" fill="black"/>
</svg>
