<svg width="246" height="246" viewBox="0 0 246 246" fill="none" xmlns="http://www.w3.org/2000/svg">
<rect width="246" height="246" fill="white"/>
<circle cx="123" cy="127" r="86" fill="#E7F3E9"/>
<path fill-rule="evenodd" clip-rule="evenodd" d="M88.4878 70.0167C88.3106 72.9223 88.1331 75.8276 87.9558 78.7332C89.0965 78.4038 96.3529 76.2633 95.9047 78.4337C95.5832 79.9903 93.543 81.6741 92.5036 82.7579C91.547 83.7557 90.5619 84.7274 89.5517 85.6708C91.4084 84.9583 93.2804 84.2836 95.166 83.6523C96.5928 83.1747 98.03 82.7084 99.492 82.3505C100.035 82.2174 101.5 81.6749 102.013 82.0449C103.36 83.0168 96.0504 90.1759 95.0491 91.1851C96.4649 90.525 97.9146 89.9254 99.3891 89.4109C100.454 89.0393 103.742 87.6196 104.684 88.8319C105.693 90.1291 103.195 93.1077 102.502 94.0522C101.509 95.4053 100.434 96.7035 99.3051 97.9449C103.996 102.169 109.509 105.929 115.375 108.266C119.677 109.979 123.902 110.415 128.442 109.475C133.105 108.509 137.577 106.656 141.828 104.538C144.325 103.294 146.789 101.948 149.136 100.435C148.168 99.2551 147.229 98.0506 146.316 96.8276C145.013 95.0814 143.412 93.1734 142.669 91.0947C141.942 89.0603 144.67 89.4575 145.978 89.568C147.872 89.7279 149.762 90.0675 151.618 90.4736C150.306 89.5583 149.017 88.6062 147.754 87.6233C146.107 86.3424 143.912 84.8939 142.834 83.0511C141.887 81.4306 143.966 81.8399 144.928 82.0522C147.22 82.5586 149.451 83.4214 151.638 84.2629C153.239 84.8793 154.83 85.5247 156.406 86.2044C155.428 85.3519 154.483 84.4585 153.574 83.5321C152.352 82.2871 150.705 80.7666 150.158 79.0521C149.043 75.5605 156.544 78.1943 157.825 78.7332C157.588 75.1162 157.352 71.4992 157.116 67.8822C147.183 70.532 137.25 73.182 127.316 75.8321C126.243 76.1185 124.9 76.7422 123.78 76.7754C122.766 76.8058 121.541 76.3481 120.552 76.1588L102.577 72.7157C97.8809 71.816 93.1844 70.9164 88.4878 70.0167Z" fill="#219653"/>
<path fill-rule="evenodd" clip-rule="evenodd" d="M195.247 194.424C194.174 195.039 192.918 195.514 191.727 195.833C191.027 196.02 189.871 196.599 189.257 196.069C188.961 195.814 188.894 195.236 188.72 194.901C188.444 194.371 188.052 193.913 187.685 193.444C186.796 192.309 185.871 191.213 184.902 190.145C184.443 189.638 183.605 188.456 182.797 188.534C181.789 188.631 181.813 190.029 182.066 190.744C182.87 193.019 185.304 195.002 186.894 196.715C186.49 197.339 184.269 197.265 183.653 197.119C182.711 196.896 182.616 196.224 182.187 195.455C181.182 193.659 179.143 192.654 177.468 191.598C176.857 191.213 175.558 190.145 174.762 190.414C174.008 190.669 174.04 191.635 174.281 192.266C174.644 193.219 175.676 193.881 176.44 194.484C177.458 195.287 178.389 196.161 179.238 197.145C178.015 197.245 176.796 197.418 175.576 197.518C174.1 197.641 172.871 196.829 171.512 196.369C170.25 195.941 168.993 195.58 167.751 195.087C166.358 194.534 164.898 194.341 163.493 193.856C157.977 191.951 152.571 189.555 147.256 187.141C144.722 185.99 142.242 184.838 139.602 183.938C137.679 183.282 134.656 181.973 134.196 179.676C133.954 178.463 134.838 177.158 134.968 175.945C135.121 174.518 135.001 172.949 134.568 171.58C134.186 170.374 133.552 169.258 133.053 168.1C132.472 166.751 132.993 166.773 134.122 166.62C135.473 166.436 137.051 165.673 138.321 165.176C139.785 164.604 141.236 163.804 142.576 162.981C143.788 162.237 144.843 161.278 145.808 160.237C146.79 159.178 147.426 157.922 148.375 156.837C151.878 161.156 155.208 165.542 158.931 169.674C160.688 171.625 162.598 173.238 164.763 174.721C165.668 175.341 166.564 176.048 167.549 176.538C168.781 177.151 170.158 177.531 171.424 178.09C176.278 180.235 180.911 182.579 185.439 185.345C187.63 186.684 189.469 188.218 191.398 189.897C191.999 190.42 196.917 193.466 195.247 194.424ZM138.304 159.038C137.52 159.394 136.772 159.857 135.935 160.085C136.172 158.638 137.519 156.455 139.247 156.695C139.907 156.787 140.404 157.301 140.114 158.009C139.851 158.653 138.863 158.784 138.304 159.038ZM83.7025 119.783C82.8131 120.275 81.9845 120.562 81.463 119.505C81.8493 119.428 83.6038 119.193 83.7025 119.783ZM82.2217 116.796C81.5346 116.587 82.0842 116.367 82.3206 116.115C82.5049 115.919 83.1148 115.231 83.3283 115.117C84.2709 114.616 84.9996 116.479 85.4503 117.084C84.3831 116.989 83.2607 117.112 82.2217 116.796ZM89.5698 123.246C88.2673 123.467 88.4118 121.833 88.4507 121.005C88.7255 121.342 90.5855 123.073 89.5698 123.246ZM93.8866 120.424C92.2986 120.692 91.2492 117.942 91.5339 116.738C91.7845 115.678 93.0152 115.087 93.9949 114.93C94.9446 114.779 96.2667 114.986 96.5489 116.084C96.7981 117.054 94.9451 120.245 93.8866 120.424ZM131.479 161.949C130.337 162.3 129.219 162.345 128.072 162.69C126.771 163.081 125.566 163.047 124.262 163.313C123.732 163.421 122.3 164.196 121.783 164.023C121.27 163.852 120.528 162.257 120.234 161.842C122.541 160.881 124.509 159.639 126.03 157.613C127.239 156.002 128.536 153.588 127.775 151.509C126.917 149.165 123.96 148.656 121.988 149.635C121.055 150.098 120.13 150.674 119.361 151.379C118.481 152.186 118.136 153.067 117.566 154.062C116.99 155.069 116.585 154.509 116.01 153.654C115.518 152.924 115.582 152.186 114.967 151.465C114.653 151.097 114.168 150.743 114.004 150.268C113.9 149.966 114.119 149.433 113.922 149.195C113.645 148.862 113.309 149.254 113.077 148.956C112.908 148.74 112.963 148.248 112.789 147.977C112.638 147.824 112.471 147.693 112.285 147.584C112.06 147.472 112.019 147.333 112.162 147.165C111.983 146.833 112.155 146.721 111.772 146.316C111.174 145.686 110.629 145.082 110.204 144.339C110.009 143.998 110.029 143.494 109.787 143.199C109.456 142.794 108.903 142.855 108.618 142.355C108.364 141.908 108.534 141.128 108.116 140.723C107.895 140.66 107.674 140.598 107.453 140.537C107.287 140.375 107.19 140.178 107.162 139.947C106.93 139.588 106.884 139.167 106.59 138.787C106.028 138.062 105.272 137.392 104.776 136.628C104.254 135.824 104.531 135.689 105.437 135.401C106.255 135.141 107.001 134.9 107.759 134.458C111.261 132.415 114.582 126.994 109.023 125.338C106.959 124.723 105.264 123.07 102.976 123.72C101.985 124.002 101.044 124.601 100.304 125.313C99.7928 125.805 99.3194 127.12 98.6917 127.372C97.5633 127.825 98.0403 126.693 97.7201 126.173C97.5672 125.925 96.9515 125.639 96.7235 125.413C96.4557 125.148 96.1968 124.814 96.011 124.487C95.666 123.878 95.4548 123.54 94.9572 123.045C94.7695 122.858 93.8329 121.892 94.6777 122.018C94.3355 120.973 94.8348 120.816 95.5248 120.052C96.3351 119.155 97.1718 117.909 97.1765 116.652C97.1859 114.24 94.3342 113.159 92.5434 114.591C92.1791 114.882 90.0236 117.695 90.4647 115.901C90.7024 114.934 92.904 112.408 93.9247 113.062C92.7809 111.39 90.1533 115.448 89.54 116.279C89.0178 115.315 88.9808 114.561 88.1167 113.814C87.4133 114.946 87.7847 113.709 87.6297 113.458C87.2946 112.915 87.4786 113.536 87.2969 113.343C87.0707 113.103 86.7144 112.914 86.4738 112.596C86.0615 113.157 86.2261 112.553 86.0998 112.344C85.8044 111.854 85.9187 111.57 85.4124 111.144C85.0439 110.834 84.3181 110.353 83.8223 110.309C83.2505 110.258 83.0921 110.478 82.5096 110.316C81.7684 110.109 80.8357 109.792 81.1945 111.034C81.455 111.937 82.514 112.451 82.746 113.373C82.9796 114.302 82.0636 115.238 81.6191 116C81.0483 116.977 80.5817 116.897 79.5477 117.117C78.8869 117.258 78.0051 117.559 78.5717 118.363C78.9764 118.937 79.9248 118.816 80.4591 119.156C81.2081 119.633 81.1976 120.809 82.1539 121.013C83.2069 121.238 83.8103 120.063 84.6981 119.779C85.3294 119.577 87.2852 119.6 87.7821 120.075C88.4593 120.722 87.8742 121.96 88.0446 122.764C88.298 123.957 89.1032 124.03 90.1212 124.068C91.3747 124.115 91.8152 125.322 92.4894 126.279C94.0683 128.52 95.4405 130.91 97.0578 133.122C97.7736 134.101 98.8209 134.972 99.4071 136.035C100.131 137.348 99.126 138.105 98.2588 139.047C97.1256 140.278 96.2795 141.679 95.2967 143.025C94.4232 144.22 93.3378 143.923 91.9421 143.923C92.2532 143.28 92.6274 142.879 93.3926 142.957C92.5924 141.977 91.9525 143.098 91.4334 143.719C90.6826 144.616 89.7037 144.833 88.7391 145.423C88.3977 145.632 86.5391 146.985 87.1038 147.447C87.168 147.5 90.2447 145.471 90.5952 145.284C90.5952 146.034 90.4318 146.812 90.5365 147.557C90.6132 148.103 90.9963 148.673 90.9146 149.241C90.7599 150.313 89.378 151.157 88.7848 151.992C88.3382 152.621 88.446 153.117 88.2187 153.792C88.0115 154.407 88.1203 154.221 87.6038 154.411C86.5521 154.799 84.7822 154.59 83.8298 154.039C83.2387 153.697 82.7854 153.157 82.3052 152.681C81.9435 152.322 81.0337 151.709 80.9333 151.207C80.7607 150.342 82.473 148.736 82.812 147.844C83.769 145.327 82.1278 143.37 79.5738 143.227C80.3609 142.618 81.3367 143.077 82.1664 143.309C80.748 141.339 78.3256 142.96 77.1225 144.299C76.3004 142.216 75.904 140.018 75.4018 137.846C75.0597 136.366 73.7577 133.726 74.3383 132.203C74.6192 131.466 75.4118 131.056 75.9601 130.545C76.583 129.965 77.1165 129.271 77.5719 128.553C78.645 126.861 79.2646 124.726 77.7872 123.058C78.2361 122.984 78.6852 122.91 79.1341 122.836C78.4039 122.148 77.2519 122.484 76.3043 122.28C75.703 122.15 73.973 122.234 73.5716 121.893C73.0888 121.483 73.3983 119.595 73.4155 119.037C73.4552 117.732 73.564 116.477 73.7078 115.179C73.8441 113.953 73.8167 112.629 74.0693 111.425C74.2744 110.448 74.9297 110.15 75.686 109.574C77.4936 108.197 78.9665 106.522 78.3493 104.149C78.568 104.115 78.7867 104.08 79.0054 104.045C78.2982 103.532 77.3829 103.719 76.5963 103.448C77.3187 101.409 78.9164 97.8259 81.5105 97.6329C81.5998 98.5441 81.5387 99.6279 82.152 100.382C82.8501 101.241 84.0757 101.328 85.0215 100.873C85.8796 100.461 86.6852 99.5863 87.0808 98.7224C87.3484 98.1377 87.3001 97.149 87.7698 96.6855C88.3998 96.0639 92.743 96.4388 92.6099 97.4881C92.5316 98.105 91.3703 99.1419 91.0456 99.6886C90.4516 100.689 89.9761 101.771 89.758 102.921C89.4268 104.666 89.6186 106.969 91.3862 107.887C93.3965 108.931 95.8466 107.604 97.4952 106.457C98.4005 105.828 99.2774 105.133 100.104 104.403C100.545 104.015 100.988 103.615 101.376 103.174C101.662 102.848 101.892 102.322 102.244 102.078C103.078 101.502 103.895 102.48 104.601 102.974C105.75 103.779 106.893 104.543 108.126 105.213C110.629 106.572 112.918 108.373 115.13 110.16C117.356 111.959 119.651 113.809 121.454 116.049C120.362 116.723 120.557 116.898 120.071 118.099C119.727 118.952 119.252 119.677 119.197 120.624C119.102 122.259 120.149 123.653 121.738 124.014C122.626 124.217 123.473 124.055 124.296 123.69C124.936 123.407 125.574 122.711 126.242 122.538C127.484 122.216 128.479 124.57 129.175 125.399C132.269 129.08 135.538 132.616 138.451 136.448C138.774 136.872 139.732 137.701 139.81 138.263C139.922 139.07 138.656 139.839 138.13 140.302C137.855 140.545 134.93 143.303 135.912 143.741C136.192 143.866 137.011 142.174 137.216 142.029C137.983 141.487 137.403 142.549 137.357 143.086C137.243 144.421 138.157 145.148 139.442 144.979C140.814 144.798 142.035 143.713 142.883 142.688C143.947 143.922 145.609 145.789 145.917 147.439C146.113 148.493 145.204 151.072 146.902 151.287C147.161 151.32 148.099 150.622 148.274 151.018C148.419 151.349 147.406 151.914 147.259 152.023C146.634 152.491 146.257 152.992 145.753 153.558C145.16 154.223 144.351 154.783 143.685 155.42C142.983 156.091 141.594 157.914 140.668 157.034C140.203 156.591 140.325 156.012 139.579 155.753C138.9 155.516 138.04 155.816 137.409 156.078C136.699 156.373 134.359 157.451 134.099 158.338C133.741 159.561 135.675 158.091 136.019 157.876C135.627 158.874 135.41 160.318 134.412 160.9C133.582 161.384 132.389 161.668 131.479 161.949ZM118.216 154.401C118.88 152.262 122.796 148.447 125.271 149.64C122.386 150.246 120.098 152.225 118.216 154.401ZM119.681 160.528C118.716 159.989 118.767 158.423 118.431 157.507C118.237 156.981 117.85 156.597 117.964 156.013C118.097 155.329 118.967 154.569 119.431 154.076C120.888 152.523 123.454 150.401 125.8 150.757C128.787 151.21 126.762 155.23 125.745 156.614C124.879 157.794 121.539 161.567 119.681 160.528ZM112.713 157.912C109.483 157.695 106.265 157.406 103.079 156.812C101.949 156.601 101.003 156.632 101.649 155.33C101.863 154.901 103.149 152.207 103.44 152.285C103.612 152.33 103.573 154.181 103.623 154.394C103.851 155.346 104.492 156.234 105.571 156.174C107.338 156.075 108.477 153.785 109.407 152.556C110.152 153.561 110.691 154.676 111.44 155.664C111.798 156.136 113.045 157.234 112.713 157.912ZM93.7775 145.201C93.2357 146.448 92.1459 147.633 91.388 148.763C90.9595 147.853 90.6581 145.766 91.6746 145.093C92.0593 144.839 94.1202 144.413 93.7775 145.201ZM104.979 148.913C105.129 148.433 105.294 147.957 105.478 147.49C105.794 148.487 105.956 148.517 104.979 148.913ZM107.744 149.935C108.136 150.601 108.79 151.256 108.687 152.092C108.609 152.726 108.038 153.376 107.63 153.818C106.954 154.549 105.458 155.951 104.479 154.981C103.662 154.17 103.946 151.941 104.327 151.029C104.87 149.726 106.81 148.347 107.744 149.935ZM105.826 148.569C106.051 148.48 105.579 147.026 106.017 146.881C106.399 147.754 106.759 147.991 105.826 148.569ZM99.6545 129.001C99.5089 128.464 99.1751 128.487 99.2954 127.824C99.3742 127.389 99.7184 126.924 99.9797 126.58C100.5 125.893 101.187 125.327 101.929 124.898C103.497 123.994 105.649 123.618 107.052 125.034C105.74 125.242 101.719 126.54 101.693 128.339C103.152 128.057 104.299 126.588 105.762 126.125C106.963 125.745 108.266 125.772 109.461 126.173C112.731 127.271 111.371 130.105 109.525 131.946C108.43 133.039 107.116 133.855 105.679 134.418C105.014 134.678 104.607 134.707 103.953 134.576C103.831 134.552 103.688 134.324 103.541 134.275C103.176 134.154 103.282 134.565 102.982 134.38C102.72 134.22 102.161 133.183 101.982 132.886C101.699 132.413 101.566 131.954 101.218 131.523C100.87 131.091 100.7 130.513 100.377 130.122C100.223 129.934 99.7983 129.942 99.6842 129.759C99.5133 129.483 99.731 129.283 99.6545 129.001ZM94.6317 150.136C95.375 148.841 96.6467 147.742 97.6306 146.61C97.6912 148.471 96.3607 149.744 94.6317 150.136ZM95.6362 150.734C97.1713 150.193 98.0171 148.897 98.1737 147.326C98.3723 145.336 99.6185 144.292 100.369 142.505C100.656 141.82 100.992 139.565 102.107 140.211C102.489 140.432 102.716 141.264 102.916 141.64C103.398 142.55 103.946 143.432 104.458 144.325C104.874 145.052 105.499 145.783 105.315 146.659C105.155 147.422 104.639 148.236 104.337 148.955C103.624 150.656 102.687 152.222 101.905 153.884C101.589 154.555 101.215 156.143 100.251 156.135C99.488 156.129 99.5733 155.292 99.0709 155.006C98.4368 154.644 97.7157 155.332 97.1948 155.618C97.7945 154.602 98.8434 154.027 100.022 154.218C98.6106 152.809 97.657 154.711 96.4455 155.134C95.2977 155.535 93.2613 153.643 92.2949 153.107C92.6647 152.479 92.9988 151.711 93.6345 151.298C94.2376 150.906 94.9778 150.966 95.6362 150.734ZM83.1557 163.613C83.3238 162.802 83.7988 162.322 84.1 161.585C84.4491 162.478 83.6315 163.006 83.1557 163.613ZM107.545 168.592C107.463 171.325 107.24 174.05 107.16 176.784C107.123 178.044 106.9 179.247 106.752 180.493C106.627 181.546 106.691 182.581 106.029 183.481C104.986 184.901 102.958 185.308 101.384 185.834C100.228 186.22 99.0584 186.571 97.9166 186.999C96.8894 187.385 96.0614 187.97 95.0845 188.429C94.2108 188.839 93.2673 189.083 92.3975 189.52C91.4979 189.973 90.7867 190.524 89.8626 190.926C88.7563 191.408 87.8447 192.266 86.8608 192.947C85.9947 193.546 85.0784 194.009 84.3333 194.763C83.6346 195.47 82.7502 195.78 81.9584 196.408C81.1212 197.073 80.2448 197.505 79.3199 198.025C77.4252 199.093 74.8689 200.916 72.5888 199.879C73.2409 199.044 74.5756 198.241 74.6771 197.091C74.8092 195.592 73.5079 196.144 72.7545 196.622C71.6132 197.347 70.9819 198.222 70.1131 199.189C69.0974 200.318 67.8144 199.558 66.5717 199.24C67.4214 198.473 68.2644 197.699 69.1125 196.931C69.8287 196.283 70.9242 195.582 71.3603 194.685C71.6719 194.044 71.6568 193.165 70.9047 192.832C70.0633 192.46 69.1117 193.245 68.4885 193.712C66.8342 194.953 65.7446 196.527 64.6584 198.254C64.0806 199.172 63.8144 199.102 62.7515 198.918C61.6251 198.724 60.4984 198.516 59.3627 198.38C60.8672 196.831 62.5487 195.152 63.7369 193.34C64.1219 192.753 64.624 191.205 63.4511 191.062C62.9678 191.004 62.0056 191.995 61.6326 192.262C60.0034 193.429 58.437 194.902 57.357 196.606C57.0006 197.169 56.8886 197.795 56.1983 197.842C55.2958 197.903 53.6188 197.039 52.7482 196.772C54.4122 194.67 56.0644 192.551 58.0085 190.697C59.7946 188.993 61.5763 187.755 63.6651 186.448C65.9041 185.047 67.9895 183.434 70.045 181.779C72.0125 180.195 74.068 178.7 75.8792 176.931C79.4968 173.397 82.7191 169.334 85.3876 165.036C86.0119 164.031 86.5996 162.999 87.1077 161.929C87.5848 160.925 87.8048 159.723 88.4489 158.809C88.6715 158.493 88.9849 158.259 89.1833 157.929C89.3704 157.619 89.307 157.244 89.5922 156.969C90.252 156.334 91.4533 156.717 92.07 157.162C93.0617 157.878 93.8639 158.747 94.9538 159.346C96.0501 159.948 97.236 160.386 98.4498 160.683C101.287 161.374 104.099 161.942 106.99 162.362C106.692 163.468 107.423 163.642 107.665 164.637C107.959 165.844 107.582 167.363 107.545 168.592ZM80.2273 150.153C79.584 149.195 79.0101 148.193 78.3778 147.228C77.9928 146.641 77.5155 146.01 77.8446 145.292C78.3989 144.081 80.3544 143.865 81.4155 144.393C83.828 145.594 81.587 149.025 80.2273 150.153ZM73.8417 128.24C73.6196 126.367 74.3339 125.038 76.0237 124.056C77.2282 123.356 78.1979 124.313 78.0335 125.589C77.7833 127.532 75.7116 129.694 74.1306 130.708C74.0273 129.886 73.9396 129.062 73.8417 128.24ZM73.5841 122.881C74.0826 122.485 75.4175 122.991 75.995 123.025C75.2009 123.721 74.4065 124.417 73.612 125.113C73.5601 124.635 73.1243 123.247 73.5841 122.881ZM76.2644 104.796C80.2837 104.272 75.6568 108.596 74.4921 109.274C74.6815 108.354 75.1471 104.942 76.2644 104.796ZM86.9645 97.2249C86.4247 99.4412 82.229 101.859 82.1852 98.2286C82.169 96.8759 82.9269 96.9853 84.0331 96.8554C84.6642 96.7816 87.2729 95.9578 86.9645 97.2249ZM72.4721 100.657C72.001 101.897 71.6234 103.168 71.1617 104.409C70.9571 104.958 70.7165 105.336 70.3355 105.771C70.0166 106.135 69.6371 106.227 69.6496 106.803C70.0492 106.725 70.3618 106.486 70.6847 106.256C70.6064 107.397 70.2042 108.624 70.0095 109.761C69.7762 111.125 69.582 112.489 69.51 113.871C69.3537 116.878 69.3524 119.873 69.4181 122.881C69.4518 124.414 69.4669 125.948 69.5494 127.479C69.5906 128.241 69.6371 129.005 69.731 129.762C69.7692 130.068 69.9905 130.719 69.8537 131.005C69.3169 132.13 66.9388 129.041 65.9062 129.494C66.0547 128.639 65.712 128.826 65.1397 128.405C64.8625 128.201 64.6822 127.854 64.393 127.672C64.3056 127.578 64.2093 127.494 64.1044 127.42C63.9848 127.257 63.8588 127.274 63.7262 127.472C62.5628 126.775 62.2621 125.289 61.6376 124.289C61.3163 123.775 61.006 123.695 60.9512 122.984C60.9037 122.365 60.9966 121.734 60.9716 121.112C60.9431 120.411 60.9022 119.637 60.7059 118.958C60.4781 118.169 60.1646 118.234 59.5542 117.813C59.7424 117.731 59.8664 117.592 59.9264 117.398C59.7314 117.433 59.139 117.675 58.9918 117.501C58.7024 117.159 59.3854 117.113 59.5649 116.977C58.799 116.636 58.9639 116.356 59.2403 115.731C59.3186 115.554 59.3932 115.29 59.4597 115.141C59.6051 114.815 59.6886 115.021 59.7366 114.617C59.7823 114.231 59.4412 113.473 59.3407 113.062C59.1722 112.372 59.079 111.777 59.2303 111.058C59.353 110.477 59.6829 109.95 59.7058 109.352C59.7124 109.184 59.4571 109.129 59.4537 108.966C59.4488 108.729 59.6693 108.625 59.7267 108.406C59.8731 107.846 59.8071 107.253 60.0576 106.722C60.2831 106.244 60.7385 105.626 61.0608 105.209C61.2842 104.92 61.8323 104.595 61.8923 104.214C61.932 103.961 61.5397 103.99 61.5572 103.8C61.581 103.542 61.7965 103.458 61.8558 103.267C62.0189 102.742 62.0599 102.236 62.4813 101.834C63.0122 101.327 63.2429 101.539 63.2648 100.703C63.2755 100.295 62.9501 100.232 63.1244 99.762C63.2191 99.5067 63.4986 99.3558 63.6774 99.1749C64.2082 98.6381 64.566 98.1613 64.9439 97.498C65.2782 96.912 65.8114 96.5711 66.1538 96.0649C66.5998 95.4053 65.933 95.0783 66.8381 94.8921C66.7094 94.4826 66.5727 94.1516 66.9112 93.8049C67.1247 93.5863 67.6665 93.7201 67.8554 93.4671C68.072 93.1767 67.7518 92.4886 68.0783 92.3001C68.3437 92.1471 68.7412 92.619 69.1582 92.3854C69.4761 92.2074 69.956 91.2241 69.8537 90.8628C70.6755 91.3262 70.4707 91.007 70.864 90.4124C70.9522 90.2791 71.2194 90.2495 71.2953 90.1149C71.4472 89.846 71.4125 89.5719 71.6312 89.3532C71.9958 88.9892 72.5921 89.0827 72.9933 88.8227C73.3247 88.608 73.3072 88.3765 73.5716 88.1738C73.7976 88.0008 74.1687 87.9675 74.3885 87.7881C74.8188 87.4367 74.823 87.0657 75.3614 86.763C75.999 86.4048 76.5637 86.1 77.1436 85.625C77.5218 85.3155 77.8806 84.7667 78.323 84.5624C78.9347 84.2799 79.4112 84.26 80.0097 83.857C80.4421 83.5656 80.851 83.0848 81.2757 82.8392C81.5959 82.6543 81.8206 82.6941 82.2243 82.5794C82.9509 82.3728 83.1278 81.6865 83.7205 81.4071C84.1274 81.2152 84.7198 81.3909 85.1666 81.2901C86.5571 80.9772 87.9306 80.3021 89.3258 79.9282C91.0289 79.4721 92.7441 79.0725 94.4603 78.6693C92.8832 80.8122 90.8744 82.7457 88.8372 84.4477C88.1686 85.0065 84.5042 87.5535 86.4793 88.6412C87.2721 89.0777 88.9946 87.6677 89.6348 87.3231C90.9237 86.6289 92.2589 86.0733 93.6089 85.5119C95.792 84.6041 98.6351 82.9895 101.061 83.1194C99.5843 84.9358 97.7407 86.3941 96.0517 87.9987C94.4994 89.4734 92.1605 90.8565 92.8926 93.2702C90.7121 92.714 88.7537 92.0568 86.4869 92.2024C85.4714 92.2676 84.4554 92.145 83.4446 92.2877C82.3454 92.4435 81.3104 92.8122 80.2542 93.1359C79.4185 93.3917 78.4952 93.4119 77.7264 93.8374C77.3547 94.0432 76.8954 94.337 76.5616 94.5923C76.1167 94.9327 76.0154 95.1581 75.6659 95.6067C74.4193 97.2071 73.213 98.7075 72.4721 100.657ZM65.6528 130.948C65.5846 130.671 65.5228 130.419 65.4448 130.102C66.1387 130.531 66.1387 130.531 65.6528 130.948ZM60.4084 122.126C60.3228 122.245 59.9634 122.283 59.859 122.18C59.7291 122.053 60.0707 121.558 60.1255 121.452C60.2609 121.557 60.5726 121.898 60.4084 122.126ZM58.9227 118.915C59.0145 118.577 59.1066 118.239 59.1985 117.901C59.3113 118.214 59.8199 118.561 59.8311 118.86C59.8382 119.058 59.0231 118.959 58.9227 118.915ZM59.2176 119.379C60.0138 119.905 60.0971 120.525 60.1208 121.432C59.168 121.116 59.3047 120.191 59.2176 119.379ZM73.0645 83.5849C72.9841 83.8031 72.643 84.4826 72.393 84.0073C72.3132 83.8552 72.8983 83.6475 73.0645 83.5849ZM72.8359 82.8442C73.0327 82.6664 73.4294 82.8876 73.652 82.7439C73.808 82.6431 73.7564 82.541 73.8297 82.4813C73.8443 82.4692 74.0565 82.0387 74.1434 81.9411C74.2969 81.7693 74.6317 81.6622 74.8183 81.5072C75.3397 81.0738 75.6341 80.504 75.9622 79.9246C76.3536 79.2325 76.4784 79.1524 77.1097 78.8355C77.545 78.6171 77.8824 78.3498 78.2366 77.9785C78.6447 77.5509 78.6147 77.2448 78.9498 76.7774C79.1153 76.5467 79.3536 76.5182 79.5464 76.3323C79.7776 76.1097 79.8951 75.7983 80.1088 75.5737C80.2012 75.4765 80.4977 75.4768 80.5535 75.3935C80.6248 75.2883 80.6804 74.8672 80.7472 74.7897C80.8748 74.9625 81.0027 75.1353 81.13 75.3082C81.6332 74.421 82.0004 73.6881 82.8418 73.0976C83.7255 72.4776 84.4883 71.5705 85.4017 71.0154C85.6068 70.8908 86.0252 70.8382 86.182 70.6543C86.4472 70.3433 86.2175 70.0665 86.4109 69.8023C86.6304 69.5027 87.0555 69.7452 87.3345 69.6161C87.6876 69.4527 87.7886 68.9754 88.2432 69.028C86.7484 70.801 86.7672 73.5595 86.6878 75.774C86.6534 76.7282 87.2528 77.2092 86.3679 77.9094C85.6152 78.5051 84.5538 78.3283 83.6639 78.7203C82.5464 79.2126 81.3511 79.4744 80.2109 79.9036C79.0315 80.3472 78.0831 81.1241 76.9481 81.6381C75.9473 82.0911 75.2638 82.7352 74.3483 83.2946C74.008 83.5025 73.4808 83.8044 73.075 83.5559C72.8208 83.4001 72.5042 83.1443 72.8359 82.8442ZM89.7188 67.9782C89.7838 67.7263 91.0597 67.0644 91.3737 66.8484C91.8447 66.5237 92.5421 65.7308 93.0679 66.0458C93.2501 65.3142 93.961 64.5001 94.5892 64.3451C95.286 64.1728 96.4815 63.5737 97.1671 63.0508C97.3673 62.8981 97.4333 62.6747 97.669 62.5315C98.0792 62.282 98.4864 62.4181 98.8815 62.078C98.942 62.0262 99.4888 61.1209 99.5104 61.1296C99.5384 61.2267 99.5639 61.3249 99.5861 61.4236C100.001 61.1929 100.371 61.0094 100.629 60.7151C100.688 60.6483 100.308 60.4747 100.428 60.3425C100.575 60.1806 100.903 60.3616 101.051 60.2079C100.589 62.5069 100.933 65.4661 103.26 66.6315C100.493 66.9314 97.7909 66.0974 94.99 66.6096C93.6494 66.8549 92.2866 67.2574 91.067 67.8756C90.3198 68.2545 89.3644 69.6114 88.6206 68.9526C88.9158 68.558 89.366 68.3129 89.7188 67.9782ZM103.143 61.3642C104.177 60.0955 105.747 59.5936 107.327 60.0479C109.178 60.58 108.397 61.8761 108.118 63.3152C107.584 62.5305 106.427 61.752 105.442 61.7284C104.046 61.6952 104.574 62.8614 105.412 63.2794C106.174 63.659 107.482 63.7648 108.027 64.4553C108.559 65.1272 108.355 66.2259 108.441 67.0183C108.028 66.9568 107.615 66.8952 107.202 66.8337C107.548 64.9845 106.023 64.895 104.601 64.3736C103.164 63.847 101.966 62.808 103.143 61.3642ZM107.777 56.8106V58.5268C107.202 58.1979 106.627 57.8693 106.051 57.5404C106.627 57.2972 107.202 57.0539 107.777 56.8106ZM112.402 70.5234C114.323 71.0453 116.23 71.5975 118.077 72.3176C118.748 72.5792 119.483 72.6716 120.14 72.967C120.766 73.2479 120.859 73.2186 120.637 73.7685C120.013 75.309 118.536 75.0429 117.242 74.8072C115.216 74.4383 113.233 73.9269 111.232 73.4456C109.277 72.9756 107.281 72.6674 105.355 72.0783C103.379 71.4739 101.453 70.9015 99.4201 70.5025C98.8269 70.3859 94.1343 69.9544 94.1698 69.4627C97.1254 69.0777 100.168 69.4569 103.137 69.497C106.222 69.5386 109.409 69.7101 112.402 70.5234ZM109.794 64.5645C109.831 63.5053 109.845 62.4428 109.977 61.3899C110.856 62.4778 111.65 62.8036 112.758 61.7837C113.819 60.8075 114.056 60.2985 115.401 61.2163C116.567 62.0123 117.671 61.9756 118.909 61.2788C119.665 60.8539 120.879 59.1173 121.673 59.4747C122.052 59.6452 122.329 60.332 122.711 60.5847C123.191 60.9012 123.928 61.1209 124.487 61.2437C125.806 61.5336 126.593 60.6826 127.421 59.7724C128.622 58.4524 128.587 59.2191 129.701 60.1343C130.943 61.1552 131.982 60.6564 133.107 59.7852C133.792 61.7981 134.048 63.9963 134.242 66.1065C134.307 66.819 134.551 67.8308 133.913 68.3346C133.463 68.6899 132.508 68.7038 131.966 68.9002C130.029 69.6022 128.169 70.598 126.549 71.873C125.918 72.3697 125.368 72.978 124.506 72.8649C123.684 72.757 122.885 72.0673 122.224 71.6119C121.507 71.1181 120.781 70.5572 119.943 70.282C119.452 70.1207 118.666 70.1791 118.236 69.8834C117.438 69.3338 118.377 67.8921 118.178 66.9243C118.028 66.1895 117.606 64.6575 116.597 65.0882C115.094 65.729 115.969 68.2304 116.795 69.0112C115.105 68.7104 113.234 68.271 111.604 67.7127C110.345 67.2815 109.749 65.8565 109.794 64.5645ZM138.135 69.7235C141.604 68.747 144.85 68.0885 148.46 67.9107C150.058 67.8319 151.605 67.8816 153.186 67.896C154.095 67.9044 154.789 67.1689 154.062 66.3228C153.056 65.1513 149.988 65.5972 148.629 65.5446C144.985 65.4035 141.644 65.8188 138.193 67.023C138.558 66.349 139.434 66.2616 140.035 65.913C140.772 65.4852 141.273 64.7805 141.588 63.9984C142.408 61.9644 141.583 60.0476 140.726 58.1895C142.409 58.6436 144.151 59.6378 145.843 59.8903C146.198 59.9431 146.426 59.9091 146.74 60.0387C146.932 60.1181 146.993 60.3927 147.232 60.4527C147.347 60.4818 147.625 60.2204 147.755 60.2574C148.27 60.4035 147.863 60.4422 148.189 60.6538C148.447 60.8216 148.427 61.0377 148.901 60.9583C149.111 60.9235 149.339 60.5972 149.45 60.5883C149.592 60.5768 149.559 60.4045 149.775 60.4548C150.168 60.5464 150.133 61.0542 150.264 61.304C150.404 61.57 150.206 61.9238 150.63 62.0694C150.947 62.1783 151.026 61.8426 151.296 61.8667C151.46 61.8813 151.799 62.1178 151.944 62.2618C152.41 62.7258 153.048 63.2383 153.674 63.5402C153.612 63.4781 153.969 63.3286 153.884 63.2935C153.826 63.2702 154.201 63.3608 154.195 63.3595C154.557 63.442 154.748 63.9987 154.931 64.2016C155.267 64.5737 155.789 64.9665 156.26 65.1306C157.075 65.4147 157.05 65.0751 157.347 66.0455C157.926 65.1327 158.148 66.6614 158.867 66.8298C159.239 66.917 159.195 66.7572 159.533 66.9523C159.765 67.0861 159.92 67.4959 160.095 67.6936C160.17 67.4085 160.245 67.123 160.32 66.8381C160.837 67.8206 161.954 69.3786 163.178 69.0969C163.178 69.365 163.068 69.6855 163.275 69.9143C163.419 70.0743 163.654 69.8926 163.767 69.9856C163.865 70.0667 164.102 70.3899 164.177 70.443C164.326 70.5478 164.597 70.6242 164.726 70.7287C164.84 70.8206 164.897 71.2597 165.023 71.4184C165.261 71.7166 165.672 71.7758 165.867 72.1335C165.911 71.7808 165.955 71.4278 165.999 71.0751C166.385 71.3739 166.418 71.6059 166.513 72.0429C166.648 72.6653 166.469 72.5195 166.897 72.7821C167.318 73.0406 167.537 73.0115 167.923 73.4598C168.301 73.8992 168.305 74.1699 168.85 73.7122C168.952 74.0508 168.985 74.4888 169.255 74.7483C169.46 74.9445 170.307 74.9528 170.388 75.416C168.796 74.0694 169.844 76.1147 170.389 75.4195C170.504 76.1636 171.048 76.404 171.668 76.934C172.246 77.4278 172.341 77.392 172.539 78.2218C172.534 78.2034 172.83 78.387 172.851 78.4236C172.287 78.5043 173.161 79.1359 173.309 79.2513C173.417 79.3357 173.557 79.1343 173.736 79.2707C173.941 79.4268 174.108 79.7816 174.275 79.9955C174.726 80.5755 175.061 81.0738 175.536 81.5454C176.049 82.0544 176.299 82.6978 176.791 83.2927C177.338 83.9534 177.634 84.713 178.091 85.4302C178.525 86.1123 179.102 86.6598 179.605 87.2843C180.407 88.2783 180.68 90.4674 182.175 90.525C182.087 90.6158 182.209 91.2943 182.224 91.4195C182.294 92.0356 182.247 92.6284 182.611 93.1864C182.694 92.5499 183.026 92.7952 183.315 93.1296C183.795 93.686 183.374 93.5459 183.399 94.1097C183.43 94.7931 183.507 94.2644 183.767 94.8612C183.97 95.3286 184.082 95.6318 184.191 96.1505C183.346 96.2176 182.959 95.5258 182.647 94.8554C182.517 94.575 182.472 94.1141 182.241 93.895C181.995 93.6617 181.657 93.6433 181.404 93.3831C180.92 92.8829 180.709 92.1031 180.138 91.6164C179.492 91.0665 179.349 90.8067 178.816 90.1492C178.225 89.4221 177.41 88.9115 176.791 88.2081C176.17 87.5035 176.221 87.8882 175.441 87.6331C174.613 87.3616 173.273 84.7496 172.229 85.7557C172.27 85.0976 171.287 84.4786 170.79 84.2401C170.575 84.1372 170.325 84.2304 170.11 84.0759C169.877 83.9083 169.861 83.5852 169.625 83.3841C169.626 83.3844 169.265 83.4718 169.192 83.4349C169.043 83.3592 169.042 83.0916 168.91 83.0036C168.547 82.7599 168.113 82.5043 167.727 82.2966C166.788 81.7921 165.959 81.1707 165.053 80.5632C164.278 80.0427 163.339 79.1026 162.442 78.8282C161.659 78.5886 161.166 78.7106 160.525 78.2307C160.176 77.9693 160.279 77.8816 159.717 77.719C159.183 77.5643 158.883 77.6439 158.599 77.0756C158.104 76.0814 158.417 74.1408 158.321 73.0259C158.219 71.8426 158.098 70.63 157.791 69.4794C157.427 68.1196 156.946 67.4087 155.491 67.729C152.608 68.3642 149.76 68.9685 146.865 69.5263C141.094 70.6376 135.423 72.4511 129.779 74.0612C129.349 74.184 126.951 74.7345 127.441 73.4912C127.667 72.9178 129.185 72.7041 129.693 72.5239C132.482 71.5341 135.284 70.5258 138.135 69.7235ZM137.166 67.193C136.744 67.354 136.323 67.515 135.902 67.6763V66.5014C136.323 66.7318 136.744 66.9623 137.166 67.193ZM135.414 60.9806C135.781 61.2807 136.525 60.5585 136.837 60.4121C137.368 60.1623 138.046 59.9479 138.64 59.9992C139.736 60.0942 140.537 61.1759 140.336 62.2726C139.997 64.128 137.36 65.0055 135.906 65.7308C135.859 65.0733 135.647 64.2828 136.107 63.714C136.506 63.2202 137.28 63.2561 137.649 62.7308C138.576 61.4105 136.063 61.2909 135.502 62.3406C135.28 61.6698 135.058 60.9989 134.837 60.3281C135.372 60.2393 135.137 60.7533 135.414 60.9806ZM138.008 57.3487C137.485 57.6878 136.962 58.0269 136.439 58.366C136.179 57.1922 137.063 57.0377 138.008 57.3487ZM185.682 98.2055C184.997 98.5334 184.826 97.7504 184.333 97.7167C184.915 97.3579 184.915 97.3579 185.682 98.2055ZM188.469 115.3C188.554 116.425 188.487 117.563 188.637 118.684C188.75 119.537 189.095 120.33 189.132 121.192C189.212 123.081 188.576 125.004 187.292 126.388C186.076 127.698 184.338 128.825 182.698 129.375C181.959 129.623 181.187 130.173 180.469 130.376C179.675 130.601 178.92 130.112 178.265 130.989C177.829 127.224 178.148 123.29 178.113 119.502C178.079 115.705 178.12 111.907 177.479 108.151C176.908 104.806 175.784 101.043 173.71 98.3066C172.868 97.1953 171.831 96.2851 170.738 95.4331C170.17 94.9911 169.603 94.5184 168.971 94.1694C167.998 93.6321 167.17 93.7064 166.112 93.5533C164.598 93.3341 163.191 93.149 161.672 93.5763C160.257 93.9743 158.699 94.4276 157.432 95.1189C156.17 95.8078 154.705 96.0916 153.395 96.7085C152.503 97.1283 150.652 98.5305 149.663 98.2781C148.706 98.0335 147.289 96.4048 146.678 95.6753C145.897 94.7428 145.25 93.6622 144.558 92.6591C144.314 92.3069 143.818 91.7625 143.755 91.3103C143.645 90.5252 143.959 90.7819 144.707 90.8696C146.63 91.0958 148.439 91.4535 150.282 92.0605C151.2 92.3624 152.993 93.5842 153.911 92.852C155.311 91.7342 153.183 89.813 152.404 89.1676C151.075 88.0678 149.531 87.2511 148.115 86.2739C146.611 85.2354 144.623 84.1299 143.655 82.5307C146.481 83.3673 149.305 84.3255 152.049 85.404C153.305 85.8973 154.546 86.4187 155.725 87.0749C156.387 87.4433 157.725 88.4399 158.523 87.9625C160.257 86.9248 156.275 83.9112 155.7 83.2953C154.807 82.3383 153.932 81.3904 152.951 80.5221C152.289 79.9363 151.249 79.5245 150.941 78.6604C152.04 79.0592 152.928 79.8402 153.957 80.371C154.496 80.6491 154.988 80.8091 155.583 80.8942C156.217 80.9853 156.292 81.0866 156.792 81.3393C157.181 81.5365 157.581 81.7999 158.018 81.934C158.329 82.0296 158.873 82.0461 159.145 82.2231C159.285 82.4221 159.428 82.6177 159.577 82.8099C159.743 82.8588 159.906 82.9151 160.067 82.9793C160.308 83.1951 160.451 83.4925 160.686 83.7151C162.39 85.3307 164.67 86.487 166.58 87.8405C168.388 89.121 170.306 90.2794 172.042 91.6769C174.04 93.2854 176.113 95.0141 177.813 96.9429C178.773 98.033 179.562 99.2689 180.369 100.474C180.953 101.347 181.803 102.071 182.307 102.971C183.408 104.933 184.322 107.054 185.507 108.984C186.714 110.951 188.287 112.906 188.469 115.3ZM172.229 126.684C172.558 125.323 174.415 123.733 175.602 123.132C175.004 124.616 173.41 125.628 172.229 126.684ZM175.292 131.434C174.279 133.54 169.828 133.781 170.432 130.665C170.728 129.138 171.984 128.201 173.062 127.202C173.56 126.74 174.781 125.088 175.553 125.354C175.516 126.542 175.447 127.734 175.449 128.922C175.451 129.715 175.65 130.689 175.292 131.434ZM174.005 107.163C174.416 108.088 174.825 108.858 174.063 109.686C173.719 110.059 172.599 110.876 172.092 110.695C170.465 110.113 173.567 107.579 174.005 107.163ZM164.163 98.9345C164.555 98.913 164.936 98.9714 165.323 98.9476C165.709 98.9235 165.749 98.8549 166.107 98.9039C166.145 98.9589 166.182 99.0139 166.22 99.0688C166.269 99.4378 166.462 99.4779 166.8 99.1893C167.269 99.294 167.575 99.364 168.024 99.6182C166.812 100.494 165.337 101.512 163.852 101.806C161.504 102.271 162.153 99.0455 164.163 98.9345ZM128.17 118.631C127.927 119.122 127.227 117.896 127.054 117.667C127.377 117.666 128.417 118.136 128.17 118.631ZM147.035 105.707C148.859 104.64 151.026 103.703 152.985 102.908C153.329 104.572 151.649 106.72 150.614 107.859C149.778 108.78 148.769 109.735 147.634 110.265C146.408 110.838 145.067 110.586 145.126 108.978C145.148 108.391 145.282 107.445 145.52 106.908C145.828 106.216 146.409 106.072 147.035 105.707ZM122.377 75.438C122.648 75.4221 125.598 75.0398 125.582 75.4077C125.536 76.5135 122.673 75.6452 122.377 75.438ZM101.521 96.7892C103.079 94.8622 105.594 92.7824 105.631 90.0893C105.685 86.1264 101.298 88.1037 99.0926 88.2684C100.259 87.1196 106.119 82.3003 102.653 80.5886C101.656 80.0966 100.24 80.5773 99.2406 80.835C97.4667 81.2925 95.8173 82.0846 94.0748 82.6357C95.3199 81.3069 97.4714 79.7965 97.401 77.7839C97.3148 75.3341 95.309 75.9264 93.5745 76.2859C92.908 76.4242 89.9305 77.6117 89.3712 76.8054C89.1663 76.5101 89.4978 76.1348 89.568 75.8719C89.6919 75.4066 89.6536 75.2443 89.6577 74.769C89.6664 73.8101 90.3018 72.5789 89.7835 71.6871C89.665 71.8897 89.5635 72.1005 89.4792 72.3197C89.3083 71.8007 89.4231 71.2503 89.2522 70.7313C93.5823 71.8416 97.9874 72.4493 102.345 73.3969C104.55 73.8766 106.627 74.7028 108.863 75.0746C111.118 75.4493 113.334 76.023 115.593 76.3804C117.654 76.7064 119.629 77.2493 121.671 77.6656C123.661 78.0715 125.701 77.182 127.644 76.7316C131.994 75.7229 136.342 74.6897 140.698 73.7109C145.725 72.581 150.954 71.6151 155.765 69.7308C155.859 72.2422 156.059 74.7489 156.365 77.243C154.24 76.2359 151.087 74.9227 148.939 76.7248C148.079 77.4456 147.814 78.6905 148.154 79.7491C148.524 80.9015 149.657 81.4367 150.404 82.3042C148.129 81.7195 142.261 77.5973 141.216 81.764C140.478 84.707 144.077 86.608 145.837 88.2644C144.089 87.9214 141.749 86.5208 140.723 88.7719C139.836 90.718 140.904 92.8355 141.998 94.4407C142.591 95.3103 143.258 96.1288 143.888 96.9714C144.222 97.4171 144.547 97.869 144.897 98.3016C145.249 98.7355 145.911 99.1898 146.157 99.6567C146.653 100.598 145.653 100.656 144.875 100.996C143.904 101.421 143.07 102.134 142.182 102.703C140.149 104.004 138.371 105.213 135.968 105.629C133.494 106.057 131.112 106.505 128.671 107.102C126.237 107.697 124.25 108.269 121.762 107.5C120.628 107.149 119.704 106.837 118.501 106.903C117.237 106.972 116.498 106.907 115.459 106.122C110.988 102.746 106.136 99.9762 101.521 96.7892ZM93.4612 93.4001C95.1892 92.531 96.9286 91.6575 98.7134 90.9107C100.191 90.2922 102.434 89.5719 104.051 89.8429C103.596 91.017 102.764 91.9803 101.871 92.845C101.082 93.6096 100.096 94.7635 99.1412 95.2972C98.2739 95.7816 97.265 95.0144 96.4098 94.6928C95.47 94.3399 94.1768 94.1752 93.4612 93.4001ZM93.8955 97.785C94.7565 97.4263 96.6071 98.63 97.3903 98.9429C98.9292 99.5582 100.477 100.201 101.833 101.171C100.177 103.09 98.3013 104.845 96.0726 106.077C94.6061 106.888 92.1347 107.818 90.7515 106.346C89.0136 104.496 91.1028 100.726 92.333 99.1401C92.3737 99.4113 92.4147 99.6824 92.4557 99.9536C92.8482 99.3236 93.1478 98.0966 93.8955 97.785ZM125.506 114.208C124.432 114.435 124.067 114.23 123.358 113.404C122.879 112.846 122.408 112.266 121.867 111.764C121.315 111.252 119.953 110.017 121.689 110.728C123.271 111.376 124.626 111.7 126.367 111.446C128.357 111.156 130.213 110.313 132.175 109.886C131.099 110.829 130.031 111.782 128.953 112.723C127.815 113.718 126.953 113.903 125.506 114.208ZM125.752 121.798C123.398 123.574 118.659 123.382 120.254 119.474C120.496 118.881 120.835 118.322 121.227 117.816C121.358 117.648 121.591 117.298 121.777 117.184C122.298 116.868 122.154 116.83 122.654 117.357C123.086 117.813 126.461 121.533 125.752 121.798ZM125.054 115.008C125.27 114.938 126.178 114.41 126.385 114.702C126.595 114.998 124.814 116.021 125.054 115.008ZM142.192 142.095C141.663 143.365 137.427 145.203 138.216 142.644C138.565 141.51 138.895 140.651 140.214 140.565C140.975 140.516 142.658 140.977 142.192 142.095ZM149.791 124.888C150.488 123.87 152.791 122.494 153.774 124.012C154.248 124.743 153.099 125.118 152.403 124.93C152.03 124.829 151.725 124.605 151.319 124.588C150.797 124.567 150.287 124.977 149.791 124.888ZM151.64 125.899C151.165 126.38 148.305 128.793 147.842 128.421C148.776 127.082 149.849 125.587 151.64 125.899ZM146.969 150.314C145.976 150.37 146.472 148.87 146.568 148.27C146.808 148.688 148.072 150.251 146.969 150.314ZM149.492 147.625C149.171 147.052 148.305 146.198 148.501 145.461C148.651 144.897 150.002 144.139 150.568 144.463C151.319 144.893 150.23 147.72 149.492 147.625ZM173.057 141.615C172.632 143.082 172.192 142.704 170.86 142.988C169.523 143.273 168.6 144.411 167.423 145.021C167.832 144.155 168.085 143.099 168.769 142.396C168.928 142.234 169.897 141.914 169.345 141.538C168.862 141.209 168.167 142.275 167.96 142.566C166.941 143.997 166.228 145.743 165.64 147.389C165.35 148.198 165.119 149.021 164.982 149.87C164.86 150.627 164.991 151.418 164.867 152.155C164.666 153.342 163.059 153.348 162.092 153.654C161.217 153.931 160.345 154.231 159.437 154.38C158.649 154.51 157.832 154.274 157.068 154.429C156.242 154.598 155.87 155.09 154.931 154.978C154.165 154.888 153.448 154.535 152.672 154.499C151.945 154.467 151.221 154.719 150.498 154.513C149.77 154.306 149.805 154.226 149.97 153.508C150.074 153.702 150.178 153.896 150.282 154.089C150.572 153.861 150.773 153.165 150.951 152.838C151.227 152.331 151.452 152.156 151.35 151.525C151.199 150.594 150.361 149.931 150.171 149.045C149.973 148.12 150.655 147.364 151.058 146.592C151.609 145.536 151.602 144.752 151.14 143.66C151.488 143.752 151.836 143.844 152.185 143.936C151.707 142.898 150.089 143.319 149.277 143.626C148.869 143.781 148.223 144.389 147.784 144.373C147.181 144.352 146.866 143.557 146.607 143.119C145.857 141.853 145.001 140.602 144.113 139.426C143.869 139.102 143.55 138.894 143.634 138.526C143.706 138.213 144.405 137.77 144.632 137.577C145.483 136.855 146.566 136.456 147.366 135.696C148.574 134.549 149.967 133.727 151.202 132.602C152.489 131.43 153.814 130.354 155.155 129.246C156.513 128.125 157.69 126.803 159.038 125.67C159.388 126.305 160.064 128.578 160.838 128.754C161.741 128.958 161.714 127.888 161.669 127.244C161.605 126.326 161.097 125.434 161.04 124.558C160.979 123.621 161.879 123.202 162.557 122.66C163.606 121.822 165.926 119.915 164.679 118.345C163.604 116.993 160.111 119.585 159.147 120.365C158.329 121.027 157.697 121.627 156.775 122.149C156.127 122.516 155.04 123.929 154.272 123.798C153.358 123.643 153.001 122.643 151.884 122.676C150.792 122.708 149.864 123.497 149.187 124.289C147.656 126.078 147.129 128.473 145.734 130.339C145.046 131.259 144.154 132.018 143.408 132.888C142.588 133.844 142.414 134.944 141.606 135.879C139.294 132.791 136.775 129.867 134.337 126.88C133.119 125.388 131.926 123.879 130.735 122.367C130.288 121.8 129.785 121.268 129.376 120.672C128.816 119.857 128.916 119.202 128.696 118.293C128.599 117.89 128.143 117.407 128.265 117.022C128.429 116.504 129.583 116.098 130 115.886C131.699 115.021 133.241 113.94 134.826 112.883C137.761 110.926 140.731 109.091 143.852 107.42C143.798 108.14 143.331 108.886 143.645 109.609C143.791 109.193 144.023 107.341 144.576 107.262C144.47 107.277 144.557 109.636 144.643 109.973C144.898 110.978 145.64 111.666 146.7 111.659C148.72 111.646 150.53 109.443 151.651 107.984C152.41 106.996 153.14 105.847 153.407 104.61C153.647 103.5 153.383 102.728 154.534 102.164C156.896 101.008 159.277 100.065 161.803 99.4519C161.69 100.543 161.374 101.887 162.364 102.672C163.456 103.538 164.885 102.766 165.913 102.193C166.932 101.625 168.503 100.066 169.699 100.519C170.876 100.964 171.695 102.444 172.353 103.426C172.934 104.292 173.565 104.917 172.893 105.882C172.14 106.964 171.649 108.019 171.046 109.194C170.814 109.646 170.592 109.941 170.756 110.403C170.81 110.554 171.415 111.448 171.579 111.576C172.627 112.394 174.042 110.838 174.79 110.248C175.054 112.79 175.113 115.322 175.22 117.872C175.298 119.74 176.019 121.579 174.49 122.944C172.961 124.309 171.685 125.711 170.754 127.559C170.256 128.547 169.81 129.56 169.271 130.527C168.912 131.173 168.153 132.12 168.617 132.881C169.107 132.415 169.253 131.706 169.661 131.181C169.906 132.271 170.152 133.481 171.303 133.943C172.626 134.475 173.942 133.555 175.115 133.043C174.694 135.959 173.874 138.792 173.057 141.615ZM171.704 144.966C170.795 146.913 169.974 149.261 168.297 150.694C167.928 151.009 166.363 152.238 165.767 152.032C165.261 151.857 165.54 150.833 165.628 150.394C166.075 148.166 166.848 146.764 168.65 145.342C169.396 144.754 170.354 144.002 171.315 143.857C172.351 143.701 172.053 144.218 171.704 144.966ZM197.333 191.179C194.977 187.967 191.647 185.471 188.501 183.058C187.076 181.965 185.505 181.146 184.065 180.053C182.437 178.817 180.783 177.625 178.96 176.693C175.502 174.927 171.731 173.696 168.468 171.607C166.877 170.589 165.136 169.604 163.64 168.461C162.983 167.958 162.403 167.316 161.809 166.741C161.257 166.206 160.073 165.43 159.853 164.648C160.771 164.497 161.294 163.604 162.113 163.513C162.383 163.483 164.074 163.931 163.843 163.109C164.457 163.093 164.528 163.084 165.042 162.949C165.255 162.894 165.508 162.981 165.723 162.904C166.052 162.788 166.276 162.451 166.609 162.322C166.846 162.23 167.724 162.333 167.857 162.219C168.22 161.907 167.834 161.935 167.617 161.546C168.324 161.528 168.809 161.886 169.517 161.505C169.733 161.389 169.915 161.122 170.124 160.984C170.495 160.738 170.629 161.119 170.883 160.609C171.12 161.313 171.114 161.118 171.686 160.911C172.256 160.705 172.668 160.556 173.318 160.505C174.869 160.382 176.427 160.571 177.971 160.46C178.536 160.419 179.019 160.291 179.58 160.365C180.075 160.43 179.926 160.775 180.337 160.311C180.432 160.203 180.123 159.907 180.271 159.752C180.337 159.684 180.549 159.732 180.63 159.697C181.352 159.381 181.355 159.822 181.483 160.397C181.907 160.298 182.339 160.208 182.707 159.959C182.521 159.793 182.21 159.609 182.389 159.305C183 159.537 183.399 159.43 183.094 160.102C183.709 160.306 183.823 160.041 184.375 159.982C184.702 159.948 185.158 160.151 185.43 159.89C185.727 159.605 185.258 159.295 185.803 159.049C185.915 159.106 185.998 159.192 186.052 159.307C186.347 159.397 186.294 159.513 185.894 159.656C186.966 160.214 186.714 159.59 187.165 158.931C187.269 158.779 187.735 158.307 187.947 158.535C188.269 158.881 187.612 158.991 187.753 159.335C187.997 159.931 188.849 159.167 189.111 158.865C189.309 158.637 189.39 158.2 189.603 158.029C189.899 157.792 190.326 158.158 190.697 158.093C192.392 157.795 193.993 155.51 192.716 153.98C192.373 153.569 192.082 153.651 191.673 153.391C191.269 153.135 191.042 152.692 190.718 152.325C189.977 151.489 189.07 150.863 188.035 150.462C185.633 149.533 183.044 148.856 180.522 148.357C179.354 148.126 178.11 147.773 176.914 147.776C176.21 147.777 175.149 148.326 174.49 148.063C173.209 147.551 175.089 144.932 175.4 144.086C176.311 141.601 176.999 138.951 177.45 136.342C177.538 135.832 177.504 135.17 177.687 134.684C177.898 134.124 177.943 134.203 178.394 134.158C179.208 134.075 180.099 134.504 180.946 134.356C181.886 134.192 182.902 134.268 183.851 133.976C184.287 133.843 184.691 133.697 184.978 133.328C185.069 133.212 184.968 133.112 185.025 133.031C185.043 133.005 185.367 132.654 185.378 132.634C185.374 132.453 185.39 132.273 185.425 132.094C185.754 132.368 185.592 132.942 186.146 132.955C186.245 132.343 186.246 132.22 186.646 131.876C186.616 131.902 186.948 131.619 186.905 131.649C186.925 131.54 186.965 131.438 187.025 131.344C187.212 131.253 187.41 131.205 187.618 131.2C188.051 130.753 187.872 130.515 187.872 129.914C188.221 130.096 188.57 130.278 188.92 130.46C189.004 128.68 190.086 127.705 190.804 126.262C191.11 125.648 191.422 125.167 191.495 124.425C191.537 123.998 191.427 123.62 191.604 123.217C191.764 122.851 192.123 122.654 192.273 122.256C192.568 121.471 192.348 120.47 192.364 119.656C192.386 118.527 192.499 117.401 192.535 116.272C192.608 114.056 192.385 111.779 192.055 109.588C191.897 108.541 191.632 107.524 191.424 106.488C191.253 105.635 190.844 104.836 190.698 104.044C190.637 103.714 190.731 103.419 190.632 103.054C190.502 102.576 190.283 102.105 190.121 101.634C189.742 100.536 189.367 99.4391 188.941 98.3577C188.115 96.2618 187.148 94.2288 186.23 92.1733C185.346 90.1966 184.614 88.1587 183.47 86.3129C182.342 84.4949 181.128 82.7075 179.886 80.9672C178.592 79.155 176.955 77.5978 175.7 75.7688C173.344 72.3346 170.057 69.5048 166.618 67.1681C159.521 62.3459 151.853 57.5313 143.344 55.8779C142.061 55.6289 140.762 55.4561 139.455 55.4239C138.645 55.4037 137.301 55.7968 136.533 55.5216C135.673 55.2134 135.752 54.2451 135.537 53.4854C135.26 52.509 134.635 51.8693 133.926 51.1791C133.18 50.4524 132.502 49.6038 131.571 49.1097C130.628 48.6093 129.515 48.4221 128.47 48.2707C127.537 48.1353 126.142 48.2618 125.29 47.8541C124.513 47.4825 124.897 47.0958 125.624 47.4139C125.677 47.0924 125.72 46.8847 125.926 46.6363C126.029 46.5114 126.516 46.3362 126.528 46.2197C126.542 46.0832 126.133 45.6946 126.074 45.5187C125.949 45.1398 126.02 44.615 126.169 44.2595C126.902 44.9128 127.115 45.2021 127.933 44.5776C128.279 44.3139 128.385 44.1977 128.785 44.0646C128.894 44.0285 129.137 44.14 129.232 44.0775C129.594 43.8387 129.261 43.895 129.433 43.6127C129.39 43.6839 129.694 42.9337 129.679 43.0906C129.716 42.691 129.834 42.8138 129.593 42.3228C129.122 41.3624 127.922 41.3231 128.534 40.227C128.774 39.7957 128.986 39.8387 129.054 39.2134C129.09 38.8772 129.045 38.4917 129.043 38.1497C129.041 37.4503 129.172 36.9607 128.518 36.6046C127.89 36.2621 127.31 36.6378 127.055 35.7884C126.788 34.897 127.057 33.7543 126.094 33.144C125.39 32.698 124.374 33.0793 123.596 32.8612C122.817 32.6428 122.1 31.8434 121.309 32.4571C120.748 32.8934 120.449 33.9659 119.39 33.3859C118.913 33.1243 118.649 32.2461 118.348 31.7536C117.868 30.9685 117.483 30.685 116.744 31.4495C116.289 31.9211 115.328 33.0691 115.27 33.7219C115.205 34.4425 115.832 34.7436 115.045 35.1699C114.262 35.5941 113.822 35.283 113.186 36.144C112.556 36.9981 113.044 37.47 112.313 38.2872C111.4 39.3087 110.914 39.7496 110.927 41.1259C110.936 42.0699 110.104 42.8853 110.589 43.7808C111.133 44.7845 112.721 45.2018 113.683 45.6103C113.362 46.2055 112.921 46.587 113.296 47.1998C113.636 47.7546 114.596 47.8698 115.192 47.769C115.592 47.7015 115.606 47.7622 115.922 47.4799C116.128 47.2951 115.845 47.0644 116.27 46.962C116.722 46.8525 117.445 47.7418 117.739 47.9641C117.082 48.8185 115.279 48.9782 114.325 49.4113C113.743 49.6755 113.209 50.0662 112.616 50.3024C112.079 50.5166 111.426 50.4668 110.939 50.7983C110.098 51.3707 109.748 52.7889 109.232 53.6226C108.649 54.5663 108.083 55.0047 106.963 55.2005C105.566 55.4448 104.442 55.543 103.139 56.1529C101.548 56.8976 99.9805 57.6839 98.4182 58.4867C95.8982 59.7816 93.5575 61.1107 91.2176 62.6768C88.7696 64.3155 86.3885 66.0259 84.0266 67.7381C81.6904 69.4315 79.7288 71.5148 77.6995 73.5627C76.059 75.2181 74.6194 77.0049 72.9852 78.6598C71.056 80.614 69.6371 83.0804 67.8484 85.1534C66.8697 86.2875 65.9333 87.4027 65.3192 88.7387C64.8215 89.8217 63.9561 90.8842 63.3783 92.0204C62.64 93.4731 61.9414 94.9026 61.1125 96.3071C60.7725 96.8835 60.3682 97.3781 60.0094 97.9282C59.5495 98.6329 59.5767 99.3134 59.453 100.126C59.3238 99.9275 59.1949 99.7292 59.0657 99.5313C58.8316 100.044 58.5484 100.548 58.3456 101.073C58.2162 101.408 58.2365 101.884 58.1066 102.177C57.9435 102.545 57.7449 102.496 57.5416 102.802C57.3242 103.13 57.2542 103.57 57.0251 103.921C56.0347 105.44 55.6536 107.367 55.1447 109.1C54.462 111.425 54.5698 114.097 54.6069 116.494C54.6463 119.026 54.7843 121.559 55.1641 124.064C55.508 126.333 56.2435 128.509 57.3949 130.499C58.3981 132.232 59.7815 133.242 61.5536 134.13C62.3673 134.538 63.1226 134.412 63.9768 134.477C64.9124 134.548 65.5504 134.803 66.5403 134.579C67.0153 134.471 67.24 134.125 67.6174 134.009C67.851 133.938 67.9768 134.054 68.2009 134.027C68.5217 133.988 69.1887 133.831 69.5366 133.869C70.6189 133.987 70.4373 135.627 70.5437 136.465C70.7076 137.755 70.8277 139.059 71.0487 140.341C71.5135 143.038 72.517 145.557 73.1099 148.207C70.3613 148.543 68.0036 149.057 65.4275 150.1C62.8431 151.146 60.2302 151.501 57.5102 152.021C54.9657 152.508 52.5183 153.417 50.4816 155.064C49.5269 155.836 48.5352 156.739 49.2362 158.009C49.6846 158.822 50.4926 159.029 51.1901 159.501C51.3311 159.322 50.9234 158.943 50.8488 158.838C51.4352 158.959 51.4172 159.234 51.8455 159.472C52.2197 159.681 52.5261 159.674 52.9358 159.821C53.9362 160.181 54.4276 161.08 55.4164 161.333C55.7275 161.412 56.1344 161.602 56.4525 161.656C56.8346 161.721 57.1206 161.553 57.5079 161.624C57.7169 161.762 57.9429 161.861 58.1859 161.92C58.3451 161.846 58.5025 161.767 58.6575 161.685C59.2139 161.743 59.5576 162.094 60.0096 162.382C60.0399 162.019 59.9963 161.642 60.3392 161.405C60.4731 161.758 60.2568 161.981 60.6221 162.224C61.0851 162.533 61.6932 162.148 62.1076 161.953C62.2248 163.127 64.9358 163.058 65.7952 163.041C66.9853 163.018 68.1741 162.545 69.3746 162.809C69.9871 162.943 70.6408 163.084 71.2505 163.259C71.9846 163.469 72.8722 163.657 73.5948 163.923C73.8822 164.028 74.2342 164.366 74.5401 164.343C74.7836 164.325 74.8488 163.965 75.1322 163.975C75.453 163.987 75.5608 164.345 75.8384 164.453C76.2539 164.614 76.636 164.308 77.0309 164.462C77.1728 164.518 77.3652 164.757 77.5468 164.834C77.8227 164.952 78.3684 164.954 78.6753 165.01C79.1103 165.091 79.5 165.037 79.8726 165.064C80.1733 165.085 80.1668 165.288 80.3106 165.301C80.4755 165.316 80.7628 164.747 80.9844 164.664C81.3072 164.543 81.8931 164.832 82.2222 164.883C79.8374 168.124 76.962 170.988 73.8451 173.496C70.4829 176.202 67.0401 178.904 63.4347 181.277C60.1613 183.432 56.9925 185.295 54.4545 188.337C52.3144 190.902 48.9079 193.646 49.433 197.363C49.9578 201.078 53.9808 202.589 57.2044 203.298C61.2587 204.19 65.4322 203.831 69.4975 204.333C71.2311 204.546 73.1574 204.432 74.9026 204.25C76.9638 204.035 78.7303 202.686 80.5024 201.711C83.6897 199.957 86.4148 197.61 89.5544 195.801C93.4852 193.536 97.3749 191.136 101.684 189.62C103.689 188.914 105.753 188.108 107.371 186.657C107.611 186.441 107.79 186.115 108.062 185.937C108.525 185.634 108.649 185.941 108.917 185.849C109.123 185.779 109.323 185.555 109.502 185.488C109.954 185.318 110.156 185.389 110.662 185.389C110.227 185.137 109.83 184.49 110.281 183.962C111.053 183.058 111.186 184.503 111.476 184.837C111.722 184.521 111.628 184.239 111.565 183.879C111.773 184.016 111.981 184.153 112.189 184.291C112.045 183.594 112.182 182.953 112.55 182.345C112.889 181.786 112.973 181.865 113.067 181.089C114.122 182.054 114.328 179.711 114.423 178.857C114.515 178.029 114.424 177.434 114.967 176.71C115.55 175.932 116.437 175.441 117.178 174.837C118.348 173.882 119.634 172.677 121.252 173.592C122.529 174.315 123.224 176.087 124.422 176.997C125.148 177.55 125.915 177.606 126.379 178.462C126.753 179.154 126.875 179.983 127.228 180.694C128.085 182.417 129.318 184.389 130.725 185.711C132.034 186.942 133.715 186.935 135.247 187.698C136.764 188.454 138.34 189.273 139.946 189.82C141.699 190.418 143.59 190.672 145.298 191.397C146.176 191.77 146.961 192.331 147.847 192.688C148.803 193.073 149.809 193.344 150.777 193.696C154.614 195.093 158.368 196.806 162.398 197.581C164.185 197.924 165.84 198.857 167.641 199.053C168.413 199.137 169.043 199.244 169.799 199.438C170.984 199.742 170.733 199.903 171.17 200.894C171.888 202.526 173.643 201.56 174.996 201.6C177.161 201.666 179.293 201.315 181.455 201.298C185.235 201.269 188.875 200.842 192.533 199.598C196.204 198.349 200.384 195.338 197.333 191.179Z" fill="black"/>
<path fill-rule="evenodd" clip-rule="evenodd" d="M153.633 63.699C153.685 63.7512 153.807 63.7829 153.633 63.699V63.699Z" fill="black"/>
<path fill-rule="evenodd" clip-rule="evenodd" d="M87.0417 133.191C87.8629 132.357 91.3564 132.526 91.6204 134.018C91.9148 135.683 88.7932 138.199 87.6509 138.905C86.1807 139.812 84.3862 139.982 84.6469 137.703C84.844 135.982 85.8726 134.379 87.0417 133.191ZM89.9268 131.474C90.0334 131.935 89.2482 131.778 89.0321 131.669C88.9301 131.459 89.8203 131.011 89.9268 131.474ZM83.9024 134.528C84.5993 134.591 85.3975 133.471 85.9233 133.089C86.1557 133.449 84.6234 135.428 84.4549 135.88C84.0339 137.008 83.7997 138.434 84.3736 139.559C86.0509 142.848 90.3437 138.151 91.4174 136.511C92.1686 135.363 92.6887 133.941 91.6276 132.816C91.2499 132.416 90.6258 132.305 90.2748 131.924C89.8128 131.423 90.1765 130.777 89.2477 130.886C88.6069 130.962 87.8374 131.541 87.2144 131.751C86.4635 132.004 85.7885 132.266 85.133 132.734C84.9853 132.84 83.0415 134.451 83.9024 134.528Z" fill="black"/>
<path fill-rule="evenodd" clip-rule="evenodd" d="M133.15 135.632C132.712 137.892 130.478 140.21 128.128 140.3C125.788 140.389 125.03 137.931 125.443 135.972C125.796 134.301 127.236 131.398 129.291 131.718C130.907 131.969 133.525 133.695 133.15 135.632ZM131.659 131.856C130.175 130.704 128.125 130.172 126.405 131.085C125.842 131.385 123.591 132.705 124.276 133.599C125.199 132.882 125.996 131.886 127.197 131.648C126.995 132.58 125.842 133.419 125.436 134.328C124.961 135.389 124.701 136.603 124.779 137.769C124.918 139.845 126.304 141.457 128.451 141.172C130.416 140.911 132.134 139.401 133.072 137.703C134.324 135.436 133.618 133.375 131.659 131.856Z" fill="black"/>
<path fill-rule="evenodd" clip-rule="evenodd" d="M117.879 140.769C116.823 142.337 115.212 143.812 113.349 144.297C110.938 144.924 111.615 142.926 112.336 141.492C112.973 140.225 114.066 138.044 115.731 138.056C116.296 138.059 117.348 138.333 117.843 138.636C118.819 139.233 118.436 139.944 117.879 140.769ZM115.629 137.322C116.008 136.899 117.687 135.083 117.912 136.498C118.394 135.938 118.014 135.473 117.397 135.414C116.652 135.342 115.838 136.174 115.301 136.587C114.195 137.436 113.344 138.306 112.611 139.498C111.803 140.811 109.742 143.779 111.545 145.082C113.494 146.491 116.331 143.889 117.551 142.548C118.332 141.689 119.365 140.429 119.068 139.171C118.704 137.625 116.911 137.463 115.629 137.322Z" fill="black"/>
<path fill-rule="evenodd" clip-rule="evenodd" d="M107.314 112.047C106.223 113.294 104.008 115.112 102.182 114.898C100.517 114.702 101.167 112.829 101.757 111.922C102.642 110.56 103.827 109.281 105.541 109.206C106.28 109.174 107.239 109.189 107.812 109.75C108.594 110.517 107.89 111.388 107.314 112.047ZM107.198 108.581C105.92 108.139 105.418 107.97 104.177 108.673C103.18 109.238 102.295 110.037 101.611 110.943C100.587 112.301 99.5547 115.353 102.184 115.735C105.068 116.154 111.928 110.221 107.198 108.581Z" fill="black"/>
<path fill-rule="evenodd" clip-rule="evenodd" d="M111.128 116.37C110.299 117.219 109.263 117.912 108.081 118.149C108.581 117.03 109.698 114.586 111.022 114.246C111.631 114.088 112.327 114.294 112.277 114.991C112.241 115.495 111.456 116.034 111.128 116.37ZM112.196 113.412C111.509 113.067 111.726 112.831 110.927 113.102C110.297 113.315 109.503 113.685 108.978 114.112C108.692 114.345 107.801 115.17 107.91 115.589C108.108 116.352 108.772 115.183 108.947 114.958C109.246 115.203 107.715 117.399 107.624 117.76C107.285 119.106 108.338 119.249 109.371 118.808C110.764 118.215 114.888 114.764 112.196 113.412Z" fill="black"/>
<path fill-rule="evenodd" clip-rule="evenodd" d="M132.615 149.628C132.718 148.735 132.864 147.792 133.681 147.291C134.417 146.839 135.179 146.905 135.288 147.831C135.389 148.691 134.548 150.219 133.869 150.688C132.922 151.342 132.739 150.527 132.615 149.628ZM133.832 151.658C135.775 150.517 137.001 145.287 133.417 146.753C131.381 147.586 132.13 152.656 133.832 151.658Z" fill="black"/>
<path fill-rule="evenodd" clip-rule="evenodd" d="M117.229 129.97C117.535 129.34 117.886 129.131 118.508 128.855C118.093 129.248 117.67 129.61 117.229 129.97ZM117.677 128.418C117.237 128.86 116.228 129.536 116.369 130.297C116.499 130.991 117.027 130.951 117.507 130.735C118.513 130.281 119.073 128.296 120.126 128.11C118.958 127.368 118.686 127.403 117.677 128.418Z" fill="black"/>
<path fill-rule="evenodd" clip-rule="evenodd" d="M117.832 88.9893C117.888 91.1036 117.937 93.2176 117.984 95.3319C118 96.075 117.823 97.1342 118.046 97.846C118.144 98.1594 119.032 99.5185 119.347 99.6064C120.45 99.9142 120.056 97.1429 120.064 96.4604C120.091 94.1583 120.057 91.8535 120.047 89.5511C120.042 88.3647 120.376 78.4164 118.841 78.4649C118.576 78.4734 117.925 79.6109 117.827 79.8388C117.518 80.555 117.632 81.6166 117.639 82.3799C117.66 84.5821 117.774 86.7874 117.832 88.9893Z" fill="black"/>
<path fill-rule="evenodd" clip-rule="evenodd" d="M127.129 95.1525C127.216 95.737 127.17 96.7118 127.827 97.0149C128.398 97.2784 128.617 96.9649 128.83 96.4751C129.322 95.3482 129.144 93.6256 129.135 92.4605C129.117 90.1516 128.858 87.8523 128.679 85.552C128.6 84.5427 128.763 83.5289 128.638 82.4728C128.582 82.0093 128.527 80.1449 127.67 80.2317C126.895 80.3101 126.965 82.2642 126.923 82.7677C126.572 86.9587 126.511 90.9688 127.129 95.1525Z" fill="black"/>
<path fill-rule="evenodd" clip-rule="evenodd" d="M163.703 143.281C163.374 144.964 158.016 150.826 156.667 147.547C155.867 145.602 157.602 143.485 158.955 142.359C159.792 141.662 160.838 140.979 161.979 141.19C162.948 141.369 163.911 142.212 163.703 143.281ZM160.936 140.262C160.557 140.351 157.394 142.578 157.365 142.549C157.09 142.272 159.085 139.291 159.291 139.03C160.982 136.882 162.105 138.509 163.163 140.197C162.938 139.189 162.318 137.724 161.282 137.298C159.975 136.759 158.955 138.088 158.326 139.044C157.436 140.395 156.946 141.862 156.452 143.386C156.216 144.113 155.948 144.772 155.549 145.427C155.155 146.074 154.466 146.787 154.568 147.605C155.128 147.293 155.425 146.683 155.778 146.179C156.171 146.339 156.036 147.597 156.116 147.917C156.317 148.722 156.865 149.351 157.713 149.49C159.294 149.748 161 148.282 162.057 147.286C163.17 146.237 164.369 144.798 164.36 143.184C164.349 141.496 162.694 139.844 160.936 140.262Z" fill="black"/>
<path fill-rule="evenodd" clip-rule="evenodd" d="M165.221 113.215C164.324 114.59 162.75 116.24 161.085 116.56C159.863 116.794 159.057 115.886 159.548 114.66C159.963 113.624 161.376 112.97 162.302 112.514C163.037 112.152 166.462 111.31 165.221 113.215ZM164.561 110.964C162.724 110.894 161.242 112.226 159.873 113.289C160.182 112.068 160.882 110.74 161.867 109.945C163.208 108.864 164.479 109.535 165.891 110.076C165.543 108.974 163.979 108.578 162.983 108.734C161.724 108.93 160.819 110.008 160.182 111.051C159.423 112.295 159.163 113.76 158.269 114.927C157.859 115.461 155.325 117.459 155.899 118.276C156.845 117.268 157.792 116.261 158.739 115.253C158.984 116.444 159.255 117.8 160.771 117.684C161.983 117.592 163.364 116.559 164.249 115.771C165.393 114.752 167.644 111.081 164.561 110.964Z" fill="black"/>
<path fill-rule="evenodd" clip-rule="evenodd" d="M138.828 122.713C138.05 123.072 136.337 123.559 135.902 122.482C135.297 120.985 137.242 118.359 138.168 117.362C138.737 116.748 139.124 116.43 139.918 116.828C140.551 117.145 141.483 118.046 141.726 118.739C142.248 120.226 140.045 122.152 138.828 122.713ZM140.614 115.524C141.247 115.667 141.325 116.474 140.532 116.164C139.939 115.932 139.801 115.34 140.614 115.524ZM141.409 116.66C141.172 115.936 141.654 114.801 140.488 114.749C139.828 114.72 138.618 115.393 138.042 115.666C137.243 116.045 136.491 116.624 136.073 117.439C135.687 118.194 135.963 118.393 136.552 117.767C136.624 117.816 135.219 121.448 135.207 121.812C135.152 123.475 136.327 124.57 137.976 124.275C139.492 124.004 140.858 122.761 141.692 121.507C142.114 120.872 142.46 120.146 142.492 119.368C142.541 118.175 141.747 117.696 141.409 116.66Z" fill="black"/>
<path fill-rule="evenodd" clip-rule="evenodd" d="M148.679 116.05C148.04 114.815 149.522 112.737 150.848 113.345C153.611 114.611 149.518 117.669 148.679 116.05ZM151.161 114.438C150.865 114.45 148.99 115.176 149.266 115.668C149.645 116.343 151.013 114.71 151.161 114.438Z" fill="black"/>
<path fill-rule="evenodd" clip-rule="evenodd" d="M60.5475 112.156C60.4734 111.63 59.2976 112.394 59.3045 112.732C59.4989 112.342 60.7018 113.252 60.5475 112.156Z" fill="black"/>
<path fill-rule="evenodd" clip-rule="evenodd" d="M124.852 72.4164C126.349 72.3061 124.442 64.7349 123.351 65.4045C122.169 66.1301 123.479 72.5175 124.852 72.4164Z" fill="black"/>
<path fill-rule="evenodd" clip-rule="evenodd" d="M127.648 68.8811C129.05 69.0825 128.827 65.8539 128.073 65.2761C126.681 64.2095 125.945 68.6365 127.648 68.8811Z" fill="black"/>
</svg>
