<svg width="246" height="246" viewBox="0 0 246 246" fill="none" xmlns="http://www.w3.org/2000/svg">
<rect width="246" height="246" fill="white"/>
<circle cx="132" cy="127" r="86" fill="#E7F3E9"/>
<path fill-rule="evenodd" clip-rule="evenodd" d="M73.5024 143.332C74.5419 142.624 76.6678 140.088 77.7816 139.502C80.2581 138.198 91.2911 135.636 91.6499 135.485C92.1963 135.255 95.7456 134.449 97.8135 133.94C102.67 132.745 120.072 125.026 124.658 123.047C125.244 124.588 130.078 131.389 129.248 132.086C126.518 134.381 121.624 137.239 118.462 138.884C115.904 140.214 113.195 141.314 110.46 142.213C107.354 143.234 105.223 144.328 102.128 145.372C99.0833 146.399 102.722 149.611 104.286 150.275C106.04 151.019 108.756 151.397 110.548 152.043C107.393 156.946 104.743 162.898 104.213 168.773C104.086 170.186 103.008 171.482 101.255 171.059C100.351 170.841 92.0046 169.729 90.6436 169.419C81.5587 167.347 65.2493 156.497 69.4492 145.372C70.4114 145.816 72.6081 143.942 73.5024 143.332Z" fill="#219653"/>
<path fill-rule="evenodd" clip-rule="evenodd" d="M78.5851 84.3047C79.2638 84.2474 81.0186 82.8917 80.0979 82.206C79.1688 81.5141 78.5012 83.8326 78.5851 84.3047ZM43.2304 89.5043C43.4078 89.4731 43.3304 88.5021 43.0511 88.3781C42.1695 87.9868 42.095 89.4577 42.0735 89.8514C42.0467 90.3482 41.9845 91.7476 43.0564 91.3639C43.6649 91.1462 43.2874 89.8768 43.2304 89.5043ZM95.2775 94.0399C95.2535 94.9065 97.0042 96.5729 97.657 95.5732C98.2059 94.7335 95.3224 92.3149 95.2775 94.0399ZM33.3789 74.4954C33.8862 75.7893 36.3948 74.0259 36.488 73.0768C36.6794 71.133 33.3527 73.2022 33.3789 74.4954ZM54.3085 80.0742C55.4767 79.9782 57.014 78.4929 58.1405 77.938C58.9029 77.5626 60.9773 77.115 61.2029 76.2626C61.3993 75.5218 57.8796 77.1074 57.5791 77.2482C56.1983 77.8951 54.9533 78.6325 54.3085 80.0742ZM142.012 69.832C142.943 69.112 144.075 68.6476 145.269 68.678C145.865 68.6932 147.109 69.0661 147.155 68.0353C147.231 66.359 141.967 68.4033 141.144 68.7321C141.434 69.099 141.723 69.4655 142.012 69.832ZM83.9217 135.156C83.2386 134.022 82.0099 133.366 81.086 132.398C81.4245 133.988 80.6611 135.401 80.1366 136.852C81.3984 136.287 82.6599 135.721 83.9217 135.156ZM202.554 159.34C202.931 158.08 203.308 156.827 203.748 155.586C204.24 154.197 204.485 154.077 203.306 153.105C202.328 154.955 201.35 156.804 200.371 158.654C201.068 158.95 201.794 159.238 202.554 159.34ZM101.289 68.132C99.9934 66.6718 93.922 66.5801 94.6734 69.8029C94.9355 70.9283 96.4282 69.7328 97.3633 69.4705C98.2913 69.21 100.919 69.1754 101.289 68.132ZM101.066 88.8057C100.909 88.433 100.596 87.088 100.13 86.982C99.677 86.8787 97.8883 88.2895 97.552 88.5048C95.8748 89.5795 94.2398 90.7357 92.6053 91.875C93.2311 91.875 93.7994 91.6522 94.4215 91.6474C95.1606 91.6411 95.6909 91.9447 96.4116 91.7714C97.9601 91.3996 99.7574 89.6837 101.066 88.8057ZM102.744 55.4863C102.89 54.8184 110.481 56.8234 111.393 57.1906C111.89 57.3902 114.454 58.7232 113.903 56.7142C113.59 55.5699 110.626 54.6976 109.677 54.384C107.262 53.5871 104.717 53.0203 102.146 53.1518C101.647 53.1771 97.8667 53.3953 99.4453 54.9148C99.9892 55.4381 101.939 55.2732 102.744 55.4863ZM104.406 147.252C105.82 147.948 107.264 148.481 108.742 149.025C109.399 149.266 110.422 149.899 111.147 149.74C111.74 149.61 111.93 148.706 112.242 148.101C113.381 145.889 114.742 144.104 116.43 142.279C115.646 141.708 111.669 144.228 110.685 144.601C109.7 144.973 108.77 145.348 107.806 145.793C106.898 146.212 105.107 146.587 104.406 147.252ZM129.447 128.391C131.508 127.458 133.462 125.804 135.152 124.323C137.093 122.623 138.833 120.841 140.254 118.641C139.399 118.684 137.511 121.435 137.49 118.44C137.479 116.913 139.572 115.408 140.222 113.992C138.606 113.079 137.125 118.531 135.27 117.21C133.484 115.936 136.303 111.558 136.845 110.177C135.798 109.48 129.828 117.283 128.964 118.281C128.423 118.906 127.145 119.738 126.84 120.467C126.659 120.902 126.633 122.279 126.72 122.678C126.903 123.513 127.829 124.512 128.242 125.29C128.763 126.274 129.218 127.296 129.447 128.391ZM214.656 156.524C212.873 154.008 214.714 152.911 216.164 150.823C217.323 149.152 218.389 147.311 219.124 145.446C220.961 140.78 222.62 136.443 223.527 131.508C222.278 132.078 221.497 134.248 220.873 135.391C220.032 136.928 219.293 138.542 218.36 140.031C216.612 142.818 214.897 145.791 212.674 148.206C211.667 149.301 210.814 150.533 209.652 151.519C209.121 151.97 208.106 152.34 207.715 152.903C207.345 153.435 207.758 153.775 207.618 154.411C207.474 155.062 206.815 155.757 206.532 156.385C206.16 157.21 205.814 158.036 205.399 158.843C204.947 159.722 204.823 160.181 204.701 161.041C204.568 161.98 204.977 162.078 204.156 162.944C205.643 163.599 207.13 164.255 208.617 164.91C209.118 165.132 209.62 165.353 210.122 165.574C210.228 165.376 210.333 165.178 210.439 164.979C210.848 164.583 211.223 163.604 211.457 163.08C212.434 160.892 213.537 158.696 214.656 156.524ZM71.079 145.963C66.8574 157.077 81.6927 166.436 90.8248 168.506C92.0899 168.792 93.3242 169.168 94.5833 169.475C95.9562 169.811 97.1753 169.744 98.5457 169.885C99.6359 169.996 100.156 170.839 101.183 171.071C102.9 171.458 102.795 170.168 102.918 168.786C103.439 162.925 106.43 157.269 109.596 152.378C108.15 151.861 106.717 151.296 105.289 150.73C104.068 150.245 102.197 148.882 100.884 148.81C99.9123 148.757 98.4323 149.586 97.4889 149.95C95.9177 150.556 94.342 151.073 92.7045 151.486C89.8411 152.209 86.6549 153.195 83.692 153.269C82.8378 153.291 80.4946 153.689 79.8799 153.161C78.7079 152.154 80.3348 151.315 81.316 150.956C87.1639 148.814 93.3731 147.904 99.2378 145.708C102.256 144.578 105.242 143.317 108.279 142.203C110.897 141.244 113.639 140.394 116.169 139.214C119.509 137.656 122.865 135.715 125.758 133.428C126.337 132.971 127.55 132.291 127.947 131.628C128.296 131.044 128.253 131.626 128.18 130.918C128.128 130.41 127.506 129.721 127.25 129.24C126.297 127.45 125.435 125.61 124.711 123.715C120.096 125.694 115.706 128.388 111.159 130.504C106.582 132.633 101.42 134.135 96.5241 135.333C94.4402 135.843 92.0446 136.004 90.1336 137.012C89.3216 137.439 88.5188 137.935 87.6491 138.182C87.3923 138.675 87.1395 138.771 86.8904 138.472C86.7342 138.297 86.5325 138.223 86.285 138.25C85.753 138.34 85.2105 138.591 84.7129 138.784C82.195 139.76 79.7839 140.983 77.3933 142.23C76.2603 142.821 75.0981 143.403 74.0137 144.078C73.4325 144.439 72.9117 144.804 72.4361 145.301C71.866 145.896 72.0017 146.386 71.079 145.963ZM166.077 79.9696C167.144 79.9869 168.117 79.409 169.229 79.4411C170.979 79.4917 172.364 80.8482 173.379 82.1562C175.388 84.7445 174.876 87.8668 173.867 90.7633C173.384 92.1476 172.721 93.4763 171.892 94.6881C171.159 95.7607 169.848 96.7754 169.336 97.9699C168.492 99.9396 170.195 99.1021 171.238 98.6813C172.549 98.1519 173.778 97.4939 174.891 96.6075C179.851 92.6572 183.624 87.1662 184.888 80.8602C185.505 77.7836 185.457 74.1868 183.314 71.6756C181.355 69.3794 177.972 68.6292 175.081 69.0549C171.955 69.5155 169.123 70.8392 166.578 72.5434C165.838 73.0385 165.162 73.579 164.467 74.1328C163.557 74.8593 163.011 74.8784 163.239 76.0171C163.408 76.8636 163.869 77.7407 164.166 78.553C164.723 80.0745 164.52 80.4681 166.077 79.9696ZM169.479 106.199L169.263 106.568C170.751 106.639 172.137 105.326 173.405 104.685C175.052 103.852 176.515 102.716 177.958 101.568C180.504 99.5445 183.083 97.264 184.977 94.6073C189.225 88.6518 193.083 81.1014 191.924 73.5507C190.675 65.4127 183.557 62.2802 175.973 63.3575C172.555 63.8429 169.503 65.3689 166.444 66.918C164.902 67.6991 163.601 68.7122 162.189 69.6929C161.456 70.2021 160.787 70.2681 160.739 71.1584C160.703 71.8293 161.863 73.3464 162.176 73.9543C166.017 70.0364 170.156 66.7952 175.956 66.5949C182.856 66.3567 186.936 72.8992 186.906 79.1643C186.876 85.3084 184.226 91.2187 180.002 95.6343C178.082 97.6411 176.251 99.2514 173.894 100.716C172.719 101.446 171.852 102.102 170.538 102.586C169.609 102.93 169.705 102.749 169.468 103.609C169.267 104.339 169.473 105.441 169.479 106.199ZM131.986 189.675C131.896 190.782 131.671 191.872 131.42 192.952C131.33 193.34 130.824 194.564 130.913 195C131.059 195.721 130.864 195.258 131.495 195.634C132.154 196.026 132.921 196.002 133.642 196.122C134.087 196.195 135.718 196.963 135.993 196.842C136.472 196.63 136.457 195.882 136.983 195.586C137.7 195.182 138.756 195.528 139.433 195.844C141.241 196.688 142.483 198.433 144.233 199.389C147.339 201.086 151.026 202.025 154.492 202.413C156.37 202.623 158.292 202.991 160.146 202.551C161.607 202.205 163.506 202.237 164.301 200.669C157.242 198.728 146.469 196.352 143.678 188.252C142.161 189.628 139.625 188.887 137.792 188.697C135.775 188.488 133.972 188.537 132.128 187.617C131.993 188.34 131.952 188.94 131.986 189.675ZM69.4903 139.506C72.813 139.707 75.963 138.135 78.0078 135.482C78.5111 134.828 79.0272 134.161 79.3294 133.387C79.395 133.191 79.4602 132.995 79.5258 132.798C79.843 132.257 79.7041 132.001 79.1093 132.031C78.7743 131.572 77.9247 131.417 78.1664 130.585C78.3484 129.956 79.02 129.946 79.6039 129.748C79.3132 129.26 79.1393 129.015 78.7231 128.58C77.6415 129.553 75.6789 131.462 74.9189 129.227C74.5539 128.154 75.1965 127.129 75.0373 126.094C74.9717 125.666 74.4291 124.572 74.1146 124.316C72.4396 122.953 70.027 123.517 68.2498 124.32C67.025 124.873 66.7614 125.133 66.5616 126.401C66.3587 127.691 66.1704 128.98 65.9453 130.266C66.6803 129.883 66.8142 129.055 67.2935 128.459C67.473 128.786 67.6525 129.114 67.8327 129.44C68.0856 129.299 68.3219 129.306 68.5411 129.463C68.8958 130.008 68.6726 130.817 68.5636 131.389C69.7463 131.278 70.2462 132.598 69.0538 133.132C67.8186 133.686 67.2616 132.177 67.2198 131.199C66.7589 131.75 66.2856 131.455 65.9643 131.738C65.6434 132.021 65.5169 132.61 65.4026 133.255C65.215 134.316 64.7348 135.846 65.1791 136.91C65.8388 138.49 67.9423 139.312 69.4903 139.506ZM165.773 88.7523C164.673 90.2812 162.799 92.2827 162.407 94.13C163.618 93.4193 166.178 89.9999 166.838 92.7238C167.216 94.2873 165.274 96.1502 164.797 97.6641C166.707 97.0358 168.067 95.0679 169.259 93.5492C170.778 91.6128 172.329 89.0601 172.717 86.5978C173.031 84.6053 171.649 82.7482 169.595 82.5529C168.546 82.453 167.45 82.6196 166.437 82.8629C165.975 82.9737 165.285 83.1112 164.873 83.3589C164.355 83.6698 164.284 84.398 163.796 83.7923C163.148 85.014 162.5 86.2357 161.851 87.4571C162.496 87.223 163.813 86.2296 164.518 86.3323C165.547 86.4825 165.759 87.9778 165.773 88.7523ZM62.832 58.8427C59.9496 58.9277 56.9369 59.5414 54.2083 60.4538C53.5306 60.6806 50.672 61.4871 51.274 62.6563C51.6719 63.429 53.8173 62.337 54.4658 62.1549C57.2454 61.3744 60.1074 60.8596 62.9545 60.3898C63.644 60.2761 65.9826 60.2874 66.1032 59.3837C66.251 58.2811 63.6459 58.8415 62.832 58.8427ZM141.277 184.604C139.714 184.795 138.214 184.723 136.65 184.532C135.334 184.371 133.994 183.832 132.685 183.832C132.685 185.234 132.59 185.243 134.068 185.543C135.101 185.752 136.148 185.87 137.191 186.016C139.027 186.272 141.066 186.993 142.926 186.623C142.88 186.38 142.738 184.737 142.546 184.574C142.437 184.483 141.434 184.605 141.277 184.604ZM116.027 80.893C116.464 81.1713 117.468 82.2812 117.988 82.3008C117.802 81.0158 116.369 78.7785 114.722 79.5726C114.319 79.7673 113.472 80.7369 113.855 81.1646C114.06 81.3932 115.491 80.8945 116.027 80.893ZM100.795 92.324C100.811 92.1001 100.827 91.8762 100.844 91.6523C100.24 92.0076 99.4915 92.1756 99.0624 92.7479C99.5777 92.9763 100.093 93.2049 100.608 93.4336C100.671 93.0637 100.733 92.6939 100.795 92.324ZM148.371 126.439C151.226 127.439 153.842 128.774 155.943 131.04C157.759 132.999 158.613 136.452 159.056 139.02C160.153 145.376 158.036 151.267 156.64 157.348C155.933 160.432 154.875 163.4 153.886 166.405C153.022 169.029 152.281 171.777 151.088 174.272C150.077 176.387 148.785 178.473 147.895 180.667C147.416 181.848 146.64 185.901 144.823 184.628C144.327 185.925 144.206 185.814 144.737 186.715C145.12 187.367 146.422 188.272 147.036 188.803C148.673 190.218 150.746 191.384 152.665 192.375C156.182 194.19 159.952 195.548 163.573 197.203C165.174 197.935 166.911 198.8 166.551 200.894C166.25 202.65 165.234 203.981 163.65 204.763C162.162 205.496 160.034 206.062 158.397 206.293C157.426 206.429 157.204 206.025 156.412 205.885C155.531 205.73 154.502 206.03 153.594 206.023C149.513 205.987 145.941 204.96 142.643 202.594C141.465 201.749 139.73 199.455 138.188 199.455C137.4 199.455 137.566 199.934 136.873 200.215C136.017 200.561 134.543 199.907 133.702 199.754C131.909 199.426 130.087 199.094 128.894 197.551C127.603 195.882 128.062 193.816 128.616 191.964C129.241 189.875 130.293 187.757 130.74 185.637C130.849 185.121 130.949 184.16 130.838 183.635C130.667 182.821 129.845 182.336 129.82 181.454C129.812 181.186 130.196 180.832 130.263 180.556C130.411 179.948 130.389 179.317 130.449 178.699C130.558 177.595 130.81 176.538 130.984 175.448C131.378 172.966 132.156 170.752 132.91 168.361C133.64 166.041 134.336 164.314 135.749 162.305C136.48 161.264 138.927 157.557 137.732 156.49C136.097 159.702 134.184 162.208 131.682 164.765C129.767 166.721 127.896 169.351 125.5 170.744C122.865 172.276 119.646 173.177 116.737 173.987C115.354 174.372 114.206 175.226 112.714 175.384C111.097 175.555 109.452 175.354 107.869 174.993C107.423 174.892 106.138 174.207 105.735 174.251C105.141 174.315 104.286 175.374 103.634 175.568C102.047 176.042 100.964 175.137 99.7602 174.302C98.4538 173.395 98.0586 173.169 96.5512 173.06C94.7049 172.927 92.9093 172.276 91.0933 171.877C87.9005 171.177 85.1867 169.757 82.2845 168.271C78.9578 166.568 76.1122 164.219 73.6047 161.444C69.9186 157.365 64.7851 146.061 70.8065 142.104C67.2617 141.622 64.015 140.074 63.583 136.062C63.3572 133.963 63.7822 131.637 64.3101 129.614C64.551 128.689 64.8383 127.771 65.1135 126.857C65.3207 126.548 65.4305 126.21 65.442 125.843C65.5691 125.367 65.3857 125.13 64.8918 125.132C63.9581 124.04 63.2561 123.077 63.0674 121.527C63.0081 121.035 62.9549 120.282 63.3043 119.865C63.4661 119.697 63.6612 119.585 63.8892 119.528C64.4362 119.56 64.5909 119.29 64.3531 118.72C64.6187 117.912 64.2247 117.283 65.2258 116.945C65.5468 117.014 65.8663 117.088 66.1845 117.169C66.5906 117.354 66.8547 117.22 66.9775 116.768C67.9207 116.399 67.4856 115.853 68.7672 116.328C69.5428 116.615 70.2807 117.11 70.8454 117.713C71.554 117.259 69.9427 114.447 69.8889 113.551C69.7615 111.437 70.6355 109.689 71.7726 107.952C73.9829 104.578 77.0682 101.676 80.1104 99.0651C85.9379 94.0651 92.0598 89.3051 98.6397 85.3216C95.9253 83.4364 92.7541 82.9254 89.5241 83.8015C86.5465 84.6093 84.133 86.0763 81.392 87.3596C78.8529 88.548 76.1577 89.0361 75.348 85.7931C74.441 82.1605 77.3351 80.812 79.931 79.183C79.2828 78.6995 77.1489 79.0452 76.3417 79.1024C74.5439 79.2294 72.8247 79.6353 71.0777 79.9943C70.2399 80.1662 69.4701 80.1275 68.6401 80.296C67.4061 80.5464 66.1177 80.8271 64.8692 81.1839C61.899 82.0335 58.9508 83.3226 56.3842 85.0598C54.1659 86.5604 52.627 88.6793 50.8397 90.631C48.8014 92.8563 46.8484 95.0458 43.8265 95.8604C42.4116 96.2419 40.7518 96.5881 39.7486 95.3243C38.8152 94.1492 38.7632 92.733 38.7939 91.296C38.8613 88.1222 40.3946 84.6925 42.1782 82.099C44.1141 79.2838 46.707 77.6716 49.157 75.4055C45.6159 75.6587 42.1936 77.5254 38.9371 78.8155C38.2517 79.0872 37.5599 79.3923 36.8709 79.6437C36.136 79.9117 35.6493 79.7476 34.9454 79.8703C33.3387 80.1507 31.9588 80.8277 30.3961 79.7482C27.4395 77.7062 30.4017 73.5521 32.4372 72.2775C35.2726 70.5023 38.1571 69.0075 41.2807 67.7412C39.5896 65.907 41.0339 63.2894 42.5926 61.9882C44.5647 60.3416 47.076 59.3981 49.4524 58.5167C51.3318 57.8195 53.1775 57.1502 55.1298 56.7307C57.1821 56.2899 59.582 55.6162 61.6646 55.6808C63.6176 55.7414 65.3495 55.3973 67.3276 55.3423C68.9735 55.2965 70.6231 55.3361 72.2687 55.2934C76.6964 55.1791 81.1406 55.4777 85.4678 55.7961C82.0393 45.7703 104.623 48.8664 109.441 50.176C113.819 51.3663 118.836 52.7469 122.514 55.5711C124.072 56.7672 125.552 58.1272 126.934 59.5227C128.974 61.5816 130.103 64.2781 131.182 66.9396C133.918 65.5991 136.535 64.1384 139.529 63.4737C142.377 62.8415 145.296 61.9845 148.161 61.5068C150.34 61.1436 153.502 60.8972 155.336 62.4355C157.327 64.1065 158.365 66.7068 159.554 68.9336C165.263 63.5166 171.63 59.5647 179.77 59.8275C187.735 60.0847 192.973 66.9628 193.938 74.4162C195.002 82.6289 191.343 91.2107 186.384 97.5706C184.161 100.423 181.86 103.177 178.867 105.305C177.383 106.36 175.817 107.516 174.189 108.339C173.378 108.75 172.491 109.121 171.639 109.437C171.254 109.579 170.858 109.723 170.458 109.819C169.317 110.096 169.538 109.727 169.114 110.726C168.769 111.538 168.812 112.934 168.664 113.824C168.495 114.842 168.395 115.874 168.149 116.879C167.723 118.619 167.279 120.317 166.744 122.017C165.733 125.233 164.372 128.476 162.705 131.41C164.119 132.024 166.099 132.086 167.609 132.272C169.245 132.473 170.882 132.896 172.58 133.371C175.983 134.322 179.024 135.125 182.261 136.55C185.62 138.029 188.614 140.237 191.849 141.995C194.824 143.611 197.831 145.635 200.594 147.576C201.251 148.037 201.658 148.439 202.181 149.023C202.717 149.62 202.887 149.737 203.527 150.255C203.815 150.488 204.654 151.665 204.983 151.708C205.573 151.786 205.482 151.346 205.945 150.731C206.912 149.448 208.26 148.454 209.22 147.139C210.021 146.042 210.856 144.931 211.712 143.988C213.783 141.705 215.499 139.175 216.971 136.438C217.738 135.014 218.545 133.658 219.377 132.313C220.205 130.975 221.679 129.208 223.328 129.287C223.196 128.605 222.774 128.492 223.502 128.075C223.97 127.807 224.882 128.239 225.243 128.512C226.199 129.234 226.241 130.635 226.181 131.688C226.026 134.4 225.458 137.077 224.667 139.642C223.717 142.724 222.525 145.444 221.225 148.387C220.189 150.731 218.903 153.83 216.327 154.9C218.057 157.37 217.226 159.384 216.07 162.006C215.225 163.924 214.108 165.905 212.408 167.174C210.491 168.604 208.412 167.391 206.408 166.446C205.197 165.874 201.494 164.527 202.247 162.769C201.322 162.646 200.741 161.974 199.899 161.767C199.008 161.548 199.161 161.91 198.218 162.046C197.495 162.15 196.413 161.503 195.732 161.271C194.595 160.884 193.462 160.487 192.326 160.096C189.13 158.995 185.987 157.911 182.759 157.029C176.754 155.388 170.674 154.458 164.689 152.992C163.49 152.698 162.297 152.415 161.048 152.18C160.79 152.131 159.452 152.057 159.289 151.781C159.004 151.297 159.88 148.589 159.955 148.037C160.448 144.415 160.287 140.45 159.592 136.869C159.304 135.381 158.015 133.453 158.026 132C158.033 131.025 158.897 129.961 159.404 129.078C160.659 126.895 161.973 124.536 162.902 122.264C164.325 118.788 165.197 114.865 165.825 111.142C166.152 109.202 166.533 107.098 166.622 105.135C166.69 103.639 166.568 102.069 166.785 100.537C165.956 100.615 164.785 101.044 164.039 100.585C163.097 100.005 162.844 98.3503 162.964 97.3619C159.739 97.9249 159.846 94.8661 160.045 92.4742C154.216 92.4742 161.681 83.812 162.614 81.9518C163.043 81.0967 163.03 82.0573 162.841 80.7347C162.758 80.1532 162.36 79.5089 162.135 78.9744C161.646 77.8073 161.116 76.6582 160.55 75.5261C159.355 73.1347 158.001 70.8241 156.523 68.5964C155.193 69.5232 153.994 70.6204 152.883 71.7977C153.596 69.9341 155.773 67.6253 154.842 65.5091C153.979 63.5476 151.096 63.6836 149.393 64.0422C144.767 65.0176 140.331 66.4382 135.924 68.0829C137.289 68.8656 139.379 68.2609 140.735 67.6624C142.415 66.9211 144.221 66.1432 146.031 65.7506C147.61 65.4081 149.683 65.5249 149.227 67.6513C148.857 69.3742 147.172 71.0334 146.06 72.3217C143.61 75.16 140.538 77.3572 137.521 79.5525C134.277 81.9126 131.152 84.4767 127.867 86.7682C121.929 90.9108 115.545 94.5112 109.411 98.3781C106.223 100.387 102.611 102.004 99.1537 103.493C95.3507 105.132 91.7044 106.885 87.7588 108.179C85.5677 108.898 83.396 109.489 81.2429 110.307C79.8933 110.819 77.5432 111.846 76.6516 110.325C74.8405 107.235 81.3942 103.171 83.1901 101.282C84.429 102.485 78.3195 106.969 78.7976 108.721C79.1733 110.097 80.6266 108.32 81.3283 107.944C82.4624 107.338 83.8055 107.033 84.9451 106.341C87.2829 104.922 90.0545 103.285 90.5883 100.351C90.2169 99.9592 90.2215 99.5974 90.6022 99.2657C90.7717 99.0642 90.9062 98.8428 91.0052 98.6013C91.1716 98.1404 91.2384 97.5629 91.3274 97.0741C91.5906 95.6291 90.93 94.2763 91.5473 92.8622C87.9447 95.592 84.4815 98.6755 81.0617 101.631C77.9941 104.281 74.7932 107.752 73.6659 111.708C73.5215 112.214 73.2815 112.789 73.3078 113.324C73.3592 114.374 73.464 114.148 74.3098 114.485C75.156 114.823 76.3878 114.794 77.2976 114.83C77.8163 114.85 80.1324 114.301 79.6719 115.439C79.4065 116.095 77.8008 116.07 77.2259 116.131C75.7832 116.283 75.0007 116.127 75.6842 117.691C75.9907 118.392 76.6114 118.866 77.0985 119.409C78.4537 120.918 79.1897 123.233 80.2558 125.007C81.4706 127.027 82.8056 128.948 84.2242 130.829C84.8097 131.605 85.5921 133.064 86.4036 133.618C87.1613 134.136 86.2697 134.093 87.5284 133.883C88.0771 133.791 88.5744 133.434 89.0992 133.307C92.237 132.542 95.4623 131.681 98.7074 130.737C102.858 129.53 107.214 128.501 111.174 126.763C114.722 125.205 118.243 123.351 121.828 121.774C122.875 121.314 123.92 121.009 124.734 120.161C125.716 119.139 126.529 117.8 127.435 116.701C128.975 114.832 130.395 112.93 132.054 111.158C133.288 109.84 135.475 107.389 137.217 106.863C140.526 105.864 138.754 110.904 138.327 112.177C139.105 112.354 139.513 111.356 140.426 111.643C141.519 111.987 141.632 113.44 141.769 114.351C141.805 114.594 141.477 115.047 141.577 115.264C141.611 115.338 142.324 115.759 142.462 115.955C142.961 116.665 142.863 117.528 142.673 118.294C141.694 122.261 138.214 125.157 135.654 128.083C136.799 127.866 137.648 127.214 138.729 126.89C139.744 126.587 140.764 126.602 141.786 126.516C142.857 126.424 143.886 126.024 144.981 126.003C146.131 125.982 147.231 126.309 148.371 126.439Z" fill="black"/>
<path fill-rule="evenodd" clip-rule="evenodd" d="M27.3085 90.7617C26.6773 91.1743 26.4994 91.5791 26.4776 92.531C26.4689 92.9214 26.4958 94.3777 27.0414 94.3227C27.5534 94.2711 27.3085 91.2625 27.3085 90.7617ZM24.0478 93.1338C24.3419 90.083 25.458 86.9813 28.0836 85.0804C28.7329 84.6103 29.4674 84.627 30.179 84.3304C30.6067 84.1523 31.2824 83.3241 31.7679 83.4221C33.5553 83.7836 31.4904 86.1586 31.188 86.7833C30.2509 88.7188 30.3142 90.4195 30.3421 92.5075C30.3634 94.0944 30.6932 96.7697 29.8932 98.2059C29.0403 99.7353 27.1907 98.7422 26.1582 97.837C24.8551 96.6942 23.871 94.8744 24.0478 93.1338Z" fill="black"/>
<path fill-rule="evenodd" clip-rule="evenodd" d="M55.424 102.149C55.424 103.851 56.8058 102.699 56.7564 101.488C56.6842 99.7051 55.3596 100.803 55.424 102.149ZM62.7694 92.738C61.2572 94.098 60.0907 94.8611 59.7993 96.9523C59.5787 98.5363 59.798 100.105 59.8074 101.701C59.8232 104.375 57.6634 107.187 55.3393 104.121C53.644 101.885 54.2521 98.3687 55.6345 96.1214C56.36 94.9422 57.3956 93.7758 58.5918 93.041C59.4917 92.488 62.0228 91.3999 62.7694 92.738Z" fill="black"/>
<path fill-rule="evenodd" clip-rule="evenodd" d="M41.6509 133.957C41.4755 134.372 41.064 136.065 41.9037 135.682C42.645 135.344 42.1647 134.221 41.6509 133.957ZM37.2139 128.728C37.0843 128.092 37.1371 124.099 38.2367 124.399C39.1005 124.634 39.2431 126.677 39.595 127.388C40.9053 130.037 43.9127 131.686 44.9498 134.42C46.1074 137.472 42.6076 137.567 40.7505 136.331C38.5516 134.867 37.2792 131.283 37.2139 128.728Z" fill="black"/>
<path fill-rule="evenodd" clip-rule="evenodd" d="M34.5182 112.359C34.9954 111.715 35.0437 111.371 34.7716 110.801C34.4239 111.179 34.4856 111.72 34.5182 112.359ZM34.8635 115.242C32.3756 115.52 32.2511 110.935 32.6772 109.361C33.0165 108.108 33.7459 106.76 34.4968 105.739C34.6485 105.533 36.0869 103.68 36.3689 103.676C37.4508 103.659 37.1535 104.881 37.0368 105.337C36.6692 106.77 36.5236 107.969 36.6225 109.559C36.7286 111.26 37.5341 115.298 34.8635 115.242Z" fill="black"/>
<path fill-rule="evenodd" clip-rule="evenodd" d="M147.824 75.536C144.267 78.5194 140.89 81.7492 137.021 84.3588C135.129 85.6358 133.15 86.7657 131.261 88.0636C130.299 88.7247 129.318 89.3164 128.251 89.8024C127.308 90.2317 126.691 90.2875 127.474 89.2686C127.996 88.5879 129.168 88.1136 129.881 87.6297C130.977 86.8847 132.012 86.0581 133.165 85.397C135.197 84.231 137.217 83.2897 139.091 81.8596C140.754 80.5909 142.469 79.3518 144.056 78.0034C144.737 77.4251 146.993 74.7701 147.824 75.536Z" fill="black"/>
<path fill-rule="evenodd" clip-rule="evenodd" d="M147.896 86.3086C149.496 87.6771 145.493 91.4262 144.58 92.2758C143.618 93.1719 142.558 93.9713 141.511 94.7652C141.142 95.0448 139.132 96.9158 138.621 96.7648C137.614 96.4667 138.936 95.2528 139.28 94.9362C140.392 93.9112 141.527 92.9163 142.614 91.8637C143.595 90.9152 144.656 90.0367 145.604 89.0575C146.373 88.2642 147.018 86.9199 147.896 86.3086Z" fill="black"/>
<path fill-rule="evenodd" clip-rule="evenodd" d="M29.371 141.473C28.9533 140.505 28.2052 141.58 28.5844 142.063C28.9431 142.521 29.3176 141.659 29.371 141.473ZM26.9218 139.562C27.1457 138.139 27.6632 137.348 28.9983 138.562C29.9158 139.397 31.761 141.771 31.5859 143.065C31.3561 144.762 29.4866 144.281 28.5175 143.393C27.5242 142.483 27.0857 140.824 26.9218 139.562Z" fill="black"/>
<path fill-rule="evenodd" clip-rule="evenodd" d="M29.8475 167.573C28.212 167.448 26.8166 166.192 26.122 164.721C25.5376 163.483 24.9845 161.488 27.0376 162.139C28.3757 162.563 33.5341 167.772 29.8475 167.573Z" fill="black"/>
<path fill-rule="evenodd" clip-rule="evenodd" d="M49.6693 159.505C48.4054 159.792 47.155 158.96 46.3777 158.021C45.8942 157.437 44.7686 155.387 45.3357 154.543C46.1261 153.367 47.3197 155.732 47.7313 156.2C48.3771 156.933 50.4886 158.336 49.6693 159.505Z" fill="black"/>
<path fill-rule="evenodd" clip-rule="evenodd" d="M50.8077 127.5C49.817 127.04 48.8971 126.487 48.4987 125.389C48.2453 124.689 48.0325 122.592 49.1577 122.602C50.4592 122.613 53.4397 127.29 50.8077 127.5Z" fill="black"/>
<path fill-rule="evenodd" clip-rule="evenodd" d="M43.8613 105.68C45.188 105.656 45.5021 106.388 45.6865 107.439C45.8118 108.153 46.4195 110.574 45.7883 111.07C44.8866 111.779 43.4522 110.155 43.1622 109.517C42.5645 108.205 43.3909 106.913 43.8613 105.68Z" fill="black"/>
<path fill-rule="evenodd" clip-rule="evenodd" d="M66.6567 178.296C67.3026 178.59 68.7722 179.242 68.2106 180.253C67.6235 181.311 65.9378 180.283 65.3081 179.821C65.0445 179.627 63.3696 178.361 63.4396 177.936C63.5874 177.034 65.8961 178.212 66.6567 178.296Z" fill="black"/>
<path fill-rule="evenodd" clip-rule="evenodd" d="M24.1 112.25C24.5414 113.355 25.0383 117.152 22.7139 115.102C22.0046 114.476 21.8975 113.694 22.1419 112.835C22.4953 111.59 23.0096 111.837 24.1 112.25Z" fill="black"/>
<path fill-rule="evenodd" clip-rule="evenodd" d="M147.276 98.1094C146.761 97.0578 148.032 96.3795 148.711 95.7019C149.154 95.2591 151.019 92.8582 151.63 92.9938C152.887 93.2729 147.894 97.6404 147.276 98.1094Z" fill="black"/>
<path fill-rule="evenodd" clip-rule="evenodd" d="M43.8446 174.277C45.0574 174.082 45.3404 175.429 46.1218 176.017C46.4568 176.269 47.6071 176.49 47.3757 177.025C46.7678 178.429 43.7852 175.221 43.8446 174.277Z" fill="black"/>
<path fill-rule="evenodd" clip-rule="evenodd" d="M54.0859 142.461C54.9195 142.112 57.3256 143.986 56.6348 144.796C55.6021 146.007 54.1448 143.124 54.0859 142.461Z" fill="black"/>
<path fill-rule="evenodd" clip-rule="evenodd" d="M71.6573 169.579C71.0497 169.639 68.4854 168.833 69.4354 167.754C70.1024 166.996 71.8754 168.893 71.6573 169.579Z" fill="black"/>
<path fill-rule="evenodd" clip-rule="evenodd" d="M40.9492 164.4C40.3459 164.642 38.1702 164.145 38.8543 163.2C39.5059 162.301 40.9501 163.654 40.9492 164.4Z" fill="black"/>
<path fill-rule="evenodd" clip-rule="evenodd" d="M58.7617 168.477C59.467 168.404 59.9765 168.829 60.0977 169.549C59.2155 169.675 58.9434 169.465 58.7617 168.477Z" fill="black"/>
<path fill-rule="evenodd" clip-rule="evenodd" d="M150.496 63.9296C150.794 63.9309 151.092 63.9325 151.387 63.9338C151.088 63.9322 150.792 63.9309 150.496 63.9296Z" fill="black"/>
<path fill-rule="evenodd" clip-rule="evenodd" d="M145.82 125.94C145.375 125.941 144.929 125.942 144.484 125.942C144.93 125.941 145.375 125.941 145.82 125.94Z" fill="black"/>
<path fill-rule="evenodd" clip-rule="evenodd" d="M85.0661 53.3555C85.0456 53.8013 85.0251 54.2471 85.0042 54.6914C85.0243 54.2452 85.0452 53.8001 85.0661 53.3555Z" fill="black"/>
<path fill-rule="evenodd" clip-rule="evenodd" d="M223.039 129.059C223.181 129.554 222.973 129.636 222.414 129.305C222.622 129.223 222.83 129.141 223.039 129.059Z" fill="black"/>
<path fill-rule="evenodd" clip-rule="evenodd" d="M210.391 167.91C210.614 167.911 210.838 167.913 211.059 167.914C210.834 167.913 210.613 167.911 210.391 167.91Z" fill="black"/>
<path fill-rule="evenodd" clip-rule="evenodd" d="M168.086 132.07C167.713 132.355 167.341 132.395 166.973 132.055C167.344 132.06 167.715 132.065 168.086 132.07Z" fill="black"/>
<path fill-rule="evenodd" clip-rule="evenodd" d="M159.751 94.1016C159.741 94.4733 159.732 94.8446 159.722 95.2148C159.731 94.8428 159.741 94.4722 159.751 94.1016Z" fill="black"/>
<path fill-rule="evenodd" clip-rule="evenodd" d="M178.996 59.7457C178.625 59.7454 178.254 59.745 177.883 59.7445C178.254 59.6056 178.625 59.6513 178.996 59.7457Z" fill="black"/>
<path fill-rule="evenodd" clip-rule="evenodd" d="M70.1172 55.2153C69.7462 55.2372 69.3749 55.259 69.0039 55.2808C69.3749 55.259 69.7462 55.2372 70.1172 55.2153Z" fill="black"/>
<path fill-rule="evenodd" clip-rule="evenodd" d="M79.2461 55.2859C78.9492 55.2607 78.6521 55.2354 78.3555 55.2102C78.6521 55.2354 78.949 55.2607 79.2461 55.2859Z" fill="black"/>
<path fill-rule="evenodd" clip-rule="evenodd" d="M84.1445 55.6387C83.8478 55.7493 83.551 55.8148 83.2539 55.6402C83.551 55.6398 83.8478 55.6391 84.1445 55.6387Z" fill="black"/>
<path fill-rule="evenodd" clip-rule="evenodd" d="M57.6484 56.2484C57.2771 56.3239 56.9061 56.3994 56.5352 56.4742C56.9065 56.3994 57.2775 56.3239 57.6484 56.2484Z" fill="black"/>
<path fill-rule="evenodd" clip-rule="evenodd" d="M159.974 146.871C159.964 147.094 159.954 147.317 159.944 147.539C159.954 147.316 159.964 147.093 159.974 146.871Z" fill="black"/>
<path fill-rule="evenodd" clip-rule="evenodd" d="M37.269 128.836C37.2735 128.985 37.2777 129.133 37.2817 129.281C37.2771 129.132 37.2733 128.984 37.269 128.836Z" fill="black"/>
<path fill-rule="evenodd" clip-rule="evenodd" d="M224.418 128.037L223.305 128.043C223.675 127.766 224.046 127.801 224.418 128.037Z" fill="black"/>
<path fill-rule="evenodd" clip-rule="evenodd" d="M148.27 126.46C147.972 126.411 147.675 126.362 147.379 126.313C147.675 126.362 147.973 126.411 148.27 126.46Z" fill="black"/>
<path fill-rule="evenodd" clip-rule="evenodd" d="M66.7773 178.263C66.4061 178.191 66.0353 178.118 65.6641 178.046L66.7773 178.263Z" fill="black"/>
<path fill-rule="evenodd" clip-rule="evenodd" d="M141.711 114.363C141.705 114.14 141.698 113.917 141.691 113.695C141.698 113.918 141.705 114.141 141.711 114.363Z" fill="black"/>
<path fill-rule="evenodd" clip-rule="evenodd" d="M71.2305 55.2891C71.0077 55.2617 70.785 55.2343 70.5625 55.2069C70.785 55.2343 71.0077 55.2617 71.2305 55.2891Z" fill="black"/>
<path fill-rule="evenodd" clip-rule="evenodd" d="M107.746 49.7828C107.523 49.7154 107.301 49.6479 107.078 49.5804C107.301 49.6479 107.523 49.7154 107.746 49.7828Z" fill="black"/>
<path fill-rule="evenodd" clip-rule="evenodd" d="M134.242 199.961C134.391 199.97 134.54 199.979 134.688 199.988C134.538 199.979 134.39 199.97 134.242 199.961Z" fill="black"/>
<path fill-rule="evenodd" clip-rule="evenodd" d="M32.043 80.3993C32.2665 80.4051 32.49 80.4111 32.7109 80.4171C32.4863 80.4111 32.2646 80.4051 32.043 80.3993Z" fill="black"/>
<path fill-rule="evenodd" clip-rule="evenodd" d="M181.445 59.963C181.074 59.937 180.703 59.9109 180.332 59.8846C180.704 59.9109 181.074 59.937 181.445 59.963Z" fill="black"/>
<path fill-rule="evenodd" clip-rule="evenodd" d="M64.1055 58.9205C63.5847 58.9214 63.0646 58.9223 62.5469 58.9232C63.0687 58.9223 63.5871 58.9214 64.1055 58.9205Z" fill="black"/>
<path fill-rule="evenodd" clip-rule="evenodd" d="M169.3 104.789C169.307 105.161 169.314 105.532 169.321 105.902C169.315 105.53 169.308 105.16 169.3 104.789Z" fill="black"/>
<path fill-rule="evenodd" clip-rule="evenodd" d="M142.035 184.507C141.737 184.503 141.44 184.498 141.145 184.493C141.443 184.497 141.739 184.502 142.035 184.507Z" fill="black"/>
<path fill-rule="evenodd" clip-rule="evenodd" d="M173.652 66.5354C174.098 66.4859 174.543 66.4365 174.988 66.3871C174.561 66.7651 174.099 66.5136 173.652 66.5354Z" fill="black"/>
<path fill-rule="evenodd" clip-rule="evenodd" d="M139.586 184.624C139.363 184.615 139.139 184.607 138.918 184.599C139.142 184.607 139.364 184.615 139.586 184.624Z" fill="black"/>
<path fill-rule="evenodd" clip-rule="evenodd" d="M131.887 188.508C131.899 188.88 131.91 189.251 131.921 189.621C131.91 189.249 131.899 188.878 131.887 188.508Z" fill="black"/>
<path fill-rule="evenodd" clip-rule="evenodd" d="M165.859 80.2072C166.156 80.1796 166.453 80.152 166.75 80.1246C166.479 80.3335 166.161 80.2112 165.859 80.2072Z" fill="black"/>
<path fill-rule="evenodd" clip-rule="evenodd" d="M68.5586 139.442C68.8555 139.496 69.1527 139.551 69.4492 139.605C69.1523 139.551 68.8555 139.496 68.5586 139.442Z" fill="black"/>
<path fill-rule="evenodd" clip-rule="evenodd" d="M114.871 80.8544C115.242 80.5387 115.613 80.573 115.984 80.8508C115.613 80.8517 115.242 80.8531 114.871 80.8544Z" fill="black"/>
<path fill-rule="evenodd" clip-rule="evenodd" d="M100.939 92.0977C100.95 91.9492 100.96 91.8006 100.971 91.6523C100.961 91.801 100.95 91.9494 100.939 92.0977Z" fill="black"/>
<path fill-rule="evenodd" clip-rule="evenodd" d="M165.743 87.8672C165.746 88.1645 165.749 88.4619 165.753 88.7578C165.75 88.4597 165.747 88.1635 165.743 87.8672Z" fill="black"/>
<path fill-rule="evenodd" clip-rule="evenodd" d="M67.5086 134.409C67.9972 134.575 68.9797 135.075 69.549 135.009C70.0047 134.956 70.3804 134.402 70.8198 134.402C72.0033 134.404 71.7839 135.772 71.2121 136.506C69.6657 138.493 66.2103 136.339 67.5086 134.409Z" fill="black"/>
<path fill-rule="evenodd" clip-rule="evenodd" d="M72.3386 127.277C73.9525 127.694 73.1487 131.244 71.7921 131.488C70.1946 131.775 69.9163 128.889 70.2319 127.846C71.054 128.334 70.545 130.077 71.581 129.595C72.2398 129.288 72.1396 127.871 72.3386 127.277Z" fill="black"/>
</svg>
